<?xml version="1.0" encoding="UTF-8" standalone="no"?>
<!-- Created with Inkscape (http://www.inkscape.org/) -->

<svg
   xmlns:dc="http://purl.org/dc/elements/1.1/"
   xmlns:cc="http://creativecommons.org/ns#"
   xmlns:rdf="http://www.w3.org/1999/02/22-rdf-syntax-ns#"
   xmlns:svg="http://www.w3.org/2000/svg"
   xmlns="http://www.w3.org/2000/svg"
   xmlns:sodipodi="http://sodipodi.sourceforge.net/DTD/sodipodi-0.dtd"
   xmlns:inkscape="http://www.inkscape.org/namespaces/inkscape"
   width="47mm"
   height="52mm"
   viewBox="0 0 47 52"
   version="1.1"
   id="svg8"
   inkscape:version="0.92.3 (2405546, 2018-03-11)"
   sodipodi:docname="AB-Icon.svg">
  <defs
     id="defs2" />
  <sodipodi:namedview
     id="base"
     pagecolor="#ffffff"
     bordercolor="#666666"
     borderopacity="1.0"
     inkscape:pageopacity="0.0"
     inkscape:pageshadow="2"
     inkscape:zoom="2"
     inkscape:cx="209.95597"
     inkscape:cy="242.52892"
     inkscape:document-units="mm"
     inkscape:current-layer="layer1"
     showgrid="false"
     inkscape:snap-global="false"
     inkscape:window-width="2560"
     inkscape:window-height="1390"
     inkscape:window-x="4160"
     inkscape:window-y="25"
     inkscape:window-maximized="1"
     width="104mm" />
  <metadata
     id="metadata5">
    <rdf:RDF>
      <cc:Work
         rdf:about="">
        <dc:format>image/svg+xml</dc:format>
        <dc:type
           rdf:resource="http://purl.org/dc/dcmitype/StillImage" />
        <dc:title></dc:title>
      </cc:Work>
    </rdf:RDF>
  </metadata>
  <g
     inkscape:label="Ebene 1"
     inkscape:groupmode="layer"
     id="layer1"
     transform="translate(0,-245)">
    <path
       style="fill:#090c10;fill-opacity:1;stroke:#040404;stroke-width:0;stroke-linecap:butt;stroke-linejoin:miter;stroke-miterlimit:4;stroke-dasharray:none;stroke-opacity:1"
       d="M 4.3546457,285.83416 H 41.793551 c 0,0 0.735468,-6.53513 -2.381522,-10.45764 -3.116991,-3.92251 -7.919466,-4.63934 -7.919466,-4.63934 0,0 -5.586085,12.43529 -7.945666,12.43529 -2.359578,0 -7.723948,-12.43529 -7.723948,-12.43529 0,0 -7.161297,0.67835 -9.3840672,4.63934 -2.2227702,3.96098 -2.0842361,10.45764 -2.0842361,10.45764 z"
       id="path815-2-7"
       inkscape:connector-curvature="0"
       sodipodi:nodetypes="ccsczczc" />
    <path
       style="fill:#090c10;fill-opacity:1;stroke:#040404;stroke-width:0;stroke-linecap:butt;stroke-linejoin:miter;stroke-miterlimit:4;stroke-dasharray:none;stroke-opacity:1"
       d="m 21.381304,271.50038 c 1.522504,0.20478 2.971833,0.22664 4.307751,-0.035 l -0.630401,2.80179 c -0.95728,0.2302 -1.914558,0.23674 -2.871837,0 z"
       id="path817-2-0"
       inkscape:connector-curvature="0"
       sodipodi:nodetypes="ccccc" />
    <path
       style="fill:#090c10;fill-opacity:1;stroke:#040404;stroke-width:0;stroke-linecap:butt;stroke-linejoin:miter;stroke-miterlimit:4;stroke-dasharray:none;stroke-opacity:1"
       d="m 22.256862,274.88734 c 0.898908,0.19872 1.797813,0.29956 2.696721,0.035 l 1.32506,4.43543 c 0,0 -1.944609,2.89215 -2.696718,2.83405 -0.752109,-0.0581 -2.521613,-2.86907 -2.521613,-2.86907 z"
       id="path819-9-6"
       inkscape:connector-curvature="0"
       sodipodi:nodetypes="ccczcc" />
    <path
       style="fill:#090c10;fill-opacity:1;stroke:#040404;stroke-width:0;stroke-linecap:butt;stroke-linejoin:miter;stroke-miterlimit:4;stroke-dasharray:none;stroke-opacity:1"
       d="m 16.184543,260.03131 c 3.22659,-0.58018 5.195171,-0.51953 7.118791,0.32757 0.852327,-0.25449 1.12358,0.1488 1.423354,-0.0433 2.224601,-0.95254 4.732059,-0.53887 6.207386,-0.28435 0.234477,1.07971 -0.511758,4.23492 -2.751247,4.57445 -2.082346,0.31571 -3.296869,-2.81104 -3.456139,-3.19859 -0.433301,0.0893 -1.052591,0.17924 -1.423354,-0.0433 -0.114347,0.45415 -1.789278,3.39527 -4.106774,3.23891 -2.3175,-0.15636 -3.214981,-4.40241 -3.012017,-4.57155 z"
       id="path821-7-0"
       inkscape:connector-curvature="0"
       sodipodi:nodetypes="ccccscczc" />
    <path
       style="fill:#090c10;fill-opacity:1;stroke:#040404;stroke-width:0;stroke-linecap:butt;stroke-linejoin:miter;stroke-miterlimit:4;stroke-dasharray:none;stroke-opacity:1"
       d="m 12.263178,256.27668 c 1.52947,1.87687 21.334409,2.07516 23.822607,-0.29002 1.072556,-1.01951 -3.935906,-3.19015 -3.935906,-3.19015 -5.589264,1.52206 -13.396874,1.44178 -16.240807,0.33144 0,0 -5.175359,1.27186 -3.645894,3.14873 z"
       id="path823-5-8"
       inkscape:connector-curvature="0"
       sodipodi:nodetypes="zsccz" />
    <path
       style="fill:#090c10;fill-opacity:1;stroke:#040404;stroke-width:0;stroke-linecap:butt;stroke-linejoin:miter;stroke-miterlimit:4;stroke-dasharray:none;stroke-opacity:1"
       d="m 16.654826,252.75508 c 5.112886,0.92704 9.920302,0.32671 14.707868,-0.37287 0,0 -0.32988,-3.52738 -1.367207,-4.84739 -0.382091,-0.48621 -1.002174,-0.83491 -1.615796,-0.91148 -1.306484,-0.16302 -2.498854,1.13632 -3.811619,1.03577 -1.220556,-0.0935 -2.131755,-1.49604 -3.355879,-1.4915 -1.137221,0.004 -2.366798,0.54554 -3.107294,1.40863 -1.16729,1.36056 -1.450073,5.17884 -1.450073,5.17884 z"
       id="path825-6-5"
       inkscape:connector-curvature="0"
       sodipodi:nodetypes="ccsssssc" />
    <path
       style="fill:#090c10;fill-opacity:1;stroke:#040404;stroke-width:0;stroke-linecap:butt;stroke-linejoin:miter;stroke-miterlimit:4;stroke-dasharray:none;stroke-opacity:1"
       d="m 13.466786,260.01076 0.06934,3.05099 c 0,0 -2.752142,0.0666 -2.704286,-1.5255 0.04785,-1.59206 2.634949,-1.52549 2.634949,-1.52549 z"
       id="path888-4-3"
       inkscape:connector-curvature="0"
       sodipodi:nodetypes="cczc" />
    <path
       style="fill:#090c10;fill-opacity:1;stroke:#040404;stroke-width:0;stroke-linecap:butt;stroke-linejoin:miter;stroke-miterlimit:4;stroke-dasharray:none;stroke-opacity:1"
       d="m 33.355613,260.12023 0.06934,3.18968 c 0,0 2.738396,-0.07 2.704286,-1.59484 -0.03409,-1.5248 -2.773626,-1.59484 -2.773626,-1.59484 z"
       id="path890-6-9"
       inkscape:connector-curvature="0"
       sodipodi:nodetypes="cczc" />
    <path
       style="opacity:1;fill:none;fill-opacity:1;stroke:#000000;stroke-width:0.74126071;stroke-linecap:round;stroke-linejoin:round;stroke-miterlimit:4;stroke-dasharray:none;stroke-dashoffset:0;stroke-opacity:1"
       id="path1058"
       sodipodi:type="arc"
       sodipodi:cx="12.091203"
       sodipodi:cy="261.53699"
       sodipodi:rx="3.3976967"
       sodipodi:ry="3.3283558"
       sodipodi:start="1.603011"
       sodipodi:end="4.7037963"
       d="m 11.981766,264.86362 a 3.3976967,3.3283558 0 0 1 -3.288023,-3.36594 3.3976967,3.3283558 0 0 1 3.368265,-3.28893"
       sodipodi:open="true" />
    <path
       style="opacity:1;fill:none;fill-opacity:1;stroke:#000000;stroke-width:0.74126071;stroke-linecap:round;stroke-linejoin:round;stroke-miterlimit:4;stroke-dasharray:none;stroke-dashoffset:0;stroke-opacity:1"
       id="path1058-5"
       sodipodi:type="arc"
       sodipodi:cx="10.500681"
       sodipodi:cy="261.53738"
       sodipodi:rx="4.9856086"
       sodipodi:ry="4.8838615"
       sodipodi:start="1.603011"
       sodipodi:end="4.7037963"
       d="m 10.340099,266.41871 a 4.9856086,4.8838615 0 0 1 -4.8246789,-4.93901 4.9856086,4.8838615 0 0 1 4.9424219,-4.826"
       sodipodi:open="true" />
    <path
       style="opacity:1;fill:none;fill-opacity:1;stroke:#000000;stroke-width:0.74126071;stroke-linecap:round;stroke-linejoin:round;stroke-miterlimit:4;stroke-dasharray:none;stroke-dashoffset:0;stroke-opacity:1"
       id="path1058-5-4"
       sodipodi:type="arc"
       sodipodi:cx="9.2470999"
       sodipodi:cy="261.53778"
       sodipodi:rx="6.6523533"
       sodipodi:ry="6.5165906"
       sodipodi:start="1.603011"
       sodipodi:end="4.7037963"
       d="m 9.0328336,268.05099 a 6.6523533,6.5165906 0 0 1 -6.437623,-6.59017 6.6523533,6.5165906 0 0 1 6.5947284,-6.43939"
       sodipodi:open="true" />
    <path
       style="opacity:1;fill:none;fill-opacity:1;stroke:#000000;stroke-width:0.74126071;stroke-linecap:round;stroke-linejoin:round;stroke-miterlimit:4;stroke-dasharray:none;stroke-dashoffset:0;stroke-opacity:1"
       id="path1058-9"
       sodipodi:type="arc"
       sodipodi:cx="-34.847954"
       sodipodi:cy="261.93219"
       sodipodi:rx="3.3976967"
       sodipodi:ry="3.3283558"
       sodipodi:start="1.603011"
       sodipodi:end="4.7037963"
       d="m -34.957391,265.25882 a 3.3976967,3.3283558 0 0 1 -3.288023,-3.36594 3.3976967,3.3283558 0 0 1 3.368265,-3.28892"
       sodipodi:open="true"
       transform="scale(-1,1)" />
    <path
       style="opacity:1;fill:none;fill-opacity:1;stroke:#000000;stroke-width:0.74126071;stroke-linecap:round;stroke-linejoin:round;stroke-miterlimit:4;stroke-dasharray:none;stroke-dashoffset:0;stroke-opacity:1"
       id="path1058-5-8"
       sodipodi:type="arc"
       sodipodi:cx="-36.438473"
       sodipodi:cy="261.93256"
       sodipodi:rx="4.9856086"
       sodipodi:ry="4.8838615"
       sodipodi:start="1.603011"
       sodipodi:end="4.7037963"
       d="m -36.599055,266.81388 a 4.9856086,4.8838615 0 0 1 -4.824679,-4.93901 4.9856086,4.8838615 0 0 1 4.942422,-4.826"
       sodipodi:open="true"
       transform="scale(-1,1)" />
    <path
       style="opacity:1;fill:none;fill-opacity:1;stroke:#000000;stroke-width:0.74126071;stroke-linecap:round;stroke-linejoin:round;stroke-miterlimit:4;stroke-dasharray:none;stroke-dashoffset:0;stroke-opacity:1"
       id="path1058-5-4-3"
       sodipodi:type="arc"
       sodipodi:cx="-37.692055"
       sodipodi:cy="261.93298"
       sodipodi:rx="6.6523533"
       sodipodi:ry="6.5165911"
       sodipodi:start="1.603011"
       sodipodi:end="4.7037963"
       d="m -37.906321,268.44619 a 6.6523533,6.5165911 0 0 1 -6.437623,-6.59017 6.6523533,6.5165911 0 0 1 6.594728,-6.43939"
       sodipodi:open="true"
       transform="scale(-1,1)" />
    <text
       xml:space="preserve"
       style="font-style:normal;font-variant:normal;font-weight:normal;font-stretch:normal;font-size:9.0723505px;line-height:125%;font-family:'D3 Archism';-inkscape-font-specification:'D3 Archism';letter-spacing:0px;word-spacing:0px;fill:#090c10;fill-opacity:1;stroke:none;stroke-width:0.17010655"
       x="9.3632784"
       y="290.82153"
       id="text1116"><tspan
         sodipodi:role="line"
         x="9.3632784"
         y="290.82153"
         style="line-height:1.9287672px;letter-spacing:0.49031302px;fill:#090c10;fill-opacity:1;stroke-width:0.17010655"
         id="tspan1126">Audio</tspan></text>
    <text
       xml:space="preserve"
       style="font-style:normal;font-variant:normal;font-weight:normal;font-stretch:normal;font-size:9.0723505px;line-height:125%;font-family:'D3 Archism';-inkscape-font-specification:'D3 Archism';letter-spacing:2.54472446px;word-spacing:0px;fill:#090c10;fill-opacity:1;stroke:none;stroke-width:0.17010655"
       x="1.0306048"
       y="296.0347"
       id="text1116-2"><tspan
         sodipodi:role="line"
         x="1.0306048"
         y="296.0347"
         style="line-height:1.9287672px;letter-spacing:0.49031302px;fill:#090c10;fill-opacity:1;stroke-width:0.17010655"
         id="tspan1126-2">Bürokrat</tspan></text>
  </g>
</svg>
