<?xml version="1.0" encoding="UTF-8" standalone="no"?>
<!-- Created with Inkscape (http://www.inkscape.org/) -->

<svg
   xmlns:dc="http://purl.org/dc/elements/1.1/"
   xmlns:cc="http://creativecommons.org/ns#"
   xmlns:rdf="http://www.w3.org/1999/02/22-rdf-syntax-ns#"
   xmlns:svg="http://www.w3.org/2000/svg"
   xmlns="http://www.w3.org/2000/svg"
   xmlns:sodipodi="http://sodipodi.sourceforge.net/DTD/sodipodi-0.dtd"
   xmlns:inkscape="http://www.inkscape.org/namespaces/inkscape"
   width="47mm"
   height="52mm"
   viewBox="0 0 47 52"
   version="1.1"
   id="svg8"
   inkscape:version="0.92.3 (2405546, 2018-03-11)"
   sodipodi:docname="AB-Icon.svg">
  <defs
     id="defs2" />
  <sodipodi:namedview
     id="base"
     pagecolor="#ffffff"
     bordercolor="#666666"
     borderopacity="1.0"
     inkscape:pageopacity="0.0"
     inkscape:pageshadow="2"
     inkscape:zoom="8"
     inkscape:cx="103.95882"
     inkscape:cy="152.92915"
     inkscape:document-units="mm"
     inkscape:current-layer="layer1"
     showgrid="false"
     inkscape:snap-global="false"
     inkscape:window-width="2560"
     inkscape:window-height="1390"
     inkscape:window-x="1600"
     inkscape:window-y="25"
     inkscape:window-maximized="1"
     width="104mm" />
  <metadata
     id="metadata5">
    <rdf:RDF>
      <cc:Work
         rdf:about="">
        <dc:format>image/svg+xml</dc:format>
        <dc:type
           rdf:resource="http://purl.org/dc/dcmitype/StillImage" />
        <dc:title />
      </cc:Work>
    </rdf:RDF>
  </metadata>
  <g
     inkscape:label="Ebene 1"
     inkscape:groupmode="layer"
     id="layer1"
     transform="translate(0,-245)">
    <path
       style="fill:#090c10;fill-opacity:1;stroke:#040404;stroke-width:0;stroke-linecap:butt;stroke-linejoin:miter;stroke-miterlimit:4;stroke-dasharray:none;stroke-opacity:1"
       d="M 4.3546457,285.83416 H 41.793551 c 0,0 0.735468,-6.53513 -2.381522,-10.45764 -3.116991,-3.92251 -7.919466,-4.63934 -7.919466,-4.63934 0,0 -5.586085,12.43529 -7.945666,12.43529 -2.359578,0 -7.723948,-12.43529 -7.723948,-12.43529 0,0 -7.161297,0.67835 -9.3840672,4.63934 -2.2227702,3.96098 -2.0842361,10.45764 -2.0842361,10.45764 z"
       id="path815-2-7"
       inkscape:connector-curvature="0"
       sodipodi:nodetypes="ccsczczc" />
    <path
       style="fill:#090c10;fill-opacity:1;stroke:#040404;stroke-width:0;stroke-linecap:butt;stroke-linejoin:miter;stroke-miterlimit:4;stroke-dasharray:none;stroke-opacity:1"
       d="m 21.381304,271.50038 c 1.522504,0.20478 2.971833,0.22664 4.307751,-0.035 l -0.630401,2.80179 c -0.95728,0.2302 -1.914558,0.23674 -2.871837,0 z"
       id="path817-2-0"
       inkscape:connector-curvature="0"
       sodipodi:nodetypes="ccccc" />
    <path
       style="fill:#090c10;fill-opacity:1;stroke:#040404;stroke-width:0;stroke-linecap:butt;stroke-linejoin:miter;stroke-miterlimit:4;stroke-dasharray:none;stroke-opacity:1"
       d="m 22.256862,274.88734 c 0.898908,0.19872 1.797813,0.29956 2.696721,0.035 l 1.32506,4.43543 c 0,0 -1.944609,2.89215 -2.696718,2.83405 -0.752109,-0.0581 -2.521613,-2.86907 -2.521613,-2.86907 z"
       id="path819-9-6"
       inkscape:connector-curvature="0"
       sodipodi:nodetypes="ccczcc" />
    <path
       style="fill:#090c10;fill-opacity:1;stroke:#040404;stroke-width:0;stroke-linecap:butt;stroke-linejoin:miter;stroke-miterlimit:4;stroke-dasharray:none;stroke-opacity:1"
       d="m 16.184543,260.03131 c 3.22659,-0.58018 5.195171,-0.51953 7.118791,0.32757 0.852327,-0.25449 1.12358,0.1488 1.423354,-0.0433 2.224601,-0.95254 4.732059,-0.53887 6.207386,-0.28435 0.234477,1.07971 -0.511758,4.23492 -2.751247,4.57445 -2.082346,0.31571 -3.296869,-2.81104 -3.456139,-3.19859 -0.433301,0.0893 -1.052591,0.17924 -1.423354,-0.0433 -0.114347,0.45415 -1.789278,3.39527 -4.106774,3.23891 -2.3175,-0.15636 -3.214981,-4.40241 -3.012017,-4.57155 z"
       id="path821-7-0"
       inkscape:connector-curvature="0"
       sodipodi:nodetypes="ccccscczc" />
    <path
       style="fill:#090c10;fill-opacity:1;stroke:#040404;stroke-width:0;stroke-linecap:butt;stroke-linejoin:miter;stroke-miterlimit:4;stroke-dasharray:none;stroke-opacity:1"
       d="m 12.263178,256.27668 c 1.52947,1.87687 21.334409,2.07516 23.822607,-0.29002 1.072556,-1.01951 -3.935906,-3.19015 -3.935906,-3.19015 -5.589264,1.52206 -13.396874,1.44178 -16.240807,0.33144 0,0 -5.175359,1.27186 -3.645894,3.14873 z"
       id="path823-5-8"
       inkscape:connector-curvature="0"
       sodipodi:nodetypes="zsccz" />
    <path
       style="fill:#090c10;fill-opacity:1;stroke:#040404;stroke-width:0;stroke-linecap:butt;stroke-linejoin:miter;stroke-miterlimit:4;stroke-dasharray:none;stroke-opacity:1"
       d="m 16.654826,252.75508 c 5.112886,0.92704 9.920302,0.32671 14.707868,-0.37287 0,0 -0.32988,-3.52738 -1.367207,-4.84739 -0.382091,-0.48621 -1.002174,-0.83491 -1.615796,-0.91148 -1.306484,-0.16302 -2.498854,1.13632 -3.811619,1.03577 -1.220556,-0.0935 -2.131755,-1.49604 -3.355879,-1.4915 -1.137221,0.004 -2.366798,0.54554 -3.107294,1.40863 -1.16729,1.36056 -1.450073,5.17884 -1.450073,5.17884 z"
       id="path825-6-5"
       inkscape:connector-curvature="0"
       sodipodi:nodetypes="ccsssssc" />
    <path
       style="fill:#090c10;fill-opacity:1;stroke:#040404;stroke-width:0;stroke-linecap:butt;stroke-linejoin:miter;stroke-miterlimit:4;stroke-dasharray:none;stroke-opacity:1"
       d="m 13.466786,260.01076 0.06934,3.05099 c 0,0 -2.752142,0.0666 -2.704286,-1.5255 0.04785,-1.59206 2.634949,-1.52549 2.634949,-1.52549 z"
       id="path888-4-3"
       inkscape:connector-curvature="0"
       sodipodi:nodetypes="cczc" />
    <path
       style="fill:#090c10;fill-opacity:1;stroke:#040404;stroke-width:0;stroke-linecap:butt;stroke-linejoin:miter;stroke-miterlimit:4;stroke-dasharray:none;stroke-opacity:1"
       d="m 33.355613,260.12023 0.06934,3.18968 c 0,0 2.738396,-0.07 2.704286,-1.59484 -0.03409,-1.5248 -2.773626,-1.59484 -2.773626,-1.59484 z"
       id="path890-6-9"
       inkscape:connector-curvature="0"
       sodipodi:nodetypes="cczc" />
    <path
       style="color:#000000;font-style:normal;font-variant:normal;font-weight:normal;font-stretch:normal;font-size:medium;line-height:normal;font-family:sans-serif;font-variant-ligatures:normal;font-variant-position:normal;font-variant-caps:normal;font-variant-numeric:normal;font-variant-alternates:normal;font-feature-settings:normal;text-indent:0;text-align:start;text-decoration:none;text-decoration-line:none;text-decoration-style:solid;text-decoration-color:#000000;letter-spacing:normal;word-spacing:normal;text-transform:none;writing-mode:lr-tb;direction:ltr;text-orientation:mixed;dominant-baseline:auto;baseline-shift:baseline;text-anchor:start;white-space:normal;shape-padding:0;clip-rule:nonzero;display:inline;overflow:visible;visibility:visible;opacity:1;isolation:auto;mix-blend-mode:normal;color-interpolation:sRGB;color-interpolation-filters:linearRGB;solid-color:#000000;solid-opacity:1;vector-effect:none;fill:#000000;fill-opacity:1;fill-rule:nonzero;stroke:none;stroke-width:0.74126071;stroke-linecap:round;stroke-linejoin:round;stroke-miterlimit:4;stroke-dasharray:none;stroke-dashoffset:0;stroke-opacity:1;color-rendering:auto;image-rendering:auto;shape-rendering:auto;text-rendering:auto;enable-background:accumulate"
       d="m 12.058594,257.83789 c -2.043001,0.0172 -3.7120523,1.64291 -3.7363284,3.65625 -0.024276,2.01334 1.6064099,3.67577 3.6484374,3.74024 a 0.37066742,0.37066742 0 1 0 0.02344,-0.74024 c -1.655013,-0.0523 -2.9490992,-1.38231 -2.9296879,-2.99219 0.019411,-1.60987 1.3441779,-2.90793 2.9999999,-2.92187 a 0.37110656,0.37110656 0 1 0 -0.0059,-0.74219 z"
       id="path1058"
       inkscape:connector-curvature="0" />
    <path
       style="color:#000000;font-style:normal;font-variant:normal;font-weight:normal;font-stretch:normal;font-size:medium;line-height:normal;font-family:sans-serif;font-variant-ligatures:normal;font-variant-position:normal;font-variant-caps:normal;font-variant-numeric:normal;font-variant-alternates:normal;font-feature-settings:normal;text-indent:0;text-align:start;text-decoration:none;text-decoration-line:none;text-decoration-style:solid;text-decoration-color:#000000;letter-spacing:normal;word-spacing:normal;text-transform:none;writing-mode:lr-tb;direction:ltr;text-orientation:mixed;dominant-baseline:auto;baseline-shift:baseline;text-anchor:start;white-space:normal;shape-padding:0;clip-rule:nonzero;display:inline;overflow:visible;visibility:visible;opacity:1;isolation:auto;mix-blend-mode:normal;color-interpolation:sRGB;color-interpolation-filters:linearRGB;solid-color:#000000;solid-opacity:1;vector-effect:none;fill:#000000;fill-opacity:1;fill-rule:nonzero;stroke:none;stroke-width:0.74126071;stroke-linecap:round;stroke-linejoin:round;stroke-miterlimit:4;stroke-dasharray:none;stroke-dashoffset:0;stroke-opacity:1;color-rendering:auto;image-rendering:auto;shape-rendering:auto;text-rendering:auto;enable-background:accumulate"
       d="m 10.455078,256.2832 c -2.9073223,0.0245 -5.276062,2.33142 -5.3105468,5.19141 -0.034485,2.85999 2.2776612,5.22272 5.1835938,5.31445 a 0.37066742,0.37066742 0 1 0 0.02344,-0.74023 c -2.5189168,-0.0795 -4.4944632,-2.10792 -4.4648432,-4.56445 0.02962,-2.45654 2.0540755,-4.43973 4.5742192,-4.46094 a 0.37066742,0.37066742 0 1 0 -0.0059,-0.74024 z"
       id="path1058-5"
       inkscape:connector-curvature="0" />
    <path
       style="color:#000000;font-style:normal;font-variant:normal;font-weight:normal;font-stretch:normal;font-size:medium;line-height:normal;font-family:sans-serif;font-variant-ligatures:normal;font-variant-position:normal;font-variant-caps:normal;font-variant-numeric:normal;font-variant-alternates:normal;font-feature-settings:normal;text-indent:0;text-align:start;text-decoration:none;text-decoration-line:none;text-decoration-style:solid;text-decoration-color:#000000;letter-spacing:normal;word-spacing:normal;text-transform:none;writing-mode:lr-tb;direction:ltr;text-orientation:mixed;dominant-baseline:auto;baseline-shift:baseline;text-anchor:start;white-space:normal;shape-padding:0;clip-rule:nonzero;display:inline;overflow:visible;visibility:visible;opacity:1;isolation:auto;mix-blend-mode:normal;color-interpolation:sRGB;color-interpolation-filters:linearRGB;solid-color:#000000;solid-opacity:1;vector-effect:none;fill:#000000;fill-opacity:1;fill-rule:nonzero;stroke:none;stroke-width:0.74126071;stroke-linecap:round;stroke-linejoin:round;stroke-miterlimit:4;stroke-dasharray:none;stroke-dashoffset:0;stroke-opacity:1;color-rendering:auto;image-rendering:auto;shape-rendering:auto;text-rendering:auto;enable-background:accumulate"
       d="m 9.1875,254.65039 c -3.8145537,0.0321 -6.9176905,3.05796 -6.9628906,6.80664 -0.0452,3.74868 2.9841484,6.84448 6.796875,6.96485 a 0.37127999,0.37127999 0 1 0 0.023437,-0.74219 c -3.4257114,-0.10815 -6.1204135,-2.86963 -6.0800781,-6.21485 0.040335,-3.34522 2.8011411,-6.04341 6.2285156,-6.07226 A 0.37110656,0.37110656 0 1 0 9.1875,254.65039 Z"
       id="path1058-5-4"
       inkscape:connector-curvature="0" />
    <path
       style="color:#000000;font-style:normal;font-variant:normal;font-weight:normal;font-stretch:normal;font-size:medium;line-height:normal;font-family:sans-serif;font-variant-ligatures:normal;font-variant-position:normal;font-variant-caps:normal;font-variant-numeric:normal;font-variant-alternates:normal;font-feature-settings:normal;text-indent:0;text-align:start;text-decoration:none;text-decoration-line:none;text-decoration-style:solid;text-decoration-color:#000000;letter-spacing:normal;word-spacing:normal;text-transform:none;writing-mode:lr-tb;direction:ltr;text-orientation:mixed;dominant-baseline:auto;baseline-shift:baseline;text-anchor:start;white-space:normal;shape-padding:0;clip-rule:nonzero;display:inline;overflow:visible;visibility:visible;opacity:1;isolation:auto;mix-blend-mode:normal;color-interpolation:sRGB;color-interpolation-filters:linearRGB;solid-color:#000000;solid-opacity:1;vector-effect:none;fill:#000000;fill-opacity:1;fill-rule:nonzero;stroke:none;stroke-width:0.74126071;stroke-linecap:round;stroke-linejoin:round;stroke-miterlimit:4;stroke-dasharray:none;stroke-dashoffset:0;stroke-opacity:1;color-rendering:auto;image-rendering:auto;shape-rendering:auto;text-rendering:auto;enable-background:accumulate"
       d="m 34.880859,258.23242 c 2.043001,0.0172 3.710099,1.64291 3.734375,3.65625 0.02428,2.01334 -1.604456,3.67577 -3.646484,3.74024 a 0.37066742,0.37066742 0 1 1 -0.02344,-0.74024 c 1.655013,-0.0522 2.949099,-1.38231 2.929688,-2.99219 -0.01941,-1.60987 -1.344178,-2.90793 -3,-2.92187 a 0.37110656,0.37110656 0 1 1 0.0059,-0.74219 z"
       id="path1058-9"
       inkscape:connector-curvature="0" />
    <path
       style="color:#000000;font-style:normal;font-variant:normal;font-weight:normal;font-stretch:normal;font-size:medium;line-height:normal;font-family:sans-serif;font-variant-ligatures:normal;font-variant-position:normal;font-variant-caps:normal;font-variant-numeric:normal;font-variant-alternates:normal;font-feature-settings:normal;text-indent:0;text-align:start;text-decoration:none;text-decoration-line:none;text-decoration-style:solid;text-decoration-color:#000000;letter-spacing:normal;word-spacing:normal;text-transform:none;writing-mode:lr-tb;direction:ltr;text-orientation:mixed;dominant-baseline:auto;baseline-shift:baseline;text-anchor:start;white-space:normal;shape-padding:0;clip-rule:nonzero;display:inline;overflow:visible;visibility:visible;opacity:1;isolation:auto;mix-blend-mode:normal;color-interpolation:sRGB;color-interpolation-filters:linearRGB;solid-color:#000000;solid-opacity:1;vector-effect:none;fill:#000000;fill-opacity:1;fill-rule:nonzero;stroke:none;stroke-width:0.74126071;stroke-linecap:round;stroke-linejoin:round;stroke-miterlimit:4;stroke-dasharray:none;stroke-dashoffset:0;stroke-opacity:1;color-rendering:auto;image-rendering:auto;shape-rendering:auto;text-rendering:auto;enable-background:accumulate"
       d="m 36.484375,256.67773 c 2.907322,0.0245 5.276062,2.33337 5.310547,5.19336 0.03449,2.86 -2.277661,5.22077 -5.183594,5.3125 a 0.37066742,0.37066742 0 1 1 -0.02344,-0.74023 c 2.518917,-0.0795 4.494463,-2.10792 4.464843,-4.56445 -0.02962,-2.45654 -2.054075,-4.43777 -4.574218,-4.45899 a 0.37110656,0.37110656 0 1 1 0.0059,-0.74219 z"
       id="path1058-5-8"
       inkscape:connector-curvature="0" />
    <path
       style="color:#000000;font-style:normal;font-variant:normal;font-weight:normal;font-stretch:normal;font-size:medium;line-height:normal;font-family:sans-serif;font-variant-ligatures:normal;font-variant-position:normal;font-variant-caps:normal;font-variant-numeric:normal;font-variant-alternates:normal;font-feature-settings:normal;text-indent:0;text-align:start;text-decoration:none;text-decoration-line:none;text-decoration-style:solid;text-decoration-color:#000000;letter-spacing:normal;word-spacing:normal;text-transform:none;writing-mode:lr-tb;direction:ltr;text-orientation:mixed;dominant-baseline:auto;baseline-shift:baseline;text-anchor:start;white-space:normal;shape-padding:0;clip-rule:nonzero;display:inline;overflow:visible;visibility:visible;opacity:1;isolation:auto;mix-blend-mode:normal;color-interpolation:sRGB;color-interpolation-filters:linearRGB;solid-color:#000000;solid-opacity:1;vector-effect:none;fill:#000000;fill-opacity:1;fill-rule:nonzero;stroke:none;stroke-width:0.74126071;stroke-linecap:round;stroke-linejoin:round;stroke-miterlimit:4;stroke-dasharray:none;stroke-dashoffset:0;stroke-opacity:1;color-rendering:auto;image-rendering:auto;shape-rendering:auto;text-rendering:auto;enable-background:accumulate"
       d="m 37.751953,255.04688 c 3.814554,0.0321 6.917691,3.056 6.962891,6.80468 0.0452,3.74868 -2.984149,6.84449 -6.796875,6.96485 a 0.37066742,0.37066742 0 1 1 -0.02344,-0.74024 c 3.425712,-0.10814 6.118461,-2.86962 6.078125,-6.21484 -0.04033,-3.34522 -2.799188,-6.04537 -6.226562,-6.07422 a 0.37066742,0.37066742 0 1 1 0.0059,-0.74023 z"
       id="path1058-5-4-3"
       inkscape:connector-curvature="0" />
    <g
       aria-label="Audio"
       style="font-style:normal;font-variant:normal;font-weight:normal;font-stretch:normal;font-size:9.0723505px;line-height:125%;font-family:'D3 Archism';-inkscape-font-specification:'D3 Archism';letter-spacing:0px;word-spacing:0px;fill:#090c10;fill-opacity:1;stroke:none;stroke-width:0.17010655"
       id="text1116">
      <path
         d="m 16.19412,288.89897 -0.02658,1.92256 h -1.771943 v -0.70877 h -3.260376 v 0.70877 H 9.3632784 l 0.026579,-1.92256 q 0,-0.94799 0.9036915,-1.50615 0.903691,-0.55816 2.49844,-0.55816 1.585889,0 2.489581,0.55816 0.91255,0.55816 0.91255,1.50615 z m -1.798522,0.46957 0.02658,-0.46957 q 0,-0.35438 -0.141756,-0.60246 -0.132895,-0.24807 -0.354388,-0.40754 -0.221493,-0.15948 -0.522724,-0.23036 -0.29237,-0.0709 -0.61132,-0.0709 -0.31895,0 -0.611321,0.0709 -0.28351,0.0709 -0.522723,0.23036 -0.221493,0.14175 -0.363248,0.40754 -0.132896,0.25694 -0.132896,0.60246 l -0.02658,0.46957 z"
         style="line-height:1.9287672px;letter-spacing:0.49031302px;fill:#090c10;fill-opacity:1;stroke-width:0.17010655"
         id="path847" />
      <path
         d="m 22.319214,289.35968 q 0,0.73536 -0.717637,1.16062 -0.708778,0.42527 -2.011156,0.42527 -1.284659,0 -2.002296,-0.41641 -0.717637,-0.42526 -0.717637,-1.16948 v -1.47957 h 1.630188 l 0.01772,1.47071 q 0,0.27465 0.0886,0.46071 0.0886,0.17719 0.230353,0.28351 0.168335,0.10631 0.345529,0.15061 0.177194,0.0354 0.407547,0.0354 0.230353,0 0.425266,-0.0443 0.203774,-0.0532 0.345529,-0.15947 0.141756,-0.10632 0.221493,-0.28351 0.07974,-0.1772 0.07974,-0.44299 v -1.47071 h 1.630188 z"
         style="line-height:1.9287672px;letter-spacing:0.49031302px;fill:#090c10;fill-opacity:1;stroke-width:0.17010655"
         id="path849" />
      <path
         d="m 26.876137,287.95098 -0.0089,-1.08088 h 1.594749 v 2.48958 l 0.0089,0.0177 q 0,0.73536 -0.717637,1.16062 -0.708778,0.41641 -2.002297,0.41641 -1.293518,0 -2.011155,-0.41641 -0.717638,-0.42526 -0.717638,-1.16062 0,-0.73536 0.708778,-1.16062 0.717637,-0.42527 2.020015,-0.42527 0.664479,0.0177 1.125185,0.15947 z m -1.88712,2.15292 q 0.132895,0.10631 0.327809,0.15061 0.203774,0.0354 0.416407,0.0354 0.256932,0 0.451846,-0.0443 0.194913,-0.0443 0.336669,-0.15061 0.150615,-0.10632 0.221493,-0.28351 0.07974,-0.18606 0.07974,-0.42527 0,-0.27465 -0.0886,-0.45185 -0.0886,-0.18605 -0.230353,-0.29237 -0.168334,-0.10631 -0.345529,-0.14175 -0.177194,-0.0443 -0.407547,-0.0443 -0.230352,0 -0.434126,0.0532 -0.194914,0.0443 -0.336669,0.15061 -0.141755,0.10632 -0.221493,0.28351 -0.07974,0.1772 -0.07974,0.44299 0,0.28351 0.07088,0.44298 0.07974,0.15948 0.239213,0.27466 z"
         style="line-height:1.9287672px;letter-spacing:0.49031302px;fill:#090c10;fill-opacity:1;stroke-width:0.17010655"
         id="path851" />
      <path
         d="M 31.149549,290.82153 H 29.5548 v -2.5516 h 1.594749 z M 29.26243,287.4194 q 0,-0.18605 0.31009,-0.31895 0.318949,-0.14175 0.770795,-0.14175 0.442986,0 0.761936,0.14175 0.31895,0.1329 0.31895,0.31895 0,0.19492 -0.31895,0.32781 -0.31895,0.1329 -0.761936,0.1329 -0.451846,0 -0.770795,-0.1329 -0.31009,-0.13289 -0.31009,-0.32781 z"
         style="line-height:1.9287672px;letter-spacing:0.49031302px;fill:#090c10;fill-opacity:1;stroke-width:0.17010655"
         id="path853" />
      <path
         d="m 37.575873,289.3774 q 0,0.73536 -0.717637,1.16062 -0.717637,0.41641 -2.011156,0.41641 -1.293518,0 -2.011156,-0.41641 -0.708777,-0.42526 -0.708777,-1.16062 0,-0.74422 0.717637,-1.16062 0.717637,-0.42527 2.002296,-0.42527 1.302379,0 2.011156,0.42527 0.717637,0.42526 0.717637,1.16062 z m -1.966857,0.7265 q 0.159475,-0.11518 0.230353,-0.27466 0.07974,-0.15947 0.07974,-0.44298 0,-0.26579 -0.07974,-0.44299 -0.07974,-0.17719 -0.221493,-0.28351 -0.141756,-0.10631 -0.345529,-0.15061 -0.194914,-0.0532 -0.425267,-0.0532 -0.230352,0 -0.407547,0.0443 -0.177194,0.0354 -0.345529,0.14175 -0.141755,0.10632 -0.230352,0.29237 -0.0886,0.1772 -0.0886,0.45185 0,0.23921 0.07088,0.42527 0.07974,0.17719 0.230353,0.28351 0.141755,0.10631 0.336669,0.15061 0.194914,0.0443 0.451846,0.0443 0.212633,0 0.407547,-0.0354 0.203773,-0.0443 0.336669,-0.15061 z"
         style="line-height:1.9287672px;letter-spacing:0.49031302px;fill:#090c10;fill-opacity:1;stroke-width:0.17010655"
         id="path855" />
    </g>
    <g
       aria-label="Bürokrat"
       style="font-style:normal;font-variant:normal;font-weight:normal;font-stretch:normal;font-size:9.0723505px;line-height:125%;font-family:'D3 Archism';-inkscape-font-specification:'D3 Archism';letter-spacing:2.54472446px;word-spacing:0px;fill:#090c10;fill-opacity:1;stroke:none;stroke-width:0.17010655"
       id="text1116-2">
      <path
         d="m 7.6576734,294.82978 q 0,0.28351 -0.1949138,0.51386 -0.1949138,0.22149 -0.531583,0.37211 -0.3898276,0.17719 -0.8593926,0.24807 -0.4607053,0.0709 -1.1783424,0.0709 H 1.057184 l -0.026579,-2.05546 q 0.026579,-1.89598 2.8705484,-1.87826 l 0.6733386,-0.0177 q 0.7973745,0 1.1606229,0.0354 0.3721081,0.0266 0.7353566,0.1329 0.3809678,0.11518 0.5581621,0.31009 0.1860541,0.19491 0.1860541,0.44299 0,0.28351 -0.2569318,0.505 -0.2480721,0.21263 -0.7087774,0.33667 v 0.0266 q 0.6467594,0.0797 1.0277272,0.31895 0.3809679,0.23921 0.3809679,0.6379 z m -2.1794905,-1.63019 q 0,-0.0975 -0.088597,-0.19491 -0.079737,-0.0975 -0.2835109,-0.14176 -0.1860541,-0.0443 -0.469565,-0.0443 -0.2746513,-0.009 -0.7353566,-0.009 -1.1517632,0 -1.1517632,0.83281 h 0.2657915 q 1.3555368,0 1.6390477,0 0.283511,-0.009 0.4518456,-0.062 0.2303526,-0.0532 0.3012304,-0.15062 0.070878,-0.10632 0.070878,-0.23035 z m 0.4164067,1.61247 q 0,-0.18606 -0.124036,-0.29237 -0.1240361,-0.10632 -0.4164067,-0.15062 -0.1949138,-0.0354 -0.5493025,-0.0354 -0.345529,-0.009 -0.7264968,-0.009 H 2.74939 v 0.99229 h 0.124036 q 1.6744866,0 1.9845767,0 0.3100901,-0.009 0.5670219,-0.0797 0.2657915,-0.062 0.3632484,-0.16833 0.1063166,-0.11518 0.1063166,-0.25693 z"
         style="line-height:1.9287672px;letter-spacing:0.49031302px;fill:#090c10;fill-opacity:1;stroke-width:0.17010655"
         id="path830" />
      <path
         d="m 13.844785,294.57285 q 0,0.73535 -0.717637,1.16062 -0.708778,0.42526 -2.011156,0.42526 -1.2846592,0 -2.0022963,-0.4164 -0.7176371,-0.42527 -0.7176371,-1.16948 v -1.47958 h 1.6301884 l 0.01772,1.47072 q 0,0.27465 0.0886,0.4607 0.0886,0.1772 0.230353,0.28351 0.168334,0.10632 0.345529,0.15062 0.177194,0.0354 0.407547,0.0354 0.230352,0 0.425266,-0.0443 0.203774,-0.0532 0.345529,-0.15948 0.141756,-0.10631 0.221493,-0.28351 0.07974,-0.17719 0.07974,-0.44298 v -1.47072 h 1.630188 z m -5.0588989,-2.29467 q 0,-0.18606 0.3100901,-0.31895 0.3189498,-0.14176 0.7707954,-0.14176 0.4429854,0 0.7619354,0.14176 0.31895,0.13289 0.31895,0.31895 0,0.19491 -0.31895,0.32781 -0.31895,0.13289 -0.7619354,0.13289 -0.4518456,0 -0.7707954,-0.13289 -0.3100901,-0.1329 -0.3100901,-0.32781 z m 2.4807209,0 q 0,-0.18606 0.31009,-0.31895 0.31895,-0.14176 0.770795,-0.14176 0.442986,0 0.761936,0.14176 0.31895,0.13289 0.31895,0.31895 0,0.19491 -0.31895,0.32781 -0.31895,0.13289 -0.761936,0.13289 -0.451845,0 -0.770795,-0.13289 -0.31009,-0.1329 -0.31009,-0.32781 z"
         style="line-height:1.9287672px;letter-spacing:0.49031302px;fill:#090c10;fill-opacity:1;stroke-width:0.17010655"
         id="path832" />
      <path
         d="m 18.481445,293.68687 h -1.010008 q -0.407547,0 -0.584741,0.0443 -0.177194,0.0354 -0.345529,0.14176 -0.141755,0.10631 -0.230353,0.29237 -0.0886,0.17719 -0.0886,0.45184 l -0.01772,1.41756 H 14.57431 v -1.42642 q 0,-0.74421 0.708777,-1.19606 0.708778,-0.4607 3.216078,-0.38983 z"
         style="line-height:1.9287672px;letter-spacing:0.49031302px;fill:#090c10;fill-opacity:1;stroke-width:0.17010655"
         id="path834" />
      <path
         d="m 24.659698,294.59056 q 0,0.73536 -0.717637,1.16063 -0.717637,0.4164 -2.011156,0.4164 -1.293519,0 -2.011156,-0.4164 -0.708777,-0.42527 -0.708777,-1.16063 0,-0.74421 0.717637,-1.16062 0.717637,-0.42526 2.002296,-0.42526 1.302378,0 2.011156,0.42526 0.717637,0.42527 0.717637,1.16062 z m -1.966857,0.7265 q 0.159474,-0.11517 0.230352,-0.27465 0.07974,-0.15947 0.07974,-0.44299 0,-0.26579 -0.07974,-0.44298 -0.07974,-0.1772 -0.221493,-0.28351 -0.141755,-0.10632 -0.345529,-0.15062 -0.194913,-0.0532 -0.425266,-0.0532 -0.230353,0 -0.407547,0.0443 -0.177194,0.0354 -0.345529,0.14176 -0.141756,0.10631 -0.230353,0.29237 -0.0886,0.17719 -0.0886,0.45184 0,0.23922 0.07088,0.42527 0.07974,0.1772 0.230352,0.28351 0.141756,0.10632 0.33667,0.15062 0.194914,0.0443 0.451845,0.0443 0.212634,0 0.407547,-0.0354 0.203774,-0.0443 0.33667,-0.15062 z"
         style="line-height:1.9287672px;letter-spacing:0.49031302px;fill:#090c10;fill-opacity:1;stroke-width:0.17010655"
         id="path836" />
      <path
         d="m 30.625316,296.0347 h -1.860541 q -0.06202,-0.53158 -0.61132,-0.74422 -0.549303,-0.21263 -1.213781,-0.20377 v 0.94799 h -1.594749 v -3.93372 h 1.594749 v 2.27695 q 0.664478,0.0266 1.213781,-0.34553 0.549302,-0.37211 0.505004,-0.93913 h 1.833961 q -0.124036,0.85054 -0.673338,1.1872 -0.549303,0.33667 -1.187202,0.37211 0.637899,0.0354 1.293518,0.31895 0.655619,0.28351 0.699918,1.06317 z"
         style="line-height:1.9287672px;letter-spacing:0.49031302px;fill:#090c10;fill-opacity:1;stroke-width:0.17010655"
         id="path838" />
      <path
         d="m 35.297415,293.68687 h -1.010008 q -0.407547,0 -0.584741,0.0443 -0.177195,0.0354 -0.345529,0.14176 -0.141756,0.10631 -0.230353,0.29237 -0.0886,0.17719 -0.0886,0.45184 l -0.01772,1.41756 h -1.630188 v -1.42642 q 0,-0.74421 0.708778,-1.19606 0.708777,-0.4607 3.216077,-0.38983 z"
         style="line-height:1.9287672px;letter-spacing:0.49031302px;fill:#090c10;fill-opacity:1;stroke-width:0.17010655"
         id="path840" />
      <path
         d="m 39.942934,294.20074 q -0.03544,-0.31009 -0.372108,-0.40755 -0.336669,-0.0975 -0.992288,-0.0975 -0.788515,0 -1.240361,0.0886 -0.442985,0.0797 -0.779655,0.12404 v -0.71764 q 0.248072,-0.0443 0.850533,-0.0975 0.611321,-0.0532 1.497292,-0.0532 1.364397,0 1.89598,0.24808 0.540443,0.24807 0.673338,0.78851 v 1.00115 -0.009 q -0.03544,0.52272 -0.753076,0.81509 -0.717637,0.28351 -2.011155,0.28351 -1.293519,0 -2.011156,-0.28351 -0.708778,-0.29237 -0.708778,-0.81509 0,-0.51386 0.717637,-0.80623 0.717638,-0.30124 2.002297,-0.30124 0.983428,0.0177 1.2315,0.23922 z m -0.469565,1.20492 q 0.159475,-0.0797 0.230353,-0.18606 0.07974,-0.11517 0.07974,-0.14175 0,-0.1772 -0.07974,-0.21263 -0.07974,-0.0354 -0.221493,-0.11518 -0.141755,-0.0709 -0.345529,-0.10632 -0.194914,-0.0354 -0.425266,-0.0354 -0.230353,0 -0.407547,0.0354 -0.177195,0.0266 -0.345529,0.0975 -0.141756,0.0797 -0.230353,0.11518 -0.0886,0.0354 -0.0886,0.22149 0,-0.009 0.07088,0.12404 0.07974,0.12403 0.230352,0.19491 0.141756,0.0709 0.336669,0.10632 0.194914,0.0354 0.451846,0.0354 0.212633,0 0.407547,-0.0266 0.203774,-0.0354 0.336669,-0.10632 z"
         style="line-height:1.9287672px;letter-spacing:0.49031302px;fill:#090c10;fill-opacity:1;stroke-width:0.17010655"
         id="path842" />
      <path
         d="m 45.908554,296.05242 q -0.256931,0.0354 -0.549302,0.0532 -0.283511,0.0266 -0.699918,0.0266 -0.93027,0 -1.390975,-0.2215 -0.451846,-0.23035 -0.451846,-0.77079 v -1.39984 h -0.655619 v -0.64676 h 0.655619 v -0.85053 h 1.594749 v 0.85053 h 1.497292 v 0.64676 h -1.497292 v 1.06317 q 0,0.15061 0,0.27465 0.0089,0.11518 0.07974,0.20377 0.06202,0.0975 0.212633,0.15062 0.159475,0.0532 0.460705,0.0532 0.124036,0 0.744216,-0.0886 z"
         style="line-height:1.9287672px;letter-spacing:0.49031302px;fill:#090c10;fill-opacity:1;stroke-width:0.17010655"
         id="path844" />
    </g>
  </g>
</svg>
