G04 #@! TF.GenerationSoftware,KiCad,Pcbnew,5.0.2-bee76a0~70~ubuntu18.04.1*
G04 #@! TF.CreationDate,2020-05-25T20:10:50+02:00*
G04 #@! TF.ProjectId,AB-AudioMatrix-6x6,41422d41-7564-4696-9f4d-61747269782d,v3.4*
G04 #@! TF.SameCoordinates,Original*
G04 #@! TF.FileFunction,Profile,NP*
%FSLAX46Y46*%
G04 Gerber Fmt 4.6, Leading zero omitted, Abs format (unit mm)*
G04 Created by KiCad (PCBNEW 5.0.2-bee76a0~70~ubuntu18.04.1) date Mo 25 Mai 2020 20:10:50 CEST*
%MOMM*%
%LPD*%
G01*
G04 APERTURE LIST*
%ADD10C,0.100000*%
G04 APERTURE END LIST*
D10*
X242000000Y-78000000D02*
G75*
G02X243000000Y-79000000I0J-1000000D01*
G01*
X243000000Y-147000000D02*
G75*
G02X242000000Y-148000000I-1000000J0D01*
G01*
X242000000Y-106000000D02*
G75*
G02X243000000Y-107000000I0J-1000000D01*
G01*
X243000000Y-103000000D02*
G75*
G02X242000000Y-104000000I-1000000J0D01*
G01*
X141000000Y-78000000D02*
G75*
G02X142000000Y-79000000I0J-1000000D01*
G01*
X144000000Y-79000000D02*
G75*
G02X145000000Y-78000000I1000000J0D01*
G01*
X43000000Y-79000000D02*
G75*
G02X44000000Y-78000000I1000000J0D01*
G01*
X43000000Y-107000000D02*
G75*
G02X44000000Y-106000000I1000000J0D01*
G01*
X44000000Y-104000000D02*
G75*
G02X43000000Y-103000000I0J1000000D01*
G01*
X44000000Y-148000000D02*
G75*
G02X43000000Y-147000000I0J1000000D01*
G01*
X243000000Y-107000000D02*
X243000000Y-147000000D01*
X243000000Y-79000000D02*
X243000000Y-103000000D01*
X145000000Y-78000000D02*
X242000000Y-78000000D01*
X44000000Y-78000000D02*
X141000000Y-78000000D01*
X142000000Y-91000000D02*
X142000000Y-88000000D01*
X144000000Y-91000000D02*
X144000000Y-88000000D01*
X144000000Y-91000000D02*
G75*
G02X142000000Y-91000000I-1000000J0D01*
G01*
X144000000Y-82000000D02*
G75*
G02X142000000Y-82000000I-1000000J0D01*
G01*
X142000000Y-88000000D02*
G75*
G02X144000000Y-88000000I1000000J0D01*
G01*
X144000000Y-82000000D02*
X144000000Y-79000000D01*
X142000000Y-82000000D02*
X142000000Y-79000000D01*
X144000000Y-104000000D02*
X144000000Y-100000000D01*
X142000000Y-104000000D02*
X142000000Y-100000000D01*
X142000000Y-100000000D02*
G75*
G02X144000000Y-100000000I1000000J0D01*
G01*
X239000000Y-106000000D02*
G75*
G02X239000000Y-104000000I0J1000000D01*
G01*
X242000000Y-106000000D02*
X239000000Y-106000000D01*
X239000000Y-104000000D02*
X242000000Y-104000000D01*
X225000000Y-106000000D02*
X232000000Y-106000000D01*
X211500000Y-106000000D02*
X218000000Y-106000000D01*
X218000000Y-104000000D02*
G75*
G02X218000000Y-106000000I0J-1000000D01*
G01*
X211500000Y-104000000D02*
X218000000Y-104000000D01*
X225000000Y-106000000D02*
G75*
G02X225000000Y-104000000I0J1000000D01*
G01*
X232000000Y-104000000D02*
G75*
G02X232000000Y-106000000I0J-1000000D01*
G01*
X211500000Y-106000000D02*
G75*
G02X211500000Y-104000000I0J1000000D01*
G01*
X225000000Y-104000000D02*
X232000000Y-104000000D01*
X197500000Y-104000000D02*
X203500000Y-104000000D01*
X138000000Y-106000000D02*
G75*
G02X138000000Y-104000000I0J1000000D01*
G01*
X155000000Y-106000000D02*
X162000000Y-106000000D01*
X203500000Y-104000000D02*
G75*
G02X203500000Y-106000000I0J-1000000D01*
G01*
X183000000Y-104000000D02*
X189500000Y-104000000D01*
X197500000Y-106000000D02*
G75*
G02X197500000Y-104000000I0J1000000D01*
G01*
X148000000Y-104000000D02*
G75*
G02X148000000Y-106000000I0J-1000000D01*
G01*
X189500000Y-104000000D02*
G75*
G02X189500000Y-106000000I0J-1000000D01*
G01*
X169000000Y-106000000D02*
X176000000Y-106000000D01*
X169000000Y-104000000D02*
X176000000Y-104000000D01*
X155000000Y-106000000D02*
G75*
G02X155000000Y-104000000I0J1000000D01*
G01*
X183000000Y-106000000D02*
G75*
G02X183000000Y-104000000I0J1000000D01*
G01*
X144000000Y-104000000D02*
X148000000Y-104000000D01*
X138000000Y-106000000D02*
X148000000Y-106000000D01*
X176000000Y-104000000D02*
G75*
G02X176000000Y-106000000I0J-1000000D01*
G01*
X197500000Y-106000000D02*
X203500000Y-106000000D01*
X155000000Y-104000000D02*
X162000000Y-104000000D01*
X183000000Y-106000000D02*
X189500000Y-106000000D01*
X169000000Y-106000000D02*
G75*
G02X169000000Y-104000000I0J1000000D01*
G01*
X162000000Y-104000000D02*
G75*
G02X162000000Y-106000000I0J-1000000D01*
G01*
X138000000Y-104000000D02*
X142000000Y-104000000D01*
X96500000Y-106000000D02*
G75*
G02X96500000Y-104000000I0J1000000D01*
G01*
X124000000Y-106000000D02*
X131000000Y-106000000D01*
X117000000Y-104000000D02*
G75*
G02X117000000Y-106000000I0J-1000000D01*
G01*
X96500000Y-106000000D02*
X103000000Y-106000000D01*
X124000000Y-106000000D02*
G75*
G02X124000000Y-104000000I0J1000000D01*
G01*
X110000000Y-104000000D02*
X117000000Y-104000000D01*
X110000000Y-106000000D02*
G75*
G02X110000000Y-104000000I0J1000000D01*
G01*
X110000000Y-106000000D02*
X117000000Y-106000000D01*
X103000000Y-104000000D02*
G75*
G02X103000000Y-106000000I0J-1000000D01*
G01*
X124000000Y-104000000D02*
X131000000Y-104000000D01*
X131000000Y-104000000D02*
G75*
G02X131000000Y-106000000I0J-1000000D01*
G01*
X96500000Y-104000000D02*
X103000000Y-104000000D01*
X88500000Y-104000000D02*
G75*
G02X88500000Y-106000000I0J-1000000D01*
G01*
X82500000Y-104000000D02*
X88500000Y-104000000D01*
X82500000Y-106000000D02*
G75*
G02X82500000Y-104000000I0J1000000D01*
G01*
X82500000Y-106000000D02*
X88500000Y-106000000D01*
X68000000Y-106000000D02*
G75*
G02X68000000Y-104000000I0J1000000D01*
G01*
X68000000Y-106000000D02*
X74500000Y-106000000D01*
X74500000Y-104000000D02*
G75*
G02X74500000Y-106000000I0J-1000000D01*
G01*
X68000000Y-104000000D02*
X74500000Y-104000000D01*
X47000000Y-106000000D02*
X44000000Y-106000000D01*
X44000000Y-104000000D02*
X47000000Y-104000000D01*
X43000000Y-79000000D02*
X43000000Y-103000000D01*
X47000000Y-104000000D02*
G75*
G02X47000000Y-106000000I0J-1000000D01*
G01*
X54000000Y-106000000D02*
G75*
G02X54000000Y-104000000I0J1000000D01*
G01*
X61000000Y-104000000D02*
G75*
G02X61000000Y-106000000I0J-1000000D01*
G01*
X54000000Y-106000000D02*
X61000000Y-106000000D01*
X54000000Y-104000000D02*
X61000000Y-104000000D01*
X44000000Y-148000000D02*
X242000000Y-148000000D01*
X43000000Y-107000000D02*
X43000000Y-147000000D01*
M02*
