G04 #@! TF.GenerationSoftware,KiCad,Pcbnew,5.0.2-bee76a0~70~ubuntu18.04.1*
G04 #@! TF.CreationDate,2020-05-25T20:10:49+02:00*
G04 #@! TF.ProjectId,AB-AudioMatrix-6x6,41422d41-7564-4696-9f4d-61747269782d,v3.4*
G04 #@! TF.SameCoordinates,Original*
G04 #@! TF.FileFunction,Paste,Bot*
G04 #@! TF.FilePolarity,Positive*
%FSLAX46Y46*%
G04 Gerber Fmt 4.6, Leading zero omitted, Abs format (unit mm)*
G04 Created by KiCad (PCBNEW 5.0.2-bee76a0~70~ubuntu18.04.1) date Mo 25 Mai 2020 20:10:49 CEST*
%MOMM*%
%LPD*%
G01*
G04 APERTURE LIST*
%ADD10R,0.600000X1.900000*%
%ADD11R,2.100000X2.800000*%
%ADD12C,0.100000*%
%ADD13C,0.950000*%
%ADD14C,0.600000*%
%ADD15R,0.600000X1.550000*%
G04 APERTURE END LIST*
D10*
G04 #@! TO.C,J14*
X99500000Y-98050000D03*
X98500000Y-98050000D03*
X97500000Y-98050000D03*
X96500000Y-98050000D03*
D11*
X102650000Y-100400000D03*
X73350000Y-100400000D03*
D10*
X95500000Y-98050000D03*
X94500000Y-98050000D03*
X93500000Y-98050000D03*
X92500000Y-98050000D03*
X91500000Y-98050000D03*
X90500000Y-98050000D03*
X89500000Y-98050000D03*
X88500000Y-98050000D03*
X87500000Y-98050000D03*
X86500000Y-98050000D03*
X85500000Y-98050000D03*
X84500000Y-98050000D03*
X83500000Y-98050000D03*
X82500000Y-98050000D03*
X81500000Y-98050000D03*
X80500000Y-98050000D03*
X79500000Y-98050000D03*
X78500000Y-98050000D03*
X77500000Y-98050000D03*
X76500000Y-98050000D03*
G04 #@! TD*
G04 #@! TO.C,J16*
X186500000Y-112054157D03*
X187500000Y-112054157D03*
X188500000Y-112054157D03*
X189500000Y-112054157D03*
D11*
X183350000Y-109704157D03*
X212650000Y-109704157D03*
D10*
X190500000Y-112054157D03*
X191500000Y-112054157D03*
X192500000Y-112054157D03*
X193500000Y-112054157D03*
X194500000Y-112054157D03*
X195500000Y-112054157D03*
X196500000Y-112054157D03*
X197500000Y-112054157D03*
X198500000Y-112054157D03*
X199500000Y-112054157D03*
X200500000Y-112054157D03*
X201500000Y-112054157D03*
X202500000Y-112054157D03*
X203500000Y-112054157D03*
X204500000Y-112054157D03*
X205500000Y-112054157D03*
X206500000Y-112054157D03*
X207500000Y-112054157D03*
X208500000Y-112054157D03*
X209500000Y-112054157D03*
G04 #@! TD*
G04 #@! TO.C,J13*
X76500000Y-111950000D03*
X77500000Y-111950000D03*
X78500000Y-111950000D03*
X79500000Y-111950000D03*
D11*
X73350000Y-109600000D03*
X102650000Y-109600000D03*
D10*
X80500000Y-111950000D03*
X81500000Y-111950000D03*
X82500000Y-111950000D03*
X83500000Y-111950000D03*
X84500000Y-111950000D03*
X85500000Y-111950000D03*
X86500000Y-111950000D03*
X87500000Y-111950000D03*
X88500000Y-111950000D03*
X89500000Y-111950000D03*
X90500000Y-111950000D03*
X91500000Y-111950000D03*
X92500000Y-111950000D03*
X93500000Y-111950000D03*
X94500000Y-111950000D03*
X95500000Y-111950000D03*
X96500000Y-111950000D03*
X97500000Y-111950000D03*
X98500000Y-111950000D03*
X99500000Y-111950000D03*
G04 #@! TD*
G04 #@! TO.C,J17*
X209500000Y-98154157D03*
X208500000Y-98154157D03*
X207500000Y-98154157D03*
X206500000Y-98154157D03*
D11*
X212650000Y-100504157D03*
X183350000Y-100504157D03*
D10*
X205500000Y-98154157D03*
X204500000Y-98154157D03*
X203500000Y-98154157D03*
X202500000Y-98154157D03*
X201500000Y-98154157D03*
X200500000Y-98154157D03*
X199500000Y-98154157D03*
X198500000Y-98154157D03*
X197500000Y-98154157D03*
X196500000Y-98154157D03*
X195500000Y-98154157D03*
X194500000Y-98154157D03*
X193500000Y-98154157D03*
X192500000Y-98154157D03*
X191500000Y-98154157D03*
X190500000Y-98154157D03*
X189500000Y-98154157D03*
X188500000Y-98154157D03*
X187500000Y-98154157D03*
X186500000Y-98154157D03*
G04 #@! TD*
D12*
G04 #@! TO.C,R1*
G36*
X59319279Y-81601144D02*
X59342334Y-81604563D01*
X59364943Y-81610227D01*
X59386887Y-81618079D01*
X59407957Y-81628044D01*
X59427948Y-81640026D01*
X59446668Y-81653910D01*
X59463938Y-81669562D01*
X59479590Y-81686832D01*
X59493474Y-81705552D01*
X59505456Y-81725543D01*
X59515421Y-81746613D01*
X59523273Y-81768557D01*
X59528937Y-81791166D01*
X59532356Y-81814221D01*
X59533500Y-81837500D01*
X59533500Y-82412500D01*
X59532356Y-82435779D01*
X59528937Y-82458834D01*
X59523273Y-82481443D01*
X59515421Y-82503387D01*
X59505456Y-82524457D01*
X59493474Y-82544448D01*
X59479590Y-82563168D01*
X59463938Y-82580438D01*
X59446668Y-82596090D01*
X59427948Y-82609974D01*
X59407957Y-82621956D01*
X59386887Y-82631921D01*
X59364943Y-82639773D01*
X59342334Y-82645437D01*
X59319279Y-82648856D01*
X59296000Y-82650000D01*
X58821000Y-82650000D01*
X58797721Y-82648856D01*
X58774666Y-82645437D01*
X58752057Y-82639773D01*
X58730113Y-82631921D01*
X58709043Y-82621956D01*
X58689052Y-82609974D01*
X58670332Y-82596090D01*
X58653062Y-82580438D01*
X58637410Y-82563168D01*
X58623526Y-82544448D01*
X58611544Y-82524457D01*
X58601579Y-82503387D01*
X58593727Y-82481443D01*
X58588063Y-82458834D01*
X58584644Y-82435779D01*
X58583500Y-82412500D01*
X58583500Y-81837500D01*
X58584644Y-81814221D01*
X58588063Y-81791166D01*
X58593727Y-81768557D01*
X58601579Y-81746613D01*
X58611544Y-81725543D01*
X58623526Y-81705552D01*
X58637410Y-81686832D01*
X58653062Y-81669562D01*
X58670332Y-81653910D01*
X58689052Y-81640026D01*
X58709043Y-81628044D01*
X58730113Y-81618079D01*
X58752057Y-81610227D01*
X58774666Y-81604563D01*
X58797721Y-81601144D01*
X58821000Y-81600000D01*
X59296000Y-81600000D01*
X59319279Y-81601144D01*
X59319279Y-81601144D01*
G37*
D13*
X59058500Y-82125000D03*
D12*
G36*
X59319279Y-83351144D02*
X59342334Y-83354563D01*
X59364943Y-83360227D01*
X59386887Y-83368079D01*
X59407957Y-83378044D01*
X59427948Y-83390026D01*
X59446668Y-83403910D01*
X59463938Y-83419562D01*
X59479590Y-83436832D01*
X59493474Y-83455552D01*
X59505456Y-83475543D01*
X59515421Y-83496613D01*
X59523273Y-83518557D01*
X59528937Y-83541166D01*
X59532356Y-83564221D01*
X59533500Y-83587500D01*
X59533500Y-84162500D01*
X59532356Y-84185779D01*
X59528937Y-84208834D01*
X59523273Y-84231443D01*
X59515421Y-84253387D01*
X59505456Y-84274457D01*
X59493474Y-84294448D01*
X59479590Y-84313168D01*
X59463938Y-84330438D01*
X59446668Y-84346090D01*
X59427948Y-84359974D01*
X59407957Y-84371956D01*
X59386887Y-84381921D01*
X59364943Y-84389773D01*
X59342334Y-84395437D01*
X59319279Y-84398856D01*
X59296000Y-84400000D01*
X58821000Y-84400000D01*
X58797721Y-84398856D01*
X58774666Y-84395437D01*
X58752057Y-84389773D01*
X58730113Y-84381921D01*
X58709043Y-84371956D01*
X58689052Y-84359974D01*
X58670332Y-84346090D01*
X58653062Y-84330438D01*
X58637410Y-84313168D01*
X58623526Y-84294448D01*
X58611544Y-84274457D01*
X58601579Y-84253387D01*
X58593727Y-84231443D01*
X58588063Y-84208834D01*
X58584644Y-84185779D01*
X58583500Y-84162500D01*
X58583500Y-83587500D01*
X58584644Y-83564221D01*
X58588063Y-83541166D01*
X58593727Y-83518557D01*
X58601579Y-83496613D01*
X58611544Y-83475543D01*
X58623526Y-83455552D01*
X58637410Y-83436832D01*
X58653062Y-83419562D01*
X58670332Y-83403910D01*
X58689052Y-83390026D01*
X58709043Y-83378044D01*
X58730113Y-83368079D01*
X58752057Y-83360227D01*
X58774666Y-83354563D01*
X58797721Y-83351144D01*
X58821000Y-83350000D01*
X59296000Y-83350000D01*
X59319279Y-83351144D01*
X59319279Y-83351144D01*
G37*
D13*
X59058500Y-83875000D03*
G04 #@! TD*
D12*
G04 #@! TO.C,R2*
G36*
X74719279Y-81601144D02*
X74742334Y-81604563D01*
X74764943Y-81610227D01*
X74786887Y-81618079D01*
X74807957Y-81628044D01*
X74827948Y-81640026D01*
X74846668Y-81653910D01*
X74863938Y-81669562D01*
X74879590Y-81686832D01*
X74893474Y-81705552D01*
X74905456Y-81725543D01*
X74915421Y-81746613D01*
X74923273Y-81768557D01*
X74928937Y-81791166D01*
X74932356Y-81814221D01*
X74933500Y-81837500D01*
X74933500Y-82412500D01*
X74932356Y-82435779D01*
X74928937Y-82458834D01*
X74923273Y-82481443D01*
X74915421Y-82503387D01*
X74905456Y-82524457D01*
X74893474Y-82544448D01*
X74879590Y-82563168D01*
X74863938Y-82580438D01*
X74846668Y-82596090D01*
X74827948Y-82609974D01*
X74807957Y-82621956D01*
X74786887Y-82631921D01*
X74764943Y-82639773D01*
X74742334Y-82645437D01*
X74719279Y-82648856D01*
X74696000Y-82650000D01*
X74221000Y-82650000D01*
X74197721Y-82648856D01*
X74174666Y-82645437D01*
X74152057Y-82639773D01*
X74130113Y-82631921D01*
X74109043Y-82621956D01*
X74089052Y-82609974D01*
X74070332Y-82596090D01*
X74053062Y-82580438D01*
X74037410Y-82563168D01*
X74023526Y-82544448D01*
X74011544Y-82524457D01*
X74001579Y-82503387D01*
X73993727Y-82481443D01*
X73988063Y-82458834D01*
X73984644Y-82435779D01*
X73983500Y-82412500D01*
X73983500Y-81837500D01*
X73984644Y-81814221D01*
X73988063Y-81791166D01*
X73993727Y-81768557D01*
X74001579Y-81746613D01*
X74011544Y-81725543D01*
X74023526Y-81705552D01*
X74037410Y-81686832D01*
X74053062Y-81669562D01*
X74070332Y-81653910D01*
X74089052Y-81640026D01*
X74109043Y-81628044D01*
X74130113Y-81618079D01*
X74152057Y-81610227D01*
X74174666Y-81604563D01*
X74197721Y-81601144D01*
X74221000Y-81600000D01*
X74696000Y-81600000D01*
X74719279Y-81601144D01*
X74719279Y-81601144D01*
G37*
D13*
X74458500Y-82125000D03*
D12*
G36*
X74719279Y-83351144D02*
X74742334Y-83354563D01*
X74764943Y-83360227D01*
X74786887Y-83368079D01*
X74807957Y-83378044D01*
X74827948Y-83390026D01*
X74846668Y-83403910D01*
X74863938Y-83419562D01*
X74879590Y-83436832D01*
X74893474Y-83455552D01*
X74905456Y-83475543D01*
X74915421Y-83496613D01*
X74923273Y-83518557D01*
X74928937Y-83541166D01*
X74932356Y-83564221D01*
X74933500Y-83587500D01*
X74933500Y-84162500D01*
X74932356Y-84185779D01*
X74928937Y-84208834D01*
X74923273Y-84231443D01*
X74915421Y-84253387D01*
X74905456Y-84274457D01*
X74893474Y-84294448D01*
X74879590Y-84313168D01*
X74863938Y-84330438D01*
X74846668Y-84346090D01*
X74827948Y-84359974D01*
X74807957Y-84371956D01*
X74786887Y-84381921D01*
X74764943Y-84389773D01*
X74742334Y-84395437D01*
X74719279Y-84398856D01*
X74696000Y-84400000D01*
X74221000Y-84400000D01*
X74197721Y-84398856D01*
X74174666Y-84395437D01*
X74152057Y-84389773D01*
X74130113Y-84381921D01*
X74109043Y-84371956D01*
X74089052Y-84359974D01*
X74070332Y-84346090D01*
X74053062Y-84330438D01*
X74037410Y-84313168D01*
X74023526Y-84294448D01*
X74011544Y-84274457D01*
X74001579Y-84253387D01*
X73993727Y-84231443D01*
X73988063Y-84208834D01*
X73984644Y-84185779D01*
X73983500Y-84162500D01*
X73983500Y-83587500D01*
X73984644Y-83564221D01*
X73988063Y-83541166D01*
X73993727Y-83518557D01*
X74001579Y-83496613D01*
X74011544Y-83475543D01*
X74023526Y-83455552D01*
X74037410Y-83436832D01*
X74053062Y-83419562D01*
X74070332Y-83403910D01*
X74089052Y-83390026D01*
X74109043Y-83378044D01*
X74130113Y-83368079D01*
X74152057Y-83360227D01*
X74174666Y-83354563D01*
X74197721Y-83351144D01*
X74221000Y-83350000D01*
X74696000Y-83350000D01*
X74719279Y-83351144D01*
X74719279Y-83351144D01*
G37*
D13*
X74458500Y-83875000D03*
G04 #@! TD*
D12*
G04 #@! TO.C,R3*
G36*
X90119279Y-81601144D02*
X90142334Y-81604563D01*
X90164943Y-81610227D01*
X90186887Y-81618079D01*
X90207957Y-81628044D01*
X90227948Y-81640026D01*
X90246668Y-81653910D01*
X90263938Y-81669562D01*
X90279590Y-81686832D01*
X90293474Y-81705552D01*
X90305456Y-81725543D01*
X90315421Y-81746613D01*
X90323273Y-81768557D01*
X90328937Y-81791166D01*
X90332356Y-81814221D01*
X90333500Y-81837500D01*
X90333500Y-82412500D01*
X90332356Y-82435779D01*
X90328937Y-82458834D01*
X90323273Y-82481443D01*
X90315421Y-82503387D01*
X90305456Y-82524457D01*
X90293474Y-82544448D01*
X90279590Y-82563168D01*
X90263938Y-82580438D01*
X90246668Y-82596090D01*
X90227948Y-82609974D01*
X90207957Y-82621956D01*
X90186887Y-82631921D01*
X90164943Y-82639773D01*
X90142334Y-82645437D01*
X90119279Y-82648856D01*
X90096000Y-82650000D01*
X89621000Y-82650000D01*
X89597721Y-82648856D01*
X89574666Y-82645437D01*
X89552057Y-82639773D01*
X89530113Y-82631921D01*
X89509043Y-82621956D01*
X89489052Y-82609974D01*
X89470332Y-82596090D01*
X89453062Y-82580438D01*
X89437410Y-82563168D01*
X89423526Y-82544448D01*
X89411544Y-82524457D01*
X89401579Y-82503387D01*
X89393727Y-82481443D01*
X89388063Y-82458834D01*
X89384644Y-82435779D01*
X89383500Y-82412500D01*
X89383500Y-81837500D01*
X89384644Y-81814221D01*
X89388063Y-81791166D01*
X89393727Y-81768557D01*
X89401579Y-81746613D01*
X89411544Y-81725543D01*
X89423526Y-81705552D01*
X89437410Y-81686832D01*
X89453062Y-81669562D01*
X89470332Y-81653910D01*
X89489052Y-81640026D01*
X89509043Y-81628044D01*
X89530113Y-81618079D01*
X89552057Y-81610227D01*
X89574666Y-81604563D01*
X89597721Y-81601144D01*
X89621000Y-81600000D01*
X90096000Y-81600000D01*
X90119279Y-81601144D01*
X90119279Y-81601144D01*
G37*
D13*
X89858500Y-82125000D03*
D12*
G36*
X90119279Y-83351144D02*
X90142334Y-83354563D01*
X90164943Y-83360227D01*
X90186887Y-83368079D01*
X90207957Y-83378044D01*
X90227948Y-83390026D01*
X90246668Y-83403910D01*
X90263938Y-83419562D01*
X90279590Y-83436832D01*
X90293474Y-83455552D01*
X90305456Y-83475543D01*
X90315421Y-83496613D01*
X90323273Y-83518557D01*
X90328937Y-83541166D01*
X90332356Y-83564221D01*
X90333500Y-83587500D01*
X90333500Y-84162500D01*
X90332356Y-84185779D01*
X90328937Y-84208834D01*
X90323273Y-84231443D01*
X90315421Y-84253387D01*
X90305456Y-84274457D01*
X90293474Y-84294448D01*
X90279590Y-84313168D01*
X90263938Y-84330438D01*
X90246668Y-84346090D01*
X90227948Y-84359974D01*
X90207957Y-84371956D01*
X90186887Y-84381921D01*
X90164943Y-84389773D01*
X90142334Y-84395437D01*
X90119279Y-84398856D01*
X90096000Y-84400000D01*
X89621000Y-84400000D01*
X89597721Y-84398856D01*
X89574666Y-84395437D01*
X89552057Y-84389773D01*
X89530113Y-84381921D01*
X89509043Y-84371956D01*
X89489052Y-84359974D01*
X89470332Y-84346090D01*
X89453062Y-84330438D01*
X89437410Y-84313168D01*
X89423526Y-84294448D01*
X89411544Y-84274457D01*
X89401579Y-84253387D01*
X89393727Y-84231443D01*
X89388063Y-84208834D01*
X89384644Y-84185779D01*
X89383500Y-84162500D01*
X89383500Y-83587500D01*
X89384644Y-83564221D01*
X89388063Y-83541166D01*
X89393727Y-83518557D01*
X89401579Y-83496613D01*
X89411544Y-83475543D01*
X89423526Y-83455552D01*
X89437410Y-83436832D01*
X89453062Y-83419562D01*
X89470332Y-83403910D01*
X89489052Y-83390026D01*
X89509043Y-83378044D01*
X89530113Y-83368079D01*
X89552057Y-83360227D01*
X89574666Y-83354563D01*
X89597721Y-83351144D01*
X89621000Y-83350000D01*
X90096000Y-83350000D01*
X90119279Y-83351144D01*
X90119279Y-83351144D01*
G37*
D13*
X89858500Y-83875000D03*
G04 #@! TD*
D12*
G04 #@! TO.C,R4*
G36*
X105519279Y-81601144D02*
X105542334Y-81604563D01*
X105564943Y-81610227D01*
X105586887Y-81618079D01*
X105607957Y-81628044D01*
X105627948Y-81640026D01*
X105646668Y-81653910D01*
X105663938Y-81669562D01*
X105679590Y-81686832D01*
X105693474Y-81705552D01*
X105705456Y-81725543D01*
X105715421Y-81746613D01*
X105723273Y-81768557D01*
X105728937Y-81791166D01*
X105732356Y-81814221D01*
X105733500Y-81837500D01*
X105733500Y-82412500D01*
X105732356Y-82435779D01*
X105728937Y-82458834D01*
X105723273Y-82481443D01*
X105715421Y-82503387D01*
X105705456Y-82524457D01*
X105693474Y-82544448D01*
X105679590Y-82563168D01*
X105663938Y-82580438D01*
X105646668Y-82596090D01*
X105627948Y-82609974D01*
X105607957Y-82621956D01*
X105586887Y-82631921D01*
X105564943Y-82639773D01*
X105542334Y-82645437D01*
X105519279Y-82648856D01*
X105496000Y-82650000D01*
X105021000Y-82650000D01*
X104997721Y-82648856D01*
X104974666Y-82645437D01*
X104952057Y-82639773D01*
X104930113Y-82631921D01*
X104909043Y-82621956D01*
X104889052Y-82609974D01*
X104870332Y-82596090D01*
X104853062Y-82580438D01*
X104837410Y-82563168D01*
X104823526Y-82544448D01*
X104811544Y-82524457D01*
X104801579Y-82503387D01*
X104793727Y-82481443D01*
X104788063Y-82458834D01*
X104784644Y-82435779D01*
X104783500Y-82412500D01*
X104783500Y-81837500D01*
X104784644Y-81814221D01*
X104788063Y-81791166D01*
X104793727Y-81768557D01*
X104801579Y-81746613D01*
X104811544Y-81725543D01*
X104823526Y-81705552D01*
X104837410Y-81686832D01*
X104853062Y-81669562D01*
X104870332Y-81653910D01*
X104889052Y-81640026D01*
X104909043Y-81628044D01*
X104930113Y-81618079D01*
X104952057Y-81610227D01*
X104974666Y-81604563D01*
X104997721Y-81601144D01*
X105021000Y-81600000D01*
X105496000Y-81600000D01*
X105519279Y-81601144D01*
X105519279Y-81601144D01*
G37*
D13*
X105258500Y-82125000D03*
D12*
G36*
X105519279Y-83351144D02*
X105542334Y-83354563D01*
X105564943Y-83360227D01*
X105586887Y-83368079D01*
X105607957Y-83378044D01*
X105627948Y-83390026D01*
X105646668Y-83403910D01*
X105663938Y-83419562D01*
X105679590Y-83436832D01*
X105693474Y-83455552D01*
X105705456Y-83475543D01*
X105715421Y-83496613D01*
X105723273Y-83518557D01*
X105728937Y-83541166D01*
X105732356Y-83564221D01*
X105733500Y-83587500D01*
X105733500Y-84162500D01*
X105732356Y-84185779D01*
X105728937Y-84208834D01*
X105723273Y-84231443D01*
X105715421Y-84253387D01*
X105705456Y-84274457D01*
X105693474Y-84294448D01*
X105679590Y-84313168D01*
X105663938Y-84330438D01*
X105646668Y-84346090D01*
X105627948Y-84359974D01*
X105607957Y-84371956D01*
X105586887Y-84381921D01*
X105564943Y-84389773D01*
X105542334Y-84395437D01*
X105519279Y-84398856D01*
X105496000Y-84400000D01*
X105021000Y-84400000D01*
X104997721Y-84398856D01*
X104974666Y-84395437D01*
X104952057Y-84389773D01*
X104930113Y-84381921D01*
X104909043Y-84371956D01*
X104889052Y-84359974D01*
X104870332Y-84346090D01*
X104853062Y-84330438D01*
X104837410Y-84313168D01*
X104823526Y-84294448D01*
X104811544Y-84274457D01*
X104801579Y-84253387D01*
X104793727Y-84231443D01*
X104788063Y-84208834D01*
X104784644Y-84185779D01*
X104783500Y-84162500D01*
X104783500Y-83587500D01*
X104784644Y-83564221D01*
X104788063Y-83541166D01*
X104793727Y-83518557D01*
X104801579Y-83496613D01*
X104811544Y-83475543D01*
X104823526Y-83455552D01*
X104837410Y-83436832D01*
X104853062Y-83419562D01*
X104870332Y-83403910D01*
X104889052Y-83390026D01*
X104909043Y-83378044D01*
X104930113Y-83368079D01*
X104952057Y-83360227D01*
X104974666Y-83354563D01*
X104997721Y-83351144D01*
X105021000Y-83350000D01*
X105496000Y-83350000D01*
X105519279Y-83351144D01*
X105519279Y-83351144D01*
G37*
D13*
X105258500Y-83875000D03*
G04 #@! TD*
D12*
G04 #@! TO.C,R5*
G36*
X120919279Y-81601144D02*
X120942334Y-81604563D01*
X120964943Y-81610227D01*
X120986887Y-81618079D01*
X121007957Y-81628044D01*
X121027948Y-81640026D01*
X121046668Y-81653910D01*
X121063938Y-81669562D01*
X121079590Y-81686832D01*
X121093474Y-81705552D01*
X121105456Y-81725543D01*
X121115421Y-81746613D01*
X121123273Y-81768557D01*
X121128937Y-81791166D01*
X121132356Y-81814221D01*
X121133500Y-81837500D01*
X121133500Y-82412500D01*
X121132356Y-82435779D01*
X121128937Y-82458834D01*
X121123273Y-82481443D01*
X121115421Y-82503387D01*
X121105456Y-82524457D01*
X121093474Y-82544448D01*
X121079590Y-82563168D01*
X121063938Y-82580438D01*
X121046668Y-82596090D01*
X121027948Y-82609974D01*
X121007957Y-82621956D01*
X120986887Y-82631921D01*
X120964943Y-82639773D01*
X120942334Y-82645437D01*
X120919279Y-82648856D01*
X120896000Y-82650000D01*
X120421000Y-82650000D01*
X120397721Y-82648856D01*
X120374666Y-82645437D01*
X120352057Y-82639773D01*
X120330113Y-82631921D01*
X120309043Y-82621956D01*
X120289052Y-82609974D01*
X120270332Y-82596090D01*
X120253062Y-82580438D01*
X120237410Y-82563168D01*
X120223526Y-82544448D01*
X120211544Y-82524457D01*
X120201579Y-82503387D01*
X120193727Y-82481443D01*
X120188063Y-82458834D01*
X120184644Y-82435779D01*
X120183500Y-82412500D01*
X120183500Y-81837500D01*
X120184644Y-81814221D01*
X120188063Y-81791166D01*
X120193727Y-81768557D01*
X120201579Y-81746613D01*
X120211544Y-81725543D01*
X120223526Y-81705552D01*
X120237410Y-81686832D01*
X120253062Y-81669562D01*
X120270332Y-81653910D01*
X120289052Y-81640026D01*
X120309043Y-81628044D01*
X120330113Y-81618079D01*
X120352057Y-81610227D01*
X120374666Y-81604563D01*
X120397721Y-81601144D01*
X120421000Y-81600000D01*
X120896000Y-81600000D01*
X120919279Y-81601144D01*
X120919279Y-81601144D01*
G37*
D13*
X120658500Y-82125000D03*
D12*
G36*
X120919279Y-83351144D02*
X120942334Y-83354563D01*
X120964943Y-83360227D01*
X120986887Y-83368079D01*
X121007957Y-83378044D01*
X121027948Y-83390026D01*
X121046668Y-83403910D01*
X121063938Y-83419562D01*
X121079590Y-83436832D01*
X121093474Y-83455552D01*
X121105456Y-83475543D01*
X121115421Y-83496613D01*
X121123273Y-83518557D01*
X121128937Y-83541166D01*
X121132356Y-83564221D01*
X121133500Y-83587500D01*
X121133500Y-84162500D01*
X121132356Y-84185779D01*
X121128937Y-84208834D01*
X121123273Y-84231443D01*
X121115421Y-84253387D01*
X121105456Y-84274457D01*
X121093474Y-84294448D01*
X121079590Y-84313168D01*
X121063938Y-84330438D01*
X121046668Y-84346090D01*
X121027948Y-84359974D01*
X121007957Y-84371956D01*
X120986887Y-84381921D01*
X120964943Y-84389773D01*
X120942334Y-84395437D01*
X120919279Y-84398856D01*
X120896000Y-84400000D01*
X120421000Y-84400000D01*
X120397721Y-84398856D01*
X120374666Y-84395437D01*
X120352057Y-84389773D01*
X120330113Y-84381921D01*
X120309043Y-84371956D01*
X120289052Y-84359974D01*
X120270332Y-84346090D01*
X120253062Y-84330438D01*
X120237410Y-84313168D01*
X120223526Y-84294448D01*
X120211544Y-84274457D01*
X120201579Y-84253387D01*
X120193727Y-84231443D01*
X120188063Y-84208834D01*
X120184644Y-84185779D01*
X120183500Y-84162500D01*
X120183500Y-83587500D01*
X120184644Y-83564221D01*
X120188063Y-83541166D01*
X120193727Y-83518557D01*
X120201579Y-83496613D01*
X120211544Y-83475543D01*
X120223526Y-83455552D01*
X120237410Y-83436832D01*
X120253062Y-83419562D01*
X120270332Y-83403910D01*
X120289052Y-83390026D01*
X120309043Y-83378044D01*
X120330113Y-83368079D01*
X120352057Y-83360227D01*
X120374666Y-83354563D01*
X120397721Y-83351144D01*
X120421000Y-83350000D01*
X120896000Y-83350000D01*
X120919279Y-83351144D01*
X120919279Y-83351144D01*
G37*
D13*
X120658500Y-83875000D03*
G04 #@! TD*
D12*
G04 #@! TO.C,R6*
G36*
X136319279Y-81601144D02*
X136342334Y-81604563D01*
X136364943Y-81610227D01*
X136386887Y-81618079D01*
X136407957Y-81628044D01*
X136427948Y-81640026D01*
X136446668Y-81653910D01*
X136463938Y-81669562D01*
X136479590Y-81686832D01*
X136493474Y-81705552D01*
X136505456Y-81725543D01*
X136515421Y-81746613D01*
X136523273Y-81768557D01*
X136528937Y-81791166D01*
X136532356Y-81814221D01*
X136533500Y-81837500D01*
X136533500Y-82412500D01*
X136532356Y-82435779D01*
X136528937Y-82458834D01*
X136523273Y-82481443D01*
X136515421Y-82503387D01*
X136505456Y-82524457D01*
X136493474Y-82544448D01*
X136479590Y-82563168D01*
X136463938Y-82580438D01*
X136446668Y-82596090D01*
X136427948Y-82609974D01*
X136407957Y-82621956D01*
X136386887Y-82631921D01*
X136364943Y-82639773D01*
X136342334Y-82645437D01*
X136319279Y-82648856D01*
X136296000Y-82650000D01*
X135821000Y-82650000D01*
X135797721Y-82648856D01*
X135774666Y-82645437D01*
X135752057Y-82639773D01*
X135730113Y-82631921D01*
X135709043Y-82621956D01*
X135689052Y-82609974D01*
X135670332Y-82596090D01*
X135653062Y-82580438D01*
X135637410Y-82563168D01*
X135623526Y-82544448D01*
X135611544Y-82524457D01*
X135601579Y-82503387D01*
X135593727Y-82481443D01*
X135588063Y-82458834D01*
X135584644Y-82435779D01*
X135583500Y-82412500D01*
X135583500Y-81837500D01*
X135584644Y-81814221D01*
X135588063Y-81791166D01*
X135593727Y-81768557D01*
X135601579Y-81746613D01*
X135611544Y-81725543D01*
X135623526Y-81705552D01*
X135637410Y-81686832D01*
X135653062Y-81669562D01*
X135670332Y-81653910D01*
X135689052Y-81640026D01*
X135709043Y-81628044D01*
X135730113Y-81618079D01*
X135752057Y-81610227D01*
X135774666Y-81604563D01*
X135797721Y-81601144D01*
X135821000Y-81600000D01*
X136296000Y-81600000D01*
X136319279Y-81601144D01*
X136319279Y-81601144D01*
G37*
D13*
X136058500Y-82125000D03*
D12*
G36*
X136319279Y-83351144D02*
X136342334Y-83354563D01*
X136364943Y-83360227D01*
X136386887Y-83368079D01*
X136407957Y-83378044D01*
X136427948Y-83390026D01*
X136446668Y-83403910D01*
X136463938Y-83419562D01*
X136479590Y-83436832D01*
X136493474Y-83455552D01*
X136505456Y-83475543D01*
X136515421Y-83496613D01*
X136523273Y-83518557D01*
X136528937Y-83541166D01*
X136532356Y-83564221D01*
X136533500Y-83587500D01*
X136533500Y-84162500D01*
X136532356Y-84185779D01*
X136528937Y-84208834D01*
X136523273Y-84231443D01*
X136515421Y-84253387D01*
X136505456Y-84274457D01*
X136493474Y-84294448D01*
X136479590Y-84313168D01*
X136463938Y-84330438D01*
X136446668Y-84346090D01*
X136427948Y-84359974D01*
X136407957Y-84371956D01*
X136386887Y-84381921D01*
X136364943Y-84389773D01*
X136342334Y-84395437D01*
X136319279Y-84398856D01*
X136296000Y-84400000D01*
X135821000Y-84400000D01*
X135797721Y-84398856D01*
X135774666Y-84395437D01*
X135752057Y-84389773D01*
X135730113Y-84381921D01*
X135709043Y-84371956D01*
X135689052Y-84359974D01*
X135670332Y-84346090D01*
X135653062Y-84330438D01*
X135637410Y-84313168D01*
X135623526Y-84294448D01*
X135611544Y-84274457D01*
X135601579Y-84253387D01*
X135593727Y-84231443D01*
X135588063Y-84208834D01*
X135584644Y-84185779D01*
X135583500Y-84162500D01*
X135583500Y-83587500D01*
X135584644Y-83564221D01*
X135588063Y-83541166D01*
X135593727Y-83518557D01*
X135601579Y-83496613D01*
X135611544Y-83475543D01*
X135623526Y-83455552D01*
X135637410Y-83436832D01*
X135653062Y-83419562D01*
X135670332Y-83403910D01*
X135689052Y-83390026D01*
X135709043Y-83378044D01*
X135730113Y-83368079D01*
X135752057Y-83360227D01*
X135774666Y-83354563D01*
X135797721Y-83351144D01*
X135821000Y-83350000D01*
X136296000Y-83350000D01*
X136319279Y-83351144D01*
X136319279Y-83351144D01*
G37*
D13*
X136058500Y-83875000D03*
G04 #@! TD*
D12*
G04 #@! TO.C,R7*
G36*
X52319279Y-81601144D02*
X52342334Y-81604563D01*
X52364943Y-81610227D01*
X52386887Y-81618079D01*
X52407957Y-81628044D01*
X52427948Y-81640026D01*
X52446668Y-81653910D01*
X52463938Y-81669562D01*
X52479590Y-81686832D01*
X52493474Y-81705552D01*
X52505456Y-81725543D01*
X52515421Y-81746613D01*
X52523273Y-81768557D01*
X52528937Y-81791166D01*
X52532356Y-81814221D01*
X52533500Y-81837500D01*
X52533500Y-82412500D01*
X52532356Y-82435779D01*
X52528937Y-82458834D01*
X52523273Y-82481443D01*
X52515421Y-82503387D01*
X52505456Y-82524457D01*
X52493474Y-82544448D01*
X52479590Y-82563168D01*
X52463938Y-82580438D01*
X52446668Y-82596090D01*
X52427948Y-82609974D01*
X52407957Y-82621956D01*
X52386887Y-82631921D01*
X52364943Y-82639773D01*
X52342334Y-82645437D01*
X52319279Y-82648856D01*
X52296000Y-82650000D01*
X51821000Y-82650000D01*
X51797721Y-82648856D01*
X51774666Y-82645437D01*
X51752057Y-82639773D01*
X51730113Y-82631921D01*
X51709043Y-82621956D01*
X51689052Y-82609974D01*
X51670332Y-82596090D01*
X51653062Y-82580438D01*
X51637410Y-82563168D01*
X51623526Y-82544448D01*
X51611544Y-82524457D01*
X51601579Y-82503387D01*
X51593727Y-82481443D01*
X51588063Y-82458834D01*
X51584644Y-82435779D01*
X51583500Y-82412500D01*
X51583500Y-81837500D01*
X51584644Y-81814221D01*
X51588063Y-81791166D01*
X51593727Y-81768557D01*
X51601579Y-81746613D01*
X51611544Y-81725543D01*
X51623526Y-81705552D01*
X51637410Y-81686832D01*
X51653062Y-81669562D01*
X51670332Y-81653910D01*
X51689052Y-81640026D01*
X51709043Y-81628044D01*
X51730113Y-81618079D01*
X51752057Y-81610227D01*
X51774666Y-81604563D01*
X51797721Y-81601144D01*
X51821000Y-81600000D01*
X52296000Y-81600000D01*
X52319279Y-81601144D01*
X52319279Y-81601144D01*
G37*
D13*
X52058500Y-82125000D03*
D12*
G36*
X52319279Y-83351144D02*
X52342334Y-83354563D01*
X52364943Y-83360227D01*
X52386887Y-83368079D01*
X52407957Y-83378044D01*
X52427948Y-83390026D01*
X52446668Y-83403910D01*
X52463938Y-83419562D01*
X52479590Y-83436832D01*
X52493474Y-83455552D01*
X52505456Y-83475543D01*
X52515421Y-83496613D01*
X52523273Y-83518557D01*
X52528937Y-83541166D01*
X52532356Y-83564221D01*
X52533500Y-83587500D01*
X52533500Y-84162500D01*
X52532356Y-84185779D01*
X52528937Y-84208834D01*
X52523273Y-84231443D01*
X52515421Y-84253387D01*
X52505456Y-84274457D01*
X52493474Y-84294448D01*
X52479590Y-84313168D01*
X52463938Y-84330438D01*
X52446668Y-84346090D01*
X52427948Y-84359974D01*
X52407957Y-84371956D01*
X52386887Y-84381921D01*
X52364943Y-84389773D01*
X52342334Y-84395437D01*
X52319279Y-84398856D01*
X52296000Y-84400000D01*
X51821000Y-84400000D01*
X51797721Y-84398856D01*
X51774666Y-84395437D01*
X51752057Y-84389773D01*
X51730113Y-84381921D01*
X51709043Y-84371956D01*
X51689052Y-84359974D01*
X51670332Y-84346090D01*
X51653062Y-84330438D01*
X51637410Y-84313168D01*
X51623526Y-84294448D01*
X51611544Y-84274457D01*
X51601579Y-84253387D01*
X51593727Y-84231443D01*
X51588063Y-84208834D01*
X51584644Y-84185779D01*
X51583500Y-84162500D01*
X51583500Y-83587500D01*
X51584644Y-83564221D01*
X51588063Y-83541166D01*
X51593727Y-83518557D01*
X51601579Y-83496613D01*
X51611544Y-83475543D01*
X51623526Y-83455552D01*
X51637410Y-83436832D01*
X51653062Y-83419562D01*
X51670332Y-83403910D01*
X51689052Y-83390026D01*
X51709043Y-83378044D01*
X51730113Y-83368079D01*
X51752057Y-83360227D01*
X51774666Y-83354563D01*
X51797721Y-83351144D01*
X51821000Y-83350000D01*
X52296000Y-83350000D01*
X52319279Y-83351144D01*
X52319279Y-83351144D01*
G37*
D13*
X52058500Y-83875000D03*
G04 #@! TD*
D12*
G04 #@! TO.C,R8*
G36*
X67719279Y-81601144D02*
X67742334Y-81604563D01*
X67764943Y-81610227D01*
X67786887Y-81618079D01*
X67807957Y-81628044D01*
X67827948Y-81640026D01*
X67846668Y-81653910D01*
X67863938Y-81669562D01*
X67879590Y-81686832D01*
X67893474Y-81705552D01*
X67905456Y-81725543D01*
X67915421Y-81746613D01*
X67923273Y-81768557D01*
X67928937Y-81791166D01*
X67932356Y-81814221D01*
X67933500Y-81837500D01*
X67933500Y-82412500D01*
X67932356Y-82435779D01*
X67928937Y-82458834D01*
X67923273Y-82481443D01*
X67915421Y-82503387D01*
X67905456Y-82524457D01*
X67893474Y-82544448D01*
X67879590Y-82563168D01*
X67863938Y-82580438D01*
X67846668Y-82596090D01*
X67827948Y-82609974D01*
X67807957Y-82621956D01*
X67786887Y-82631921D01*
X67764943Y-82639773D01*
X67742334Y-82645437D01*
X67719279Y-82648856D01*
X67696000Y-82650000D01*
X67221000Y-82650000D01*
X67197721Y-82648856D01*
X67174666Y-82645437D01*
X67152057Y-82639773D01*
X67130113Y-82631921D01*
X67109043Y-82621956D01*
X67089052Y-82609974D01*
X67070332Y-82596090D01*
X67053062Y-82580438D01*
X67037410Y-82563168D01*
X67023526Y-82544448D01*
X67011544Y-82524457D01*
X67001579Y-82503387D01*
X66993727Y-82481443D01*
X66988063Y-82458834D01*
X66984644Y-82435779D01*
X66983500Y-82412500D01*
X66983500Y-81837500D01*
X66984644Y-81814221D01*
X66988063Y-81791166D01*
X66993727Y-81768557D01*
X67001579Y-81746613D01*
X67011544Y-81725543D01*
X67023526Y-81705552D01*
X67037410Y-81686832D01*
X67053062Y-81669562D01*
X67070332Y-81653910D01*
X67089052Y-81640026D01*
X67109043Y-81628044D01*
X67130113Y-81618079D01*
X67152057Y-81610227D01*
X67174666Y-81604563D01*
X67197721Y-81601144D01*
X67221000Y-81600000D01*
X67696000Y-81600000D01*
X67719279Y-81601144D01*
X67719279Y-81601144D01*
G37*
D13*
X67458500Y-82125000D03*
D12*
G36*
X67719279Y-83351144D02*
X67742334Y-83354563D01*
X67764943Y-83360227D01*
X67786887Y-83368079D01*
X67807957Y-83378044D01*
X67827948Y-83390026D01*
X67846668Y-83403910D01*
X67863938Y-83419562D01*
X67879590Y-83436832D01*
X67893474Y-83455552D01*
X67905456Y-83475543D01*
X67915421Y-83496613D01*
X67923273Y-83518557D01*
X67928937Y-83541166D01*
X67932356Y-83564221D01*
X67933500Y-83587500D01*
X67933500Y-84162500D01*
X67932356Y-84185779D01*
X67928937Y-84208834D01*
X67923273Y-84231443D01*
X67915421Y-84253387D01*
X67905456Y-84274457D01*
X67893474Y-84294448D01*
X67879590Y-84313168D01*
X67863938Y-84330438D01*
X67846668Y-84346090D01*
X67827948Y-84359974D01*
X67807957Y-84371956D01*
X67786887Y-84381921D01*
X67764943Y-84389773D01*
X67742334Y-84395437D01*
X67719279Y-84398856D01*
X67696000Y-84400000D01*
X67221000Y-84400000D01*
X67197721Y-84398856D01*
X67174666Y-84395437D01*
X67152057Y-84389773D01*
X67130113Y-84381921D01*
X67109043Y-84371956D01*
X67089052Y-84359974D01*
X67070332Y-84346090D01*
X67053062Y-84330438D01*
X67037410Y-84313168D01*
X67023526Y-84294448D01*
X67011544Y-84274457D01*
X67001579Y-84253387D01*
X66993727Y-84231443D01*
X66988063Y-84208834D01*
X66984644Y-84185779D01*
X66983500Y-84162500D01*
X66983500Y-83587500D01*
X66984644Y-83564221D01*
X66988063Y-83541166D01*
X66993727Y-83518557D01*
X67001579Y-83496613D01*
X67011544Y-83475543D01*
X67023526Y-83455552D01*
X67037410Y-83436832D01*
X67053062Y-83419562D01*
X67070332Y-83403910D01*
X67089052Y-83390026D01*
X67109043Y-83378044D01*
X67130113Y-83368079D01*
X67152057Y-83360227D01*
X67174666Y-83354563D01*
X67197721Y-83351144D01*
X67221000Y-83350000D01*
X67696000Y-83350000D01*
X67719279Y-83351144D01*
X67719279Y-83351144D01*
G37*
D13*
X67458500Y-83875000D03*
G04 #@! TD*
D12*
G04 #@! TO.C,R9*
G36*
X83119279Y-81601144D02*
X83142334Y-81604563D01*
X83164943Y-81610227D01*
X83186887Y-81618079D01*
X83207957Y-81628044D01*
X83227948Y-81640026D01*
X83246668Y-81653910D01*
X83263938Y-81669562D01*
X83279590Y-81686832D01*
X83293474Y-81705552D01*
X83305456Y-81725543D01*
X83315421Y-81746613D01*
X83323273Y-81768557D01*
X83328937Y-81791166D01*
X83332356Y-81814221D01*
X83333500Y-81837500D01*
X83333500Y-82412500D01*
X83332356Y-82435779D01*
X83328937Y-82458834D01*
X83323273Y-82481443D01*
X83315421Y-82503387D01*
X83305456Y-82524457D01*
X83293474Y-82544448D01*
X83279590Y-82563168D01*
X83263938Y-82580438D01*
X83246668Y-82596090D01*
X83227948Y-82609974D01*
X83207957Y-82621956D01*
X83186887Y-82631921D01*
X83164943Y-82639773D01*
X83142334Y-82645437D01*
X83119279Y-82648856D01*
X83096000Y-82650000D01*
X82621000Y-82650000D01*
X82597721Y-82648856D01*
X82574666Y-82645437D01*
X82552057Y-82639773D01*
X82530113Y-82631921D01*
X82509043Y-82621956D01*
X82489052Y-82609974D01*
X82470332Y-82596090D01*
X82453062Y-82580438D01*
X82437410Y-82563168D01*
X82423526Y-82544448D01*
X82411544Y-82524457D01*
X82401579Y-82503387D01*
X82393727Y-82481443D01*
X82388063Y-82458834D01*
X82384644Y-82435779D01*
X82383500Y-82412500D01*
X82383500Y-81837500D01*
X82384644Y-81814221D01*
X82388063Y-81791166D01*
X82393727Y-81768557D01*
X82401579Y-81746613D01*
X82411544Y-81725543D01*
X82423526Y-81705552D01*
X82437410Y-81686832D01*
X82453062Y-81669562D01*
X82470332Y-81653910D01*
X82489052Y-81640026D01*
X82509043Y-81628044D01*
X82530113Y-81618079D01*
X82552057Y-81610227D01*
X82574666Y-81604563D01*
X82597721Y-81601144D01*
X82621000Y-81600000D01*
X83096000Y-81600000D01*
X83119279Y-81601144D01*
X83119279Y-81601144D01*
G37*
D13*
X82858500Y-82125000D03*
D12*
G36*
X83119279Y-83351144D02*
X83142334Y-83354563D01*
X83164943Y-83360227D01*
X83186887Y-83368079D01*
X83207957Y-83378044D01*
X83227948Y-83390026D01*
X83246668Y-83403910D01*
X83263938Y-83419562D01*
X83279590Y-83436832D01*
X83293474Y-83455552D01*
X83305456Y-83475543D01*
X83315421Y-83496613D01*
X83323273Y-83518557D01*
X83328937Y-83541166D01*
X83332356Y-83564221D01*
X83333500Y-83587500D01*
X83333500Y-84162500D01*
X83332356Y-84185779D01*
X83328937Y-84208834D01*
X83323273Y-84231443D01*
X83315421Y-84253387D01*
X83305456Y-84274457D01*
X83293474Y-84294448D01*
X83279590Y-84313168D01*
X83263938Y-84330438D01*
X83246668Y-84346090D01*
X83227948Y-84359974D01*
X83207957Y-84371956D01*
X83186887Y-84381921D01*
X83164943Y-84389773D01*
X83142334Y-84395437D01*
X83119279Y-84398856D01*
X83096000Y-84400000D01*
X82621000Y-84400000D01*
X82597721Y-84398856D01*
X82574666Y-84395437D01*
X82552057Y-84389773D01*
X82530113Y-84381921D01*
X82509043Y-84371956D01*
X82489052Y-84359974D01*
X82470332Y-84346090D01*
X82453062Y-84330438D01*
X82437410Y-84313168D01*
X82423526Y-84294448D01*
X82411544Y-84274457D01*
X82401579Y-84253387D01*
X82393727Y-84231443D01*
X82388063Y-84208834D01*
X82384644Y-84185779D01*
X82383500Y-84162500D01*
X82383500Y-83587500D01*
X82384644Y-83564221D01*
X82388063Y-83541166D01*
X82393727Y-83518557D01*
X82401579Y-83496613D01*
X82411544Y-83475543D01*
X82423526Y-83455552D01*
X82437410Y-83436832D01*
X82453062Y-83419562D01*
X82470332Y-83403910D01*
X82489052Y-83390026D01*
X82509043Y-83378044D01*
X82530113Y-83368079D01*
X82552057Y-83360227D01*
X82574666Y-83354563D01*
X82597721Y-83351144D01*
X82621000Y-83350000D01*
X83096000Y-83350000D01*
X83119279Y-83351144D01*
X83119279Y-83351144D01*
G37*
D13*
X82858500Y-83875000D03*
G04 #@! TD*
D12*
G04 #@! TO.C,R10*
G36*
X98519279Y-81601144D02*
X98542334Y-81604563D01*
X98564943Y-81610227D01*
X98586887Y-81618079D01*
X98607957Y-81628044D01*
X98627948Y-81640026D01*
X98646668Y-81653910D01*
X98663938Y-81669562D01*
X98679590Y-81686832D01*
X98693474Y-81705552D01*
X98705456Y-81725543D01*
X98715421Y-81746613D01*
X98723273Y-81768557D01*
X98728937Y-81791166D01*
X98732356Y-81814221D01*
X98733500Y-81837500D01*
X98733500Y-82412500D01*
X98732356Y-82435779D01*
X98728937Y-82458834D01*
X98723273Y-82481443D01*
X98715421Y-82503387D01*
X98705456Y-82524457D01*
X98693474Y-82544448D01*
X98679590Y-82563168D01*
X98663938Y-82580438D01*
X98646668Y-82596090D01*
X98627948Y-82609974D01*
X98607957Y-82621956D01*
X98586887Y-82631921D01*
X98564943Y-82639773D01*
X98542334Y-82645437D01*
X98519279Y-82648856D01*
X98496000Y-82650000D01*
X98021000Y-82650000D01*
X97997721Y-82648856D01*
X97974666Y-82645437D01*
X97952057Y-82639773D01*
X97930113Y-82631921D01*
X97909043Y-82621956D01*
X97889052Y-82609974D01*
X97870332Y-82596090D01*
X97853062Y-82580438D01*
X97837410Y-82563168D01*
X97823526Y-82544448D01*
X97811544Y-82524457D01*
X97801579Y-82503387D01*
X97793727Y-82481443D01*
X97788063Y-82458834D01*
X97784644Y-82435779D01*
X97783500Y-82412500D01*
X97783500Y-81837500D01*
X97784644Y-81814221D01*
X97788063Y-81791166D01*
X97793727Y-81768557D01*
X97801579Y-81746613D01*
X97811544Y-81725543D01*
X97823526Y-81705552D01*
X97837410Y-81686832D01*
X97853062Y-81669562D01*
X97870332Y-81653910D01*
X97889052Y-81640026D01*
X97909043Y-81628044D01*
X97930113Y-81618079D01*
X97952057Y-81610227D01*
X97974666Y-81604563D01*
X97997721Y-81601144D01*
X98021000Y-81600000D01*
X98496000Y-81600000D01*
X98519279Y-81601144D01*
X98519279Y-81601144D01*
G37*
D13*
X98258500Y-82125000D03*
D12*
G36*
X98519279Y-83351144D02*
X98542334Y-83354563D01*
X98564943Y-83360227D01*
X98586887Y-83368079D01*
X98607957Y-83378044D01*
X98627948Y-83390026D01*
X98646668Y-83403910D01*
X98663938Y-83419562D01*
X98679590Y-83436832D01*
X98693474Y-83455552D01*
X98705456Y-83475543D01*
X98715421Y-83496613D01*
X98723273Y-83518557D01*
X98728937Y-83541166D01*
X98732356Y-83564221D01*
X98733500Y-83587500D01*
X98733500Y-84162500D01*
X98732356Y-84185779D01*
X98728937Y-84208834D01*
X98723273Y-84231443D01*
X98715421Y-84253387D01*
X98705456Y-84274457D01*
X98693474Y-84294448D01*
X98679590Y-84313168D01*
X98663938Y-84330438D01*
X98646668Y-84346090D01*
X98627948Y-84359974D01*
X98607957Y-84371956D01*
X98586887Y-84381921D01*
X98564943Y-84389773D01*
X98542334Y-84395437D01*
X98519279Y-84398856D01*
X98496000Y-84400000D01*
X98021000Y-84400000D01*
X97997721Y-84398856D01*
X97974666Y-84395437D01*
X97952057Y-84389773D01*
X97930113Y-84381921D01*
X97909043Y-84371956D01*
X97889052Y-84359974D01*
X97870332Y-84346090D01*
X97853062Y-84330438D01*
X97837410Y-84313168D01*
X97823526Y-84294448D01*
X97811544Y-84274457D01*
X97801579Y-84253387D01*
X97793727Y-84231443D01*
X97788063Y-84208834D01*
X97784644Y-84185779D01*
X97783500Y-84162500D01*
X97783500Y-83587500D01*
X97784644Y-83564221D01*
X97788063Y-83541166D01*
X97793727Y-83518557D01*
X97801579Y-83496613D01*
X97811544Y-83475543D01*
X97823526Y-83455552D01*
X97837410Y-83436832D01*
X97853062Y-83419562D01*
X97870332Y-83403910D01*
X97889052Y-83390026D01*
X97909043Y-83378044D01*
X97930113Y-83368079D01*
X97952057Y-83360227D01*
X97974666Y-83354563D01*
X97997721Y-83351144D01*
X98021000Y-83350000D01*
X98496000Y-83350000D01*
X98519279Y-83351144D01*
X98519279Y-83351144D01*
G37*
D13*
X98258500Y-83875000D03*
G04 #@! TD*
D12*
G04 #@! TO.C,R11*
G36*
X113919279Y-81601144D02*
X113942334Y-81604563D01*
X113964943Y-81610227D01*
X113986887Y-81618079D01*
X114007957Y-81628044D01*
X114027948Y-81640026D01*
X114046668Y-81653910D01*
X114063938Y-81669562D01*
X114079590Y-81686832D01*
X114093474Y-81705552D01*
X114105456Y-81725543D01*
X114115421Y-81746613D01*
X114123273Y-81768557D01*
X114128937Y-81791166D01*
X114132356Y-81814221D01*
X114133500Y-81837500D01*
X114133500Y-82412500D01*
X114132356Y-82435779D01*
X114128937Y-82458834D01*
X114123273Y-82481443D01*
X114115421Y-82503387D01*
X114105456Y-82524457D01*
X114093474Y-82544448D01*
X114079590Y-82563168D01*
X114063938Y-82580438D01*
X114046668Y-82596090D01*
X114027948Y-82609974D01*
X114007957Y-82621956D01*
X113986887Y-82631921D01*
X113964943Y-82639773D01*
X113942334Y-82645437D01*
X113919279Y-82648856D01*
X113896000Y-82650000D01*
X113421000Y-82650000D01*
X113397721Y-82648856D01*
X113374666Y-82645437D01*
X113352057Y-82639773D01*
X113330113Y-82631921D01*
X113309043Y-82621956D01*
X113289052Y-82609974D01*
X113270332Y-82596090D01*
X113253062Y-82580438D01*
X113237410Y-82563168D01*
X113223526Y-82544448D01*
X113211544Y-82524457D01*
X113201579Y-82503387D01*
X113193727Y-82481443D01*
X113188063Y-82458834D01*
X113184644Y-82435779D01*
X113183500Y-82412500D01*
X113183500Y-81837500D01*
X113184644Y-81814221D01*
X113188063Y-81791166D01*
X113193727Y-81768557D01*
X113201579Y-81746613D01*
X113211544Y-81725543D01*
X113223526Y-81705552D01*
X113237410Y-81686832D01*
X113253062Y-81669562D01*
X113270332Y-81653910D01*
X113289052Y-81640026D01*
X113309043Y-81628044D01*
X113330113Y-81618079D01*
X113352057Y-81610227D01*
X113374666Y-81604563D01*
X113397721Y-81601144D01*
X113421000Y-81600000D01*
X113896000Y-81600000D01*
X113919279Y-81601144D01*
X113919279Y-81601144D01*
G37*
D13*
X113658500Y-82125000D03*
D12*
G36*
X113919279Y-83351144D02*
X113942334Y-83354563D01*
X113964943Y-83360227D01*
X113986887Y-83368079D01*
X114007957Y-83378044D01*
X114027948Y-83390026D01*
X114046668Y-83403910D01*
X114063938Y-83419562D01*
X114079590Y-83436832D01*
X114093474Y-83455552D01*
X114105456Y-83475543D01*
X114115421Y-83496613D01*
X114123273Y-83518557D01*
X114128937Y-83541166D01*
X114132356Y-83564221D01*
X114133500Y-83587500D01*
X114133500Y-84162500D01*
X114132356Y-84185779D01*
X114128937Y-84208834D01*
X114123273Y-84231443D01*
X114115421Y-84253387D01*
X114105456Y-84274457D01*
X114093474Y-84294448D01*
X114079590Y-84313168D01*
X114063938Y-84330438D01*
X114046668Y-84346090D01*
X114027948Y-84359974D01*
X114007957Y-84371956D01*
X113986887Y-84381921D01*
X113964943Y-84389773D01*
X113942334Y-84395437D01*
X113919279Y-84398856D01*
X113896000Y-84400000D01*
X113421000Y-84400000D01*
X113397721Y-84398856D01*
X113374666Y-84395437D01*
X113352057Y-84389773D01*
X113330113Y-84381921D01*
X113309043Y-84371956D01*
X113289052Y-84359974D01*
X113270332Y-84346090D01*
X113253062Y-84330438D01*
X113237410Y-84313168D01*
X113223526Y-84294448D01*
X113211544Y-84274457D01*
X113201579Y-84253387D01*
X113193727Y-84231443D01*
X113188063Y-84208834D01*
X113184644Y-84185779D01*
X113183500Y-84162500D01*
X113183500Y-83587500D01*
X113184644Y-83564221D01*
X113188063Y-83541166D01*
X113193727Y-83518557D01*
X113201579Y-83496613D01*
X113211544Y-83475543D01*
X113223526Y-83455552D01*
X113237410Y-83436832D01*
X113253062Y-83419562D01*
X113270332Y-83403910D01*
X113289052Y-83390026D01*
X113309043Y-83378044D01*
X113330113Y-83368079D01*
X113352057Y-83360227D01*
X113374666Y-83354563D01*
X113397721Y-83351144D01*
X113421000Y-83350000D01*
X113896000Y-83350000D01*
X113919279Y-83351144D01*
X113919279Y-83351144D01*
G37*
D13*
X113658500Y-83875000D03*
G04 #@! TD*
D12*
G04 #@! TO.C,R12*
G36*
X129319279Y-81601144D02*
X129342334Y-81604563D01*
X129364943Y-81610227D01*
X129386887Y-81618079D01*
X129407957Y-81628044D01*
X129427948Y-81640026D01*
X129446668Y-81653910D01*
X129463938Y-81669562D01*
X129479590Y-81686832D01*
X129493474Y-81705552D01*
X129505456Y-81725543D01*
X129515421Y-81746613D01*
X129523273Y-81768557D01*
X129528937Y-81791166D01*
X129532356Y-81814221D01*
X129533500Y-81837500D01*
X129533500Y-82412500D01*
X129532356Y-82435779D01*
X129528937Y-82458834D01*
X129523273Y-82481443D01*
X129515421Y-82503387D01*
X129505456Y-82524457D01*
X129493474Y-82544448D01*
X129479590Y-82563168D01*
X129463938Y-82580438D01*
X129446668Y-82596090D01*
X129427948Y-82609974D01*
X129407957Y-82621956D01*
X129386887Y-82631921D01*
X129364943Y-82639773D01*
X129342334Y-82645437D01*
X129319279Y-82648856D01*
X129296000Y-82650000D01*
X128821000Y-82650000D01*
X128797721Y-82648856D01*
X128774666Y-82645437D01*
X128752057Y-82639773D01*
X128730113Y-82631921D01*
X128709043Y-82621956D01*
X128689052Y-82609974D01*
X128670332Y-82596090D01*
X128653062Y-82580438D01*
X128637410Y-82563168D01*
X128623526Y-82544448D01*
X128611544Y-82524457D01*
X128601579Y-82503387D01*
X128593727Y-82481443D01*
X128588063Y-82458834D01*
X128584644Y-82435779D01*
X128583500Y-82412500D01*
X128583500Y-81837500D01*
X128584644Y-81814221D01*
X128588063Y-81791166D01*
X128593727Y-81768557D01*
X128601579Y-81746613D01*
X128611544Y-81725543D01*
X128623526Y-81705552D01*
X128637410Y-81686832D01*
X128653062Y-81669562D01*
X128670332Y-81653910D01*
X128689052Y-81640026D01*
X128709043Y-81628044D01*
X128730113Y-81618079D01*
X128752057Y-81610227D01*
X128774666Y-81604563D01*
X128797721Y-81601144D01*
X128821000Y-81600000D01*
X129296000Y-81600000D01*
X129319279Y-81601144D01*
X129319279Y-81601144D01*
G37*
D13*
X129058500Y-82125000D03*
D12*
G36*
X129319279Y-83351144D02*
X129342334Y-83354563D01*
X129364943Y-83360227D01*
X129386887Y-83368079D01*
X129407957Y-83378044D01*
X129427948Y-83390026D01*
X129446668Y-83403910D01*
X129463938Y-83419562D01*
X129479590Y-83436832D01*
X129493474Y-83455552D01*
X129505456Y-83475543D01*
X129515421Y-83496613D01*
X129523273Y-83518557D01*
X129528937Y-83541166D01*
X129532356Y-83564221D01*
X129533500Y-83587500D01*
X129533500Y-84162500D01*
X129532356Y-84185779D01*
X129528937Y-84208834D01*
X129523273Y-84231443D01*
X129515421Y-84253387D01*
X129505456Y-84274457D01*
X129493474Y-84294448D01*
X129479590Y-84313168D01*
X129463938Y-84330438D01*
X129446668Y-84346090D01*
X129427948Y-84359974D01*
X129407957Y-84371956D01*
X129386887Y-84381921D01*
X129364943Y-84389773D01*
X129342334Y-84395437D01*
X129319279Y-84398856D01*
X129296000Y-84400000D01*
X128821000Y-84400000D01*
X128797721Y-84398856D01*
X128774666Y-84395437D01*
X128752057Y-84389773D01*
X128730113Y-84381921D01*
X128709043Y-84371956D01*
X128689052Y-84359974D01*
X128670332Y-84346090D01*
X128653062Y-84330438D01*
X128637410Y-84313168D01*
X128623526Y-84294448D01*
X128611544Y-84274457D01*
X128601579Y-84253387D01*
X128593727Y-84231443D01*
X128588063Y-84208834D01*
X128584644Y-84185779D01*
X128583500Y-84162500D01*
X128583500Y-83587500D01*
X128584644Y-83564221D01*
X128588063Y-83541166D01*
X128593727Y-83518557D01*
X128601579Y-83496613D01*
X128611544Y-83475543D01*
X128623526Y-83455552D01*
X128637410Y-83436832D01*
X128653062Y-83419562D01*
X128670332Y-83403910D01*
X128689052Y-83390026D01*
X128709043Y-83378044D01*
X128730113Y-83368079D01*
X128752057Y-83360227D01*
X128774666Y-83354563D01*
X128797721Y-83351144D01*
X128821000Y-83350000D01*
X129296000Y-83350000D01*
X129319279Y-83351144D01*
X129319279Y-83351144D01*
G37*
D13*
X129058500Y-83875000D03*
G04 #@! TD*
D12*
G04 #@! TO.C,R13*
G36*
X153319279Y-83351144D02*
X153342334Y-83354563D01*
X153364943Y-83360227D01*
X153386887Y-83368079D01*
X153407957Y-83378044D01*
X153427948Y-83390026D01*
X153446668Y-83403910D01*
X153463938Y-83419562D01*
X153479590Y-83436832D01*
X153493474Y-83455552D01*
X153505456Y-83475543D01*
X153515421Y-83496613D01*
X153523273Y-83518557D01*
X153528937Y-83541166D01*
X153532356Y-83564221D01*
X153533500Y-83587500D01*
X153533500Y-84162500D01*
X153532356Y-84185779D01*
X153528937Y-84208834D01*
X153523273Y-84231443D01*
X153515421Y-84253387D01*
X153505456Y-84274457D01*
X153493474Y-84294448D01*
X153479590Y-84313168D01*
X153463938Y-84330438D01*
X153446668Y-84346090D01*
X153427948Y-84359974D01*
X153407957Y-84371956D01*
X153386887Y-84381921D01*
X153364943Y-84389773D01*
X153342334Y-84395437D01*
X153319279Y-84398856D01*
X153296000Y-84400000D01*
X152821000Y-84400000D01*
X152797721Y-84398856D01*
X152774666Y-84395437D01*
X152752057Y-84389773D01*
X152730113Y-84381921D01*
X152709043Y-84371956D01*
X152689052Y-84359974D01*
X152670332Y-84346090D01*
X152653062Y-84330438D01*
X152637410Y-84313168D01*
X152623526Y-84294448D01*
X152611544Y-84274457D01*
X152601579Y-84253387D01*
X152593727Y-84231443D01*
X152588063Y-84208834D01*
X152584644Y-84185779D01*
X152583500Y-84162500D01*
X152583500Y-83587500D01*
X152584644Y-83564221D01*
X152588063Y-83541166D01*
X152593727Y-83518557D01*
X152601579Y-83496613D01*
X152611544Y-83475543D01*
X152623526Y-83455552D01*
X152637410Y-83436832D01*
X152653062Y-83419562D01*
X152670332Y-83403910D01*
X152689052Y-83390026D01*
X152709043Y-83378044D01*
X152730113Y-83368079D01*
X152752057Y-83360227D01*
X152774666Y-83354563D01*
X152797721Y-83351144D01*
X152821000Y-83350000D01*
X153296000Y-83350000D01*
X153319279Y-83351144D01*
X153319279Y-83351144D01*
G37*
D13*
X153058500Y-83875000D03*
D12*
G36*
X153319279Y-81601144D02*
X153342334Y-81604563D01*
X153364943Y-81610227D01*
X153386887Y-81618079D01*
X153407957Y-81628044D01*
X153427948Y-81640026D01*
X153446668Y-81653910D01*
X153463938Y-81669562D01*
X153479590Y-81686832D01*
X153493474Y-81705552D01*
X153505456Y-81725543D01*
X153515421Y-81746613D01*
X153523273Y-81768557D01*
X153528937Y-81791166D01*
X153532356Y-81814221D01*
X153533500Y-81837500D01*
X153533500Y-82412500D01*
X153532356Y-82435779D01*
X153528937Y-82458834D01*
X153523273Y-82481443D01*
X153515421Y-82503387D01*
X153505456Y-82524457D01*
X153493474Y-82544448D01*
X153479590Y-82563168D01*
X153463938Y-82580438D01*
X153446668Y-82596090D01*
X153427948Y-82609974D01*
X153407957Y-82621956D01*
X153386887Y-82631921D01*
X153364943Y-82639773D01*
X153342334Y-82645437D01*
X153319279Y-82648856D01*
X153296000Y-82650000D01*
X152821000Y-82650000D01*
X152797721Y-82648856D01*
X152774666Y-82645437D01*
X152752057Y-82639773D01*
X152730113Y-82631921D01*
X152709043Y-82621956D01*
X152689052Y-82609974D01*
X152670332Y-82596090D01*
X152653062Y-82580438D01*
X152637410Y-82563168D01*
X152623526Y-82544448D01*
X152611544Y-82524457D01*
X152601579Y-82503387D01*
X152593727Y-82481443D01*
X152588063Y-82458834D01*
X152584644Y-82435779D01*
X152583500Y-82412500D01*
X152583500Y-81837500D01*
X152584644Y-81814221D01*
X152588063Y-81791166D01*
X152593727Y-81768557D01*
X152601579Y-81746613D01*
X152611544Y-81725543D01*
X152623526Y-81705552D01*
X152637410Y-81686832D01*
X152653062Y-81669562D01*
X152670332Y-81653910D01*
X152689052Y-81640026D01*
X152709043Y-81628044D01*
X152730113Y-81618079D01*
X152752057Y-81610227D01*
X152774666Y-81604563D01*
X152797721Y-81601144D01*
X152821000Y-81600000D01*
X153296000Y-81600000D01*
X153319279Y-81601144D01*
X153319279Y-81601144D01*
G37*
D13*
X153058500Y-82125000D03*
G04 #@! TD*
D12*
G04 #@! TO.C,R14*
G36*
X168719279Y-83351144D02*
X168742334Y-83354563D01*
X168764943Y-83360227D01*
X168786887Y-83368079D01*
X168807957Y-83378044D01*
X168827948Y-83390026D01*
X168846668Y-83403910D01*
X168863938Y-83419562D01*
X168879590Y-83436832D01*
X168893474Y-83455552D01*
X168905456Y-83475543D01*
X168915421Y-83496613D01*
X168923273Y-83518557D01*
X168928937Y-83541166D01*
X168932356Y-83564221D01*
X168933500Y-83587500D01*
X168933500Y-84162500D01*
X168932356Y-84185779D01*
X168928937Y-84208834D01*
X168923273Y-84231443D01*
X168915421Y-84253387D01*
X168905456Y-84274457D01*
X168893474Y-84294448D01*
X168879590Y-84313168D01*
X168863938Y-84330438D01*
X168846668Y-84346090D01*
X168827948Y-84359974D01*
X168807957Y-84371956D01*
X168786887Y-84381921D01*
X168764943Y-84389773D01*
X168742334Y-84395437D01*
X168719279Y-84398856D01*
X168696000Y-84400000D01*
X168221000Y-84400000D01*
X168197721Y-84398856D01*
X168174666Y-84395437D01*
X168152057Y-84389773D01*
X168130113Y-84381921D01*
X168109043Y-84371956D01*
X168089052Y-84359974D01*
X168070332Y-84346090D01*
X168053062Y-84330438D01*
X168037410Y-84313168D01*
X168023526Y-84294448D01*
X168011544Y-84274457D01*
X168001579Y-84253387D01*
X167993727Y-84231443D01*
X167988063Y-84208834D01*
X167984644Y-84185779D01*
X167983500Y-84162500D01*
X167983500Y-83587500D01*
X167984644Y-83564221D01*
X167988063Y-83541166D01*
X167993727Y-83518557D01*
X168001579Y-83496613D01*
X168011544Y-83475543D01*
X168023526Y-83455552D01*
X168037410Y-83436832D01*
X168053062Y-83419562D01*
X168070332Y-83403910D01*
X168089052Y-83390026D01*
X168109043Y-83378044D01*
X168130113Y-83368079D01*
X168152057Y-83360227D01*
X168174666Y-83354563D01*
X168197721Y-83351144D01*
X168221000Y-83350000D01*
X168696000Y-83350000D01*
X168719279Y-83351144D01*
X168719279Y-83351144D01*
G37*
D13*
X168458500Y-83875000D03*
D12*
G36*
X168719279Y-81601144D02*
X168742334Y-81604563D01*
X168764943Y-81610227D01*
X168786887Y-81618079D01*
X168807957Y-81628044D01*
X168827948Y-81640026D01*
X168846668Y-81653910D01*
X168863938Y-81669562D01*
X168879590Y-81686832D01*
X168893474Y-81705552D01*
X168905456Y-81725543D01*
X168915421Y-81746613D01*
X168923273Y-81768557D01*
X168928937Y-81791166D01*
X168932356Y-81814221D01*
X168933500Y-81837500D01*
X168933500Y-82412500D01*
X168932356Y-82435779D01*
X168928937Y-82458834D01*
X168923273Y-82481443D01*
X168915421Y-82503387D01*
X168905456Y-82524457D01*
X168893474Y-82544448D01*
X168879590Y-82563168D01*
X168863938Y-82580438D01*
X168846668Y-82596090D01*
X168827948Y-82609974D01*
X168807957Y-82621956D01*
X168786887Y-82631921D01*
X168764943Y-82639773D01*
X168742334Y-82645437D01*
X168719279Y-82648856D01*
X168696000Y-82650000D01*
X168221000Y-82650000D01*
X168197721Y-82648856D01*
X168174666Y-82645437D01*
X168152057Y-82639773D01*
X168130113Y-82631921D01*
X168109043Y-82621956D01*
X168089052Y-82609974D01*
X168070332Y-82596090D01*
X168053062Y-82580438D01*
X168037410Y-82563168D01*
X168023526Y-82544448D01*
X168011544Y-82524457D01*
X168001579Y-82503387D01*
X167993727Y-82481443D01*
X167988063Y-82458834D01*
X167984644Y-82435779D01*
X167983500Y-82412500D01*
X167983500Y-81837500D01*
X167984644Y-81814221D01*
X167988063Y-81791166D01*
X167993727Y-81768557D01*
X168001579Y-81746613D01*
X168011544Y-81725543D01*
X168023526Y-81705552D01*
X168037410Y-81686832D01*
X168053062Y-81669562D01*
X168070332Y-81653910D01*
X168089052Y-81640026D01*
X168109043Y-81628044D01*
X168130113Y-81618079D01*
X168152057Y-81610227D01*
X168174666Y-81604563D01*
X168197721Y-81601144D01*
X168221000Y-81600000D01*
X168696000Y-81600000D01*
X168719279Y-81601144D01*
X168719279Y-81601144D01*
G37*
D13*
X168458500Y-82125000D03*
G04 #@! TD*
D12*
G04 #@! TO.C,R15*
G36*
X184119279Y-83351144D02*
X184142334Y-83354563D01*
X184164943Y-83360227D01*
X184186887Y-83368079D01*
X184207957Y-83378044D01*
X184227948Y-83390026D01*
X184246668Y-83403910D01*
X184263938Y-83419562D01*
X184279590Y-83436832D01*
X184293474Y-83455552D01*
X184305456Y-83475543D01*
X184315421Y-83496613D01*
X184323273Y-83518557D01*
X184328937Y-83541166D01*
X184332356Y-83564221D01*
X184333500Y-83587500D01*
X184333500Y-84162500D01*
X184332356Y-84185779D01*
X184328937Y-84208834D01*
X184323273Y-84231443D01*
X184315421Y-84253387D01*
X184305456Y-84274457D01*
X184293474Y-84294448D01*
X184279590Y-84313168D01*
X184263938Y-84330438D01*
X184246668Y-84346090D01*
X184227948Y-84359974D01*
X184207957Y-84371956D01*
X184186887Y-84381921D01*
X184164943Y-84389773D01*
X184142334Y-84395437D01*
X184119279Y-84398856D01*
X184096000Y-84400000D01*
X183621000Y-84400000D01*
X183597721Y-84398856D01*
X183574666Y-84395437D01*
X183552057Y-84389773D01*
X183530113Y-84381921D01*
X183509043Y-84371956D01*
X183489052Y-84359974D01*
X183470332Y-84346090D01*
X183453062Y-84330438D01*
X183437410Y-84313168D01*
X183423526Y-84294448D01*
X183411544Y-84274457D01*
X183401579Y-84253387D01*
X183393727Y-84231443D01*
X183388063Y-84208834D01*
X183384644Y-84185779D01*
X183383500Y-84162500D01*
X183383500Y-83587500D01*
X183384644Y-83564221D01*
X183388063Y-83541166D01*
X183393727Y-83518557D01*
X183401579Y-83496613D01*
X183411544Y-83475543D01*
X183423526Y-83455552D01*
X183437410Y-83436832D01*
X183453062Y-83419562D01*
X183470332Y-83403910D01*
X183489052Y-83390026D01*
X183509043Y-83378044D01*
X183530113Y-83368079D01*
X183552057Y-83360227D01*
X183574666Y-83354563D01*
X183597721Y-83351144D01*
X183621000Y-83350000D01*
X184096000Y-83350000D01*
X184119279Y-83351144D01*
X184119279Y-83351144D01*
G37*
D13*
X183858500Y-83875000D03*
D12*
G36*
X184119279Y-81601144D02*
X184142334Y-81604563D01*
X184164943Y-81610227D01*
X184186887Y-81618079D01*
X184207957Y-81628044D01*
X184227948Y-81640026D01*
X184246668Y-81653910D01*
X184263938Y-81669562D01*
X184279590Y-81686832D01*
X184293474Y-81705552D01*
X184305456Y-81725543D01*
X184315421Y-81746613D01*
X184323273Y-81768557D01*
X184328937Y-81791166D01*
X184332356Y-81814221D01*
X184333500Y-81837500D01*
X184333500Y-82412500D01*
X184332356Y-82435779D01*
X184328937Y-82458834D01*
X184323273Y-82481443D01*
X184315421Y-82503387D01*
X184305456Y-82524457D01*
X184293474Y-82544448D01*
X184279590Y-82563168D01*
X184263938Y-82580438D01*
X184246668Y-82596090D01*
X184227948Y-82609974D01*
X184207957Y-82621956D01*
X184186887Y-82631921D01*
X184164943Y-82639773D01*
X184142334Y-82645437D01*
X184119279Y-82648856D01*
X184096000Y-82650000D01*
X183621000Y-82650000D01*
X183597721Y-82648856D01*
X183574666Y-82645437D01*
X183552057Y-82639773D01*
X183530113Y-82631921D01*
X183509043Y-82621956D01*
X183489052Y-82609974D01*
X183470332Y-82596090D01*
X183453062Y-82580438D01*
X183437410Y-82563168D01*
X183423526Y-82544448D01*
X183411544Y-82524457D01*
X183401579Y-82503387D01*
X183393727Y-82481443D01*
X183388063Y-82458834D01*
X183384644Y-82435779D01*
X183383500Y-82412500D01*
X183383500Y-81837500D01*
X183384644Y-81814221D01*
X183388063Y-81791166D01*
X183393727Y-81768557D01*
X183401579Y-81746613D01*
X183411544Y-81725543D01*
X183423526Y-81705552D01*
X183437410Y-81686832D01*
X183453062Y-81669562D01*
X183470332Y-81653910D01*
X183489052Y-81640026D01*
X183509043Y-81628044D01*
X183530113Y-81618079D01*
X183552057Y-81610227D01*
X183574666Y-81604563D01*
X183597721Y-81601144D01*
X183621000Y-81600000D01*
X184096000Y-81600000D01*
X184119279Y-81601144D01*
X184119279Y-81601144D01*
G37*
D13*
X183858500Y-82125000D03*
G04 #@! TD*
D12*
G04 #@! TO.C,R16*
G36*
X199519279Y-83351144D02*
X199542334Y-83354563D01*
X199564943Y-83360227D01*
X199586887Y-83368079D01*
X199607957Y-83378044D01*
X199627948Y-83390026D01*
X199646668Y-83403910D01*
X199663938Y-83419562D01*
X199679590Y-83436832D01*
X199693474Y-83455552D01*
X199705456Y-83475543D01*
X199715421Y-83496613D01*
X199723273Y-83518557D01*
X199728937Y-83541166D01*
X199732356Y-83564221D01*
X199733500Y-83587500D01*
X199733500Y-84162500D01*
X199732356Y-84185779D01*
X199728937Y-84208834D01*
X199723273Y-84231443D01*
X199715421Y-84253387D01*
X199705456Y-84274457D01*
X199693474Y-84294448D01*
X199679590Y-84313168D01*
X199663938Y-84330438D01*
X199646668Y-84346090D01*
X199627948Y-84359974D01*
X199607957Y-84371956D01*
X199586887Y-84381921D01*
X199564943Y-84389773D01*
X199542334Y-84395437D01*
X199519279Y-84398856D01*
X199496000Y-84400000D01*
X199021000Y-84400000D01*
X198997721Y-84398856D01*
X198974666Y-84395437D01*
X198952057Y-84389773D01*
X198930113Y-84381921D01*
X198909043Y-84371956D01*
X198889052Y-84359974D01*
X198870332Y-84346090D01*
X198853062Y-84330438D01*
X198837410Y-84313168D01*
X198823526Y-84294448D01*
X198811544Y-84274457D01*
X198801579Y-84253387D01*
X198793727Y-84231443D01*
X198788063Y-84208834D01*
X198784644Y-84185779D01*
X198783500Y-84162500D01*
X198783500Y-83587500D01*
X198784644Y-83564221D01*
X198788063Y-83541166D01*
X198793727Y-83518557D01*
X198801579Y-83496613D01*
X198811544Y-83475543D01*
X198823526Y-83455552D01*
X198837410Y-83436832D01*
X198853062Y-83419562D01*
X198870332Y-83403910D01*
X198889052Y-83390026D01*
X198909043Y-83378044D01*
X198930113Y-83368079D01*
X198952057Y-83360227D01*
X198974666Y-83354563D01*
X198997721Y-83351144D01*
X199021000Y-83350000D01*
X199496000Y-83350000D01*
X199519279Y-83351144D01*
X199519279Y-83351144D01*
G37*
D13*
X199258500Y-83875000D03*
D12*
G36*
X199519279Y-81601144D02*
X199542334Y-81604563D01*
X199564943Y-81610227D01*
X199586887Y-81618079D01*
X199607957Y-81628044D01*
X199627948Y-81640026D01*
X199646668Y-81653910D01*
X199663938Y-81669562D01*
X199679590Y-81686832D01*
X199693474Y-81705552D01*
X199705456Y-81725543D01*
X199715421Y-81746613D01*
X199723273Y-81768557D01*
X199728937Y-81791166D01*
X199732356Y-81814221D01*
X199733500Y-81837500D01*
X199733500Y-82412500D01*
X199732356Y-82435779D01*
X199728937Y-82458834D01*
X199723273Y-82481443D01*
X199715421Y-82503387D01*
X199705456Y-82524457D01*
X199693474Y-82544448D01*
X199679590Y-82563168D01*
X199663938Y-82580438D01*
X199646668Y-82596090D01*
X199627948Y-82609974D01*
X199607957Y-82621956D01*
X199586887Y-82631921D01*
X199564943Y-82639773D01*
X199542334Y-82645437D01*
X199519279Y-82648856D01*
X199496000Y-82650000D01*
X199021000Y-82650000D01*
X198997721Y-82648856D01*
X198974666Y-82645437D01*
X198952057Y-82639773D01*
X198930113Y-82631921D01*
X198909043Y-82621956D01*
X198889052Y-82609974D01*
X198870332Y-82596090D01*
X198853062Y-82580438D01*
X198837410Y-82563168D01*
X198823526Y-82544448D01*
X198811544Y-82524457D01*
X198801579Y-82503387D01*
X198793727Y-82481443D01*
X198788063Y-82458834D01*
X198784644Y-82435779D01*
X198783500Y-82412500D01*
X198783500Y-81837500D01*
X198784644Y-81814221D01*
X198788063Y-81791166D01*
X198793727Y-81768557D01*
X198801579Y-81746613D01*
X198811544Y-81725543D01*
X198823526Y-81705552D01*
X198837410Y-81686832D01*
X198853062Y-81669562D01*
X198870332Y-81653910D01*
X198889052Y-81640026D01*
X198909043Y-81628044D01*
X198930113Y-81618079D01*
X198952057Y-81610227D01*
X198974666Y-81604563D01*
X198997721Y-81601144D01*
X199021000Y-81600000D01*
X199496000Y-81600000D01*
X199519279Y-81601144D01*
X199519279Y-81601144D01*
G37*
D13*
X199258500Y-82125000D03*
G04 #@! TD*
D12*
G04 #@! TO.C,R17*
G36*
X214919279Y-83351144D02*
X214942334Y-83354563D01*
X214964943Y-83360227D01*
X214986887Y-83368079D01*
X215007957Y-83378044D01*
X215027948Y-83390026D01*
X215046668Y-83403910D01*
X215063938Y-83419562D01*
X215079590Y-83436832D01*
X215093474Y-83455552D01*
X215105456Y-83475543D01*
X215115421Y-83496613D01*
X215123273Y-83518557D01*
X215128937Y-83541166D01*
X215132356Y-83564221D01*
X215133500Y-83587500D01*
X215133500Y-84162500D01*
X215132356Y-84185779D01*
X215128937Y-84208834D01*
X215123273Y-84231443D01*
X215115421Y-84253387D01*
X215105456Y-84274457D01*
X215093474Y-84294448D01*
X215079590Y-84313168D01*
X215063938Y-84330438D01*
X215046668Y-84346090D01*
X215027948Y-84359974D01*
X215007957Y-84371956D01*
X214986887Y-84381921D01*
X214964943Y-84389773D01*
X214942334Y-84395437D01*
X214919279Y-84398856D01*
X214896000Y-84400000D01*
X214421000Y-84400000D01*
X214397721Y-84398856D01*
X214374666Y-84395437D01*
X214352057Y-84389773D01*
X214330113Y-84381921D01*
X214309043Y-84371956D01*
X214289052Y-84359974D01*
X214270332Y-84346090D01*
X214253062Y-84330438D01*
X214237410Y-84313168D01*
X214223526Y-84294448D01*
X214211544Y-84274457D01*
X214201579Y-84253387D01*
X214193727Y-84231443D01*
X214188063Y-84208834D01*
X214184644Y-84185779D01*
X214183500Y-84162500D01*
X214183500Y-83587500D01*
X214184644Y-83564221D01*
X214188063Y-83541166D01*
X214193727Y-83518557D01*
X214201579Y-83496613D01*
X214211544Y-83475543D01*
X214223526Y-83455552D01*
X214237410Y-83436832D01*
X214253062Y-83419562D01*
X214270332Y-83403910D01*
X214289052Y-83390026D01*
X214309043Y-83378044D01*
X214330113Y-83368079D01*
X214352057Y-83360227D01*
X214374666Y-83354563D01*
X214397721Y-83351144D01*
X214421000Y-83350000D01*
X214896000Y-83350000D01*
X214919279Y-83351144D01*
X214919279Y-83351144D01*
G37*
D13*
X214658500Y-83875000D03*
D12*
G36*
X214919279Y-81601144D02*
X214942334Y-81604563D01*
X214964943Y-81610227D01*
X214986887Y-81618079D01*
X215007957Y-81628044D01*
X215027948Y-81640026D01*
X215046668Y-81653910D01*
X215063938Y-81669562D01*
X215079590Y-81686832D01*
X215093474Y-81705552D01*
X215105456Y-81725543D01*
X215115421Y-81746613D01*
X215123273Y-81768557D01*
X215128937Y-81791166D01*
X215132356Y-81814221D01*
X215133500Y-81837500D01*
X215133500Y-82412500D01*
X215132356Y-82435779D01*
X215128937Y-82458834D01*
X215123273Y-82481443D01*
X215115421Y-82503387D01*
X215105456Y-82524457D01*
X215093474Y-82544448D01*
X215079590Y-82563168D01*
X215063938Y-82580438D01*
X215046668Y-82596090D01*
X215027948Y-82609974D01*
X215007957Y-82621956D01*
X214986887Y-82631921D01*
X214964943Y-82639773D01*
X214942334Y-82645437D01*
X214919279Y-82648856D01*
X214896000Y-82650000D01*
X214421000Y-82650000D01*
X214397721Y-82648856D01*
X214374666Y-82645437D01*
X214352057Y-82639773D01*
X214330113Y-82631921D01*
X214309043Y-82621956D01*
X214289052Y-82609974D01*
X214270332Y-82596090D01*
X214253062Y-82580438D01*
X214237410Y-82563168D01*
X214223526Y-82544448D01*
X214211544Y-82524457D01*
X214201579Y-82503387D01*
X214193727Y-82481443D01*
X214188063Y-82458834D01*
X214184644Y-82435779D01*
X214183500Y-82412500D01*
X214183500Y-81837500D01*
X214184644Y-81814221D01*
X214188063Y-81791166D01*
X214193727Y-81768557D01*
X214201579Y-81746613D01*
X214211544Y-81725543D01*
X214223526Y-81705552D01*
X214237410Y-81686832D01*
X214253062Y-81669562D01*
X214270332Y-81653910D01*
X214289052Y-81640026D01*
X214309043Y-81628044D01*
X214330113Y-81618079D01*
X214352057Y-81610227D01*
X214374666Y-81604563D01*
X214397721Y-81601144D01*
X214421000Y-81600000D01*
X214896000Y-81600000D01*
X214919279Y-81601144D01*
X214919279Y-81601144D01*
G37*
D13*
X214658500Y-82125000D03*
G04 #@! TD*
D12*
G04 #@! TO.C,R18*
G36*
X230319279Y-83351144D02*
X230342334Y-83354563D01*
X230364943Y-83360227D01*
X230386887Y-83368079D01*
X230407957Y-83378044D01*
X230427948Y-83390026D01*
X230446668Y-83403910D01*
X230463938Y-83419562D01*
X230479590Y-83436832D01*
X230493474Y-83455552D01*
X230505456Y-83475543D01*
X230515421Y-83496613D01*
X230523273Y-83518557D01*
X230528937Y-83541166D01*
X230532356Y-83564221D01*
X230533500Y-83587500D01*
X230533500Y-84162500D01*
X230532356Y-84185779D01*
X230528937Y-84208834D01*
X230523273Y-84231443D01*
X230515421Y-84253387D01*
X230505456Y-84274457D01*
X230493474Y-84294448D01*
X230479590Y-84313168D01*
X230463938Y-84330438D01*
X230446668Y-84346090D01*
X230427948Y-84359974D01*
X230407957Y-84371956D01*
X230386887Y-84381921D01*
X230364943Y-84389773D01*
X230342334Y-84395437D01*
X230319279Y-84398856D01*
X230296000Y-84400000D01*
X229821000Y-84400000D01*
X229797721Y-84398856D01*
X229774666Y-84395437D01*
X229752057Y-84389773D01*
X229730113Y-84381921D01*
X229709043Y-84371956D01*
X229689052Y-84359974D01*
X229670332Y-84346090D01*
X229653062Y-84330438D01*
X229637410Y-84313168D01*
X229623526Y-84294448D01*
X229611544Y-84274457D01*
X229601579Y-84253387D01*
X229593727Y-84231443D01*
X229588063Y-84208834D01*
X229584644Y-84185779D01*
X229583500Y-84162500D01*
X229583500Y-83587500D01*
X229584644Y-83564221D01*
X229588063Y-83541166D01*
X229593727Y-83518557D01*
X229601579Y-83496613D01*
X229611544Y-83475543D01*
X229623526Y-83455552D01*
X229637410Y-83436832D01*
X229653062Y-83419562D01*
X229670332Y-83403910D01*
X229689052Y-83390026D01*
X229709043Y-83378044D01*
X229730113Y-83368079D01*
X229752057Y-83360227D01*
X229774666Y-83354563D01*
X229797721Y-83351144D01*
X229821000Y-83350000D01*
X230296000Y-83350000D01*
X230319279Y-83351144D01*
X230319279Y-83351144D01*
G37*
D13*
X230058500Y-83875000D03*
D12*
G36*
X230319279Y-81601144D02*
X230342334Y-81604563D01*
X230364943Y-81610227D01*
X230386887Y-81618079D01*
X230407957Y-81628044D01*
X230427948Y-81640026D01*
X230446668Y-81653910D01*
X230463938Y-81669562D01*
X230479590Y-81686832D01*
X230493474Y-81705552D01*
X230505456Y-81725543D01*
X230515421Y-81746613D01*
X230523273Y-81768557D01*
X230528937Y-81791166D01*
X230532356Y-81814221D01*
X230533500Y-81837500D01*
X230533500Y-82412500D01*
X230532356Y-82435779D01*
X230528937Y-82458834D01*
X230523273Y-82481443D01*
X230515421Y-82503387D01*
X230505456Y-82524457D01*
X230493474Y-82544448D01*
X230479590Y-82563168D01*
X230463938Y-82580438D01*
X230446668Y-82596090D01*
X230427948Y-82609974D01*
X230407957Y-82621956D01*
X230386887Y-82631921D01*
X230364943Y-82639773D01*
X230342334Y-82645437D01*
X230319279Y-82648856D01*
X230296000Y-82650000D01*
X229821000Y-82650000D01*
X229797721Y-82648856D01*
X229774666Y-82645437D01*
X229752057Y-82639773D01*
X229730113Y-82631921D01*
X229709043Y-82621956D01*
X229689052Y-82609974D01*
X229670332Y-82596090D01*
X229653062Y-82580438D01*
X229637410Y-82563168D01*
X229623526Y-82544448D01*
X229611544Y-82524457D01*
X229601579Y-82503387D01*
X229593727Y-82481443D01*
X229588063Y-82458834D01*
X229584644Y-82435779D01*
X229583500Y-82412500D01*
X229583500Y-81837500D01*
X229584644Y-81814221D01*
X229588063Y-81791166D01*
X229593727Y-81768557D01*
X229601579Y-81746613D01*
X229611544Y-81725543D01*
X229623526Y-81705552D01*
X229637410Y-81686832D01*
X229653062Y-81669562D01*
X229670332Y-81653910D01*
X229689052Y-81640026D01*
X229709043Y-81628044D01*
X229730113Y-81618079D01*
X229752057Y-81610227D01*
X229774666Y-81604563D01*
X229797721Y-81601144D01*
X229821000Y-81600000D01*
X230296000Y-81600000D01*
X230319279Y-81601144D01*
X230319279Y-81601144D01*
G37*
D13*
X230058500Y-82125000D03*
G04 #@! TD*
D12*
G04 #@! TO.C,R19*
G36*
X160319279Y-83351144D02*
X160342334Y-83354563D01*
X160364943Y-83360227D01*
X160386887Y-83368079D01*
X160407957Y-83378044D01*
X160427948Y-83390026D01*
X160446668Y-83403910D01*
X160463938Y-83419562D01*
X160479590Y-83436832D01*
X160493474Y-83455552D01*
X160505456Y-83475543D01*
X160515421Y-83496613D01*
X160523273Y-83518557D01*
X160528937Y-83541166D01*
X160532356Y-83564221D01*
X160533500Y-83587500D01*
X160533500Y-84162500D01*
X160532356Y-84185779D01*
X160528937Y-84208834D01*
X160523273Y-84231443D01*
X160515421Y-84253387D01*
X160505456Y-84274457D01*
X160493474Y-84294448D01*
X160479590Y-84313168D01*
X160463938Y-84330438D01*
X160446668Y-84346090D01*
X160427948Y-84359974D01*
X160407957Y-84371956D01*
X160386887Y-84381921D01*
X160364943Y-84389773D01*
X160342334Y-84395437D01*
X160319279Y-84398856D01*
X160296000Y-84400000D01*
X159821000Y-84400000D01*
X159797721Y-84398856D01*
X159774666Y-84395437D01*
X159752057Y-84389773D01*
X159730113Y-84381921D01*
X159709043Y-84371956D01*
X159689052Y-84359974D01*
X159670332Y-84346090D01*
X159653062Y-84330438D01*
X159637410Y-84313168D01*
X159623526Y-84294448D01*
X159611544Y-84274457D01*
X159601579Y-84253387D01*
X159593727Y-84231443D01*
X159588063Y-84208834D01*
X159584644Y-84185779D01*
X159583500Y-84162500D01*
X159583500Y-83587500D01*
X159584644Y-83564221D01*
X159588063Y-83541166D01*
X159593727Y-83518557D01*
X159601579Y-83496613D01*
X159611544Y-83475543D01*
X159623526Y-83455552D01*
X159637410Y-83436832D01*
X159653062Y-83419562D01*
X159670332Y-83403910D01*
X159689052Y-83390026D01*
X159709043Y-83378044D01*
X159730113Y-83368079D01*
X159752057Y-83360227D01*
X159774666Y-83354563D01*
X159797721Y-83351144D01*
X159821000Y-83350000D01*
X160296000Y-83350000D01*
X160319279Y-83351144D01*
X160319279Y-83351144D01*
G37*
D13*
X160058500Y-83875000D03*
D12*
G36*
X160319279Y-81601144D02*
X160342334Y-81604563D01*
X160364943Y-81610227D01*
X160386887Y-81618079D01*
X160407957Y-81628044D01*
X160427948Y-81640026D01*
X160446668Y-81653910D01*
X160463938Y-81669562D01*
X160479590Y-81686832D01*
X160493474Y-81705552D01*
X160505456Y-81725543D01*
X160515421Y-81746613D01*
X160523273Y-81768557D01*
X160528937Y-81791166D01*
X160532356Y-81814221D01*
X160533500Y-81837500D01*
X160533500Y-82412500D01*
X160532356Y-82435779D01*
X160528937Y-82458834D01*
X160523273Y-82481443D01*
X160515421Y-82503387D01*
X160505456Y-82524457D01*
X160493474Y-82544448D01*
X160479590Y-82563168D01*
X160463938Y-82580438D01*
X160446668Y-82596090D01*
X160427948Y-82609974D01*
X160407957Y-82621956D01*
X160386887Y-82631921D01*
X160364943Y-82639773D01*
X160342334Y-82645437D01*
X160319279Y-82648856D01*
X160296000Y-82650000D01*
X159821000Y-82650000D01*
X159797721Y-82648856D01*
X159774666Y-82645437D01*
X159752057Y-82639773D01*
X159730113Y-82631921D01*
X159709043Y-82621956D01*
X159689052Y-82609974D01*
X159670332Y-82596090D01*
X159653062Y-82580438D01*
X159637410Y-82563168D01*
X159623526Y-82544448D01*
X159611544Y-82524457D01*
X159601579Y-82503387D01*
X159593727Y-82481443D01*
X159588063Y-82458834D01*
X159584644Y-82435779D01*
X159583500Y-82412500D01*
X159583500Y-81837500D01*
X159584644Y-81814221D01*
X159588063Y-81791166D01*
X159593727Y-81768557D01*
X159601579Y-81746613D01*
X159611544Y-81725543D01*
X159623526Y-81705552D01*
X159637410Y-81686832D01*
X159653062Y-81669562D01*
X159670332Y-81653910D01*
X159689052Y-81640026D01*
X159709043Y-81628044D01*
X159730113Y-81618079D01*
X159752057Y-81610227D01*
X159774666Y-81604563D01*
X159797721Y-81601144D01*
X159821000Y-81600000D01*
X160296000Y-81600000D01*
X160319279Y-81601144D01*
X160319279Y-81601144D01*
G37*
D13*
X160058500Y-82125000D03*
G04 #@! TD*
D12*
G04 #@! TO.C,R20*
G36*
X175719279Y-83351144D02*
X175742334Y-83354563D01*
X175764943Y-83360227D01*
X175786887Y-83368079D01*
X175807957Y-83378044D01*
X175827948Y-83390026D01*
X175846668Y-83403910D01*
X175863938Y-83419562D01*
X175879590Y-83436832D01*
X175893474Y-83455552D01*
X175905456Y-83475543D01*
X175915421Y-83496613D01*
X175923273Y-83518557D01*
X175928937Y-83541166D01*
X175932356Y-83564221D01*
X175933500Y-83587500D01*
X175933500Y-84162500D01*
X175932356Y-84185779D01*
X175928937Y-84208834D01*
X175923273Y-84231443D01*
X175915421Y-84253387D01*
X175905456Y-84274457D01*
X175893474Y-84294448D01*
X175879590Y-84313168D01*
X175863938Y-84330438D01*
X175846668Y-84346090D01*
X175827948Y-84359974D01*
X175807957Y-84371956D01*
X175786887Y-84381921D01*
X175764943Y-84389773D01*
X175742334Y-84395437D01*
X175719279Y-84398856D01*
X175696000Y-84400000D01*
X175221000Y-84400000D01*
X175197721Y-84398856D01*
X175174666Y-84395437D01*
X175152057Y-84389773D01*
X175130113Y-84381921D01*
X175109043Y-84371956D01*
X175089052Y-84359974D01*
X175070332Y-84346090D01*
X175053062Y-84330438D01*
X175037410Y-84313168D01*
X175023526Y-84294448D01*
X175011544Y-84274457D01*
X175001579Y-84253387D01*
X174993727Y-84231443D01*
X174988063Y-84208834D01*
X174984644Y-84185779D01*
X174983500Y-84162500D01*
X174983500Y-83587500D01*
X174984644Y-83564221D01*
X174988063Y-83541166D01*
X174993727Y-83518557D01*
X175001579Y-83496613D01*
X175011544Y-83475543D01*
X175023526Y-83455552D01*
X175037410Y-83436832D01*
X175053062Y-83419562D01*
X175070332Y-83403910D01*
X175089052Y-83390026D01*
X175109043Y-83378044D01*
X175130113Y-83368079D01*
X175152057Y-83360227D01*
X175174666Y-83354563D01*
X175197721Y-83351144D01*
X175221000Y-83350000D01*
X175696000Y-83350000D01*
X175719279Y-83351144D01*
X175719279Y-83351144D01*
G37*
D13*
X175458500Y-83875000D03*
D12*
G36*
X175719279Y-81601144D02*
X175742334Y-81604563D01*
X175764943Y-81610227D01*
X175786887Y-81618079D01*
X175807957Y-81628044D01*
X175827948Y-81640026D01*
X175846668Y-81653910D01*
X175863938Y-81669562D01*
X175879590Y-81686832D01*
X175893474Y-81705552D01*
X175905456Y-81725543D01*
X175915421Y-81746613D01*
X175923273Y-81768557D01*
X175928937Y-81791166D01*
X175932356Y-81814221D01*
X175933500Y-81837500D01*
X175933500Y-82412500D01*
X175932356Y-82435779D01*
X175928937Y-82458834D01*
X175923273Y-82481443D01*
X175915421Y-82503387D01*
X175905456Y-82524457D01*
X175893474Y-82544448D01*
X175879590Y-82563168D01*
X175863938Y-82580438D01*
X175846668Y-82596090D01*
X175827948Y-82609974D01*
X175807957Y-82621956D01*
X175786887Y-82631921D01*
X175764943Y-82639773D01*
X175742334Y-82645437D01*
X175719279Y-82648856D01*
X175696000Y-82650000D01*
X175221000Y-82650000D01*
X175197721Y-82648856D01*
X175174666Y-82645437D01*
X175152057Y-82639773D01*
X175130113Y-82631921D01*
X175109043Y-82621956D01*
X175089052Y-82609974D01*
X175070332Y-82596090D01*
X175053062Y-82580438D01*
X175037410Y-82563168D01*
X175023526Y-82544448D01*
X175011544Y-82524457D01*
X175001579Y-82503387D01*
X174993727Y-82481443D01*
X174988063Y-82458834D01*
X174984644Y-82435779D01*
X174983500Y-82412500D01*
X174983500Y-81837500D01*
X174984644Y-81814221D01*
X174988063Y-81791166D01*
X174993727Y-81768557D01*
X175001579Y-81746613D01*
X175011544Y-81725543D01*
X175023526Y-81705552D01*
X175037410Y-81686832D01*
X175053062Y-81669562D01*
X175070332Y-81653910D01*
X175089052Y-81640026D01*
X175109043Y-81628044D01*
X175130113Y-81618079D01*
X175152057Y-81610227D01*
X175174666Y-81604563D01*
X175197721Y-81601144D01*
X175221000Y-81600000D01*
X175696000Y-81600000D01*
X175719279Y-81601144D01*
X175719279Y-81601144D01*
G37*
D13*
X175458500Y-82125000D03*
G04 #@! TD*
D12*
G04 #@! TO.C,R21*
G36*
X191119279Y-83351144D02*
X191142334Y-83354563D01*
X191164943Y-83360227D01*
X191186887Y-83368079D01*
X191207957Y-83378044D01*
X191227948Y-83390026D01*
X191246668Y-83403910D01*
X191263938Y-83419562D01*
X191279590Y-83436832D01*
X191293474Y-83455552D01*
X191305456Y-83475543D01*
X191315421Y-83496613D01*
X191323273Y-83518557D01*
X191328937Y-83541166D01*
X191332356Y-83564221D01*
X191333500Y-83587500D01*
X191333500Y-84162500D01*
X191332356Y-84185779D01*
X191328937Y-84208834D01*
X191323273Y-84231443D01*
X191315421Y-84253387D01*
X191305456Y-84274457D01*
X191293474Y-84294448D01*
X191279590Y-84313168D01*
X191263938Y-84330438D01*
X191246668Y-84346090D01*
X191227948Y-84359974D01*
X191207957Y-84371956D01*
X191186887Y-84381921D01*
X191164943Y-84389773D01*
X191142334Y-84395437D01*
X191119279Y-84398856D01*
X191096000Y-84400000D01*
X190621000Y-84400000D01*
X190597721Y-84398856D01*
X190574666Y-84395437D01*
X190552057Y-84389773D01*
X190530113Y-84381921D01*
X190509043Y-84371956D01*
X190489052Y-84359974D01*
X190470332Y-84346090D01*
X190453062Y-84330438D01*
X190437410Y-84313168D01*
X190423526Y-84294448D01*
X190411544Y-84274457D01*
X190401579Y-84253387D01*
X190393727Y-84231443D01*
X190388063Y-84208834D01*
X190384644Y-84185779D01*
X190383500Y-84162500D01*
X190383500Y-83587500D01*
X190384644Y-83564221D01*
X190388063Y-83541166D01*
X190393727Y-83518557D01*
X190401579Y-83496613D01*
X190411544Y-83475543D01*
X190423526Y-83455552D01*
X190437410Y-83436832D01*
X190453062Y-83419562D01*
X190470332Y-83403910D01*
X190489052Y-83390026D01*
X190509043Y-83378044D01*
X190530113Y-83368079D01*
X190552057Y-83360227D01*
X190574666Y-83354563D01*
X190597721Y-83351144D01*
X190621000Y-83350000D01*
X191096000Y-83350000D01*
X191119279Y-83351144D01*
X191119279Y-83351144D01*
G37*
D13*
X190858500Y-83875000D03*
D12*
G36*
X191119279Y-81601144D02*
X191142334Y-81604563D01*
X191164943Y-81610227D01*
X191186887Y-81618079D01*
X191207957Y-81628044D01*
X191227948Y-81640026D01*
X191246668Y-81653910D01*
X191263938Y-81669562D01*
X191279590Y-81686832D01*
X191293474Y-81705552D01*
X191305456Y-81725543D01*
X191315421Y-81746613D01*
X191323273Y-81768557D01*
X191328937Y-81791166D01*
X191332356Y-81814221D01*
X191333500Y-81837500D01*
X191333500Y-82412500D01*
X191332356Y-82435779D01*
X191328937Y-82458834D01*
X191323273Y-82481443D01*
X191315421Y-82503387D01*
X191305456Y-82524457D01*
X191293474Y-82544448D01*
X191279590Y-82563168D01*
X191263938Y-82580438D01*
X191246668Y-82596090D01*
X191227948Y-82609974D01*
X191207957Y-82621956D01*
X191186887Y-82631921D01*
X191164943Y-82639773D01*
X191142334Y-82645437D01*
X191119279Y-82648856D01*
X191096000Y-82650000D01*
X190621000Y-82650000D01*
X190597721Y-82648856D01*
X190574666Y-82645437D01*
X190552057Y-82639773D01*
X190530113Y-82631921D01*
X190509043Y-82621956D01*
X190489052Y-82609974D01*
X190470332Y-82596090D01*
X190453062Y-82580438D01*
X190437410Y-82563168D01*
X190423526Y-82544448D01*
X190411544Y-82524457D01*
X190401579Y-82503387D01*
X190393727Y-82481443D01*
X190388063Y-82458834D01*
X190384644Y-82435779D01*
X190383500Y-82412500D01*
X190383500Y-81837500D01*
X190384644Y-81814221D01*
X190388063Y-81791166D01*
X190393727Y-81768557D01*
X190401579Y-81746613D01*
X190411544Y-81725543D01*
X190423526Y-81705552D01*
X190437410Y-81686832D01*
X190453062Y-81669562D01*
X190470332Y-81653910D01*
X190489052Y-81640026D01*
X190509043Y-81628044D01*
X190530113Y-81618079D01*
X190552057Y-81610227D01*
X190574666Y-81604563D01*
X190597721Y-81601144D01*
X190621000Y-81600000D01*
X191096000Y-81600000D01*
X191119279Y-81601144D01*
X191119279Y-81601144D01*
G37*
D13*
X190858500Y-82125000D03*
G04 #@! TD*
D12*
G04 #@! TO.C,R22*
G36*
X206519279Y-83351144D02*
X206542334Y-83354563D01*
X206564943Y-83360227D01*
X206586887Y-83368079D01*
X206607957Y-83378044D01*
X206627948Y-83390026D01*
X206646668Y-83403910D01*
X206663938Y-83419562D01*
X206679590Y-83436832D01*
X206693474Y-83455552D01*
X206705456Y-83475543D01*
X206715421Y-83496613D01*
X206723273Y-83518557D01*
X206728937Y-83541166D01*
X206732356Y-83564221D01*
X206733500Y-83587500D01*
X206733500Y-84162500D01*
X206732356Y-84185779D01*
X206728937Y-84208834D01*
X206723273Y-84231443D01*
X206715421Y-84253387D01*
X206705456Y-84274457D01*
X206693474Y-84294448D01*
X206679590Y-84313168D01*
X206663938Y-84330438D01*
X206646668Y-84346090D01*
X206627948Y-84359974D01*
X206607957Y-84371956D01*
X206586887Y-84381921D01*
X206564943Y-84389773D01*
X206542334Y-84395437D01*
X206519279Y-84398856D01*
X206496000Y-84400000D01*
X206021000Y-84400000D01*
X205997721Y-84398856D01*
X205974666Y-84395437D01*
X205952057Y-84389773D01*
X205930113Y-84381921D01*
X205909043Y-84371956D01*
X205889052Y-84359974D01*
X205870332Y-84346090D01*
X205853062Y-84330438D01*
X205837410Y-84313168D01*
X205823526Y-84294448D01*
X205811544Y-84274457D01*
X205801579Y-84253387D01*
X205793727Y-84231443D01*
X205788063Y-84208834D01*
X205784644Y-84185779D01*
X205783500Y-84162500D01*
X205783500Y-83587500D01*
X205784644Y-83564221D01*
X205788063Y-83541166D01*
X205793727Y-83518557D01*
X205801579Y-83496613D01*
X205811544Y-83475543D01*
X205823526Y-83455552D01*
X205837410Y-83436832D01*
X205853062Y-83419562D01*
X205870332Y-83403910D01*
X205889052Y-83390026D01*
X205909043Y-83378044D01*
X205930113Y-83368079D01*
X205952057Y-83360227D01*
X205974666Y-83354563D01*
X205997721Y-83351144D01*
X206021000Y-83350000D01*
X206496000Y-83350000D01*
X206519279Y-83351144D01*
X206519279Y-83351144D01*
G37*
D13*
X206258500Y-83875000D03*
D12*
G36*
X206519279Y-81601144D02*
X206542334Y-81604563D01*
X206564943Y-81610227D01*
X206586887Y-81618079D01*
X206607957Y-81628044D01*
X206627948Y-81640026D01*
X206646668Y-81653910D01*
X206663938Y-81669562D01*
X206679590Y-81686832D01*
X206693474Y-81705552D01*
X206705456Y-81725543D01*
X206715421Y-81746613D01*
X206723273Y-81768557D01*
X206728937Y-81791166D01*
X206732356Y-81814221D01*
X206733500Y-81837500D01*
X206733500Y-82412500D01*
X206732356Y-82435779D01*
X206728937Y-82458834D01*
X206723273Y-82481443D01*
X206715421Y-82503387D01*
X206705456Y-82524457D01*
X206693474Y-82544448D01*
X206679590Y-82563168D01*
X206663938Y-82580438D01*
X206646668Y-82596090D01*
X206627948Y-82609974D01*
X206607957Y-82621956D01*
X206586887Y-82631921D01*
X206564943Y-82639773D01*
X206542334Y-82645437D01*
X206519279Y-82648856D01*
X206496000Y-82650000D01*
X206021000Y-82650000D01*
X205997721Y-82648856D01*
X205974666Y-82645437D01*
X205952057Y-82639773D01*
X205930113Y-82631921D01*
X205909043Y-82621956D01*
X205889052Y-82609974D01*
X205870332Y-82596090D01*
X205853062Y-82580438D01*
X205837410Y-82563168D01*
X205823526Y-82544448D01*
X205811544Y-82524457D01*
X205801579Y-82503387D01*
X205793727Y-82481443D01*
X205788063Y-82458834D01*
X205784644Y-82435779D01*
X205783500Y-82412500D01*
X205783500Y-81837500D01*
X205784644Y-81814221D01*
X205788063Y-81791166D01*
X205793727Y-81768557D01*
X205801579Y-81746613D01*
X205811544Y-81725543D01*
X205823526Y-81705552D01*
X205837410Y-81686832D01*
X205853062Y-81669562D01*
X205870332Y-81653910D01*
X205889052Y-81640026D01*
X205909043Y-81628044D01*
X205930113Y-81618079D01*
X205952057Y-81610227D01*
X205974666Y-81604563D01*
X205997721Y-81601144D01*
X206021000Y-81600000D01*
X206496000Y-81600000D01*
X206519279Y-81601144D01*
X206519279Y-81601144D01*
G37*
D13*
X206258500Y-82125000D03*
G04 #@! TD*
D12*
G04 #@! TO.C,R23*
G36*
X221919279Y-83351144D02*
X221942334Y-83354563D01*
X221964943Y-83360227D01*
X221986887Y-83368079D01*
X222007957Y-83378044D01*
X222027948Y-83390026D01*
X222046668Y-83403910D01*
X222063938Y-83419562D01*
X222079590Y-83436832D01*
X222093474Y-83455552D01*
X222105456Y-83475543D01*
X222115421Y-83496613D01*
X222123273Y-83518557D01*
X222128937Y-83541166D01*
X222132356Y-83564221D01*
X222133500Y-83587500D01*
X222133500Y-84162500D01*
X222132356Y-84185779D01*
X222128937Y-84208834D01*
X222123273Y-84231443D01*
X222115421Y-84253387D01*
X222105456Y-84274457D01*
X222093474Y-84294448D01*
X222079590Y-84313168D01*
X222063938Y-84330438D01*
X222046668Y-84346090D01*
X222027948Y-84359974D01*
X222007957Y-84371956D01*
X221986887Y-84381921D01*
X221964943Y-84389773D01*
X221942334Y-84395437D01*
X221919279Y-84398856D01*
X221896000Y-84400000D01*
X221421000Y-84400000D01*
X221397721Y-84398856D01*
X221374666Y-84395437D01*
X221352057Y-84389773D01*
X221330113Y-84381921D01*
X221309043Y-84371956D01*
X221289052Y-84359974D01*
X221270332Y-84346090D01*
X221253062Y-84330438D01*
X221237410Y-84313168D01*
X221223526Y-84294448D01*
X221211544Y-84274457D01*
X221201579Y-84253387D01*
X221193727Y-84231443D01*
X221188063Y-84208834D01*
X221184644Y-84185779D01*
X221183500Y-84162500D01*
X221183500Y-83587500D01*
X221184644Y-83564221D01*
X221188063Y-83541166D01*
X221193727Y-83518557D01*
X221201579Y-83496613D01*
X221211544Y-83475543D01*
X221223526Y-83455552D01*
X221237410Y-83436832D01*
X221253062Y-83419562D01*
X221270332Y-83403910D01*
X221289052Y-83390026D01*
X221309043Y-83378044D01*
X221330113Y-83368079D01*
X221352057Y-83360227D01*
X221374666Y-83354563D01*
X221397721Y-83351144D01*
X221421000Y-83350000D01*
X221896000Y-83350000D01*
X221919279Y-83351144D01*
X221919279Y-83351144D01*
G37*
D13*
X221658500Y-83875000D03*
D12*
G36*
X221919279Y-81601144D02*
X221942334Y-81604563D01*
X221964943Y-81610227D01*
X221986887Y-81618079D01*
X222007957Y-81628044D01*
X222027948Y-81640026D01*
X222046668Y-81653910D01*
X222063938Y-81669562D01*
X222079590Y-81686832D01*
X222093474Y-81705552D01*
X222105456Y-81725543D01*
X222115421Y-81746613D01*
X222123273Y-81768557D01*
X222128937Y-81791166D01*
X222132356Y-81814221D01*
X222133500Y-81837500D01*
X222133500Y-82412500D01*
X222132356Y-82435779D01*
X222128937Y-82458834D01*
X222123273Y-82481443D01*
X222115421Y-82503387D01*
X222105456Y-82524457D01*
X222093474Y-82544448D01*
X222079590Y-82563168D01*
X222063938Y-82580438D01*
X222046668Y-82596090D01*
X222027948Y-82609974D01*
X222007957Y-82621956D01*
X221986887Y-82631921D01*
X221964943Y-82639773D01*
X221942334Y-82645437D01*
X221919279Y-82648856D01*
X221896000Y-82650000D01*
X221421000Y-82650000D01*
X221397721Y-82648856D01*
X221374666Y-82645437D01*
X221352057Y-82639773D01*
X221330113Y-82631921D01*
X221309043Y-82621956D01*
X221289052Y-82609974D01*
X221270332Y-82596090D01*
X221253062Y-82580438D01*
X221237410Y-82563168D01*
X221223526Y-82544448D01*
X221211544Y-82524457D01*
X221201579Y-82503387D01*
X221193727Y-82481443D01*
X221188063Y-82458834D01*
X221184644Y-82435779D01*
X221183500Y-82412500D01*
X221183500Y-81837500D01*
X221184644Y-81814221D01*
X221188063Y-81791166D01*
X221193727Y-81768557D01*
X221201579Y-81746613D01*
X221211544Y-81725543D01*
X221223526Y-81705552D01*
X221237410Y-81686832D01*
X221253062Y-81669562D01*
X221270332Y-81653910D01*
X221289052Y-81640026D01*
X221309043Y-81628044D01*
X221330113Y-81618079D01*
X221352057Y-81610227D01*
X221374666Y-81604563D01*
X221397721Y-81601144D01*
X221421000Y-81600000D01*
X221896000Y-81600000D01*
X221919279Y-81601144D01*
X221919279Y-81601144D01*
G37*
D13*
X221658500Y-82125000D03*
G04 #@! TD*
D12*
G04 #@! TO.C,R24*
G36*
X237319279Y-83351144D02*
X237342334Y-83354563D01*
X237364943Y-83360227D01*
X237386887Y-83368079D01*
X237407957Y-83378044D01*
X237427948Y-83390026D01*
X237446668Y-83403910D01*
X237463938Y-83419562D01*
X237479590Y-83436832D01*
X237493474Y-83455552D01*
X237505456Y-83475543D01*
X237515421Y-83496613D01*
X237523273Y-83518557D01*
X237528937Y-83541166D01*
X237532356Y-83564221D01*
X237533500Y-83587500D01*
X237533500Y-84162500D01*
X237532356Y-84185779D01*
X237528937Y-84208834D01*
X237523273Y-84231443D01*
X237515421Y-84253387D01*
X237505456Y-84274457D01*
X237493474Y-84294448D01*
X237479590Y-84313168D01*
X237463938Y-84330438D01*
X237446668Y-84346090D01*
X237427948Y-84359974D01*
X237407957Y-84371956D01*
X237386887Y-84381921D01*
X237364943Y-84389773D01*
X237342334Y-84395437D01*
X237319279Y-84398856D01*
X237296000Y-84400000D01*
X236821000Y-84400000D01*
X236797721Y-84398856D01*
X236774666Y-84395437D01*
X236752057Y-84389773D01*
X236730113Y-84381921D01*
X236709043Y-84371956D01*
X236689052Y-84359974D01*
X236670332Y-84346090D01*
X236653062Y-84330438D01*
X236637410Y-84313168D01*
X236623526Y-84294448D01*
X236611544Y-84274457D01*
X236601579Y-84253387D01*
X236593727Y-84231443D01*
X236588063Y-84208834D01*
X236584644Y-84185779D01*
X236583500Y-84162500D01*
X236583500Y-83587500D01*
X236584644Y-83564221D01*
X236588063Y-83541166D01*
X236593727Y-83518557D01*
X236601579Y-83496613D01*
X236611544Y-83475543D01*
X236623526Y-83455552D01*
X236637410Y-83436832D01*
X236653062Y-83419562D01*
X236670332Y-83403910D01*
X236689052Y-83390026D01*
X236709043Y-83378044D01*
X236730113Y-83368079D01*
X236752057Y-83360227D01*
X236774666Y-83354563D01*
X236797721Y-83351144D01*
X236821000Y-83350000D01*
X237296000Y-83350000D01*
X237319279Y-83351144D01*
X237319279Y-83351144D01*
G37*
D13*
X237058500Y-83875000D03*
D12*
G36*
X237319279Y-81601144D02*
X237342334Y-81604563D01*
X237364943Y-81610227D01*
X237386887Y-81618079D01*
X237407957Y-81628044D01*
X237427948Y-81640026D01*
X237446668Y-81653910D01*
X237463938Y-81669562D01*
X237479590Y-81686832D01*
X237493474Y-81705552D01*
X237505456Y-81725543D01*
X237515421Y-81746613D01*
X237523273Y-81768557D01*
X237528937Y-81791166D01*
X237532356Y-81814221D01*
X237533500Y-81837500D01*
X237533500Y-82412500D01*
X237532356Y-82435779D01*
X237528937Y-82458834D01*
X237523273Y-82481443D01*
X237515421Y-82503387D01*
X237505456Y-82524457D01*
X237493474Y-82544448D01*
X237479590Y-82563168D01*
X237463938Y-82580438D01*
X237446668Y-82596090D01*
X237427948Y-82609974D01*
X237407957Y-82621956D01*
X237386887Y-82631921D01*
X237364943Y-82639773D01*
X237342334Y-82645437D01*
X237319279Y-82648856D01*
X237296000Y-82650000D01*
X236821000Y-82650000D01*
X236797721Y-82648856D01*
X236774666Y-82645437D01*
X236752057Y-82639773D01*
X236730113Y-82631921D01*
X236709043Y-82621956D01*
X236689052Y-82609974D01*
X236670332Y-82596090D01*
X236653062Y-82580438D01*
X236637410Y-82563168D01*
X236623526Y-82544448D01*
X236611544Y-82524457D01*
X236601579Y-82503387D01*
X236593727Y-82481443D01*
X236588063Y-82458834D01*
X236584644Y-82435779D01*
X236583500Y-82412500D01*
X236583500Y-81837500D01*
X236584644Y-81814221D01*
X236588063Y-81791166D01*
X236593727Y-81768557D01*
X236601579Y-81746613D01*
X236611544Y-81725543D01*
X236623526Y-81705552D01*
X236637410Y-81686832D01*
X236653062Y-81669562D01*
X236670332Y-81653910D01*
X236689052Y-81640026D01*
X236709043Y-81628044D01*
X236730113Y-81618079D01*
X236752057Y-81610227D01*
X236774666Y-81604563D01*
X236797721Y-81601144D01*
X236821000Y-81600000D01*
X237296000Y-81600000D01*
X237319279Y-81601144D01*
X237319279Y-81601144D01*
G37*
D13*
X237058500Y-82125000D03*
G04 #@! TD*
D14*
G04 #@! TO.C,U1*
X66756227Y-133937850D03*
D12*
G36*
X66420351Y-134697990D02*
X65996087Y-134273726D01*
X67092103Y-133177710D01*
X67516367Y-133601974D01*
X66420351Y-134697990D01*
X66420351Y-134697990D01*
G37*
D14*
X65858201Y-133039824D03*
D12*
G36*
X65522325Y-133799964D02*
X65098061Y-133375700D01*
X66194077Y-132279684D01*
X66618341Y-132703948D01*
X65522325Y-133799964D01*
X65522325Y-133799964D01*
G37*
D14*
X64960176Y-132141799D03*
D12*
G36*
X64624300Y-132901939D02*
X64200036Y-132477675D01*
X65296052Y-131381659D01*
X65720316Y-131805923D01*
X64624300Y-132901939D01*
X64624300Y-132901939D01*
G37*
D14*
X64062150Y-131243773D03*
D12*
G36*
X63726274Y-132003913D02*
X63302010Y-131579649D01*
X64398026Y-130483633D01*
X64822290Y-130907897D01*
X63726274Y-132003913D01*
X63726274Y-132003913D01*
G37*
D14*
X60243773Y-135062150D03*
D12*
G36*
X59907897Y-135822290D02*
X59483633Y-135398026D01*
X60579649Y-134302010D01*
X61003913Y-134726274D01*
X59907897Y-135822290D01*
X59907897Y-135822290D01*
G37*
D14*
X61141799Y-135960176D03*
D12*
G36*
X60805923Y-136720316D02*
X60381659Y-136296052D01*
X61477675Y-135200036D01*
X61901939Y-135624300D01*
X60805923Y-136720316D01*
X60805923Y-136720316D01*
G37*
D14*
X62039824Y-136858201D03*
D12*
G36*
X61703948Y-137618341D02*
X61279684Y-137194077D01*
X62375700Y-136098061D01*
X62799964Y-136522325D01*
X61703948Y-137618341D01*
X61703948Y-137618341D01*
G37*
D14*
X62937850Y-137756227D03*
D12*
G36*
X62601974Y-138516367D02*
X62177710Y-138092103D01*
X63273726Y-136996087D01*
X63697990Y-137420351D01*
X62601974Y-138516367D01*
X62601974Y-138516367D01*
G37*
G04 #@! TD*
D14*
G04 #@! TO.C,U2*
X99956227Y-133937850D03*
D12*
G36*
X99620351Y-134697990D02*
X99196087Y-134273726D01*
X100292103Y-133177710D01*
X100716367Y-133601974D01*
X99620351Y-134697990D01*
X99620351Y-134697990D01*
G37*
D14*
X99058201Y-133039824D03*
D12*
G36*
X98722325Y-133799964D02*
X98298061Y-133375700D01*
X99394077Y-132279684D01*
X99818341Y-132703948D01*
X98722325Y-133799964D01*
X98722325Y-133799964D01*
G37*
D14*
X98160176Y-132141799D03*
D12*
G36*
X97824300Y-132901939D02*
X97400036Y-132477675D01*
X98496052Y-131381659D01*
X98920316Y-131805923D01*
X97824300Y-132901939D01*
X97824300Y-132901939D01*
G37*
D14*
X97262150Y-131243773D03*
D12*
G36*
X96926274Y-132003913D02*
X96502010Y-131579649D01*
X97598026Y-130483633D01*
X98022290Y-130907897D01*
X96926274Y-132003913D01*
X96926274Y-132003913D01*
G37*
D14*
X93443773Y-135062150D03*
D12*
G36*
X93107897Y-135822290D02*
X92683633Y-135398026D01*
X93779649Y-134302010D01*
X94203913Y-134726274D01*
X93107897Y-135822290D01*
X93107897Y-135822290D01*
G37*
D14*
X94341799Y-135960176D03*
D12*
G36*
X94005923Y-136720316D02*
X93581659Y-136296052D01*
X94677675Y-135200036D01*
X95101939Y-135624300D01*
X94005923Y-136720316D01*
X94005923Y-136720316D01*
G37*
D14*
X95239824Y-136858201D03*
D12*
G36*
X94903948Y-137618341D02*
X94479684Y-137194077D01*
X95575700Y-136098061D01*
X95999964Y-136522325D01*
X94903948Y-137618341D01*
X94903948Y-137618341D01*
G37*
D14*
X96137850Y-137756227D03*
D12*
G36*
X95801974Y-138516367D02*
X95377710Y-138092103D01*
X96473726Y-136996087D01*
X96897990Y-137420351D01*
X95801974Y-138516367D01*
X95801974Y-138516367D01*
G37*
G04 #@! TD*
D14*
G04 #@! TO.C,U3*
X133156227Y-133937850D03*
D12*
G36*
X132820351Y-134697990D02*
X132396087Y-134273726D01*
X133492103Y-133177710D01*
X133916367Y-133601974D01*
X132820351Y-134697990D01*
X132820351Y-134697990D01*
G37*
D14*
X132258201Y-133039824D03*
D12*
G36*
X131922325Y-133799964D02*
X131498061Y-133375700D01*
X132594077Y-132279684D01*
X133018341Y-132703948D01*
X131922325Y-133799964D01*
X131922325Y-133799964D01*
G37*
D14*
X131360176Y-132141799D03*
D12*
G36*
X131024300Y-132901939D02*
X130600036Y-132477675D01*
X131696052Y-131381659D01*
X132120316Y-131805923D01*
X131024300Y-132901939D01*
X131024300Y-132901939D01*
G37*
D14*
X130462150Y-131243773D03*
D12*
G36*
X130126274Y-132003913D02*
X129702010Y-131579649D01*
X130798026Y-130483633D01*
X131222290Y-130907897D01*
X130126274Y-132003913D01*
X130126274Y-132003913D01*
G37*
D14*
X126643773Y-135062150D03*
D12*
G36*
X126307897Y-135822290D02*
X125883633Y-135398026D01*
X126979649Y-134302010D01*
X127403913Y-134726274D01*
X126307897Y-135822290D01*
X126307897Y-135822290D01*
G37*
D14*
X127541799Y-135960176D03*
D12*
G36*
X127205923Y-136720316D02*
X126781659Y-136296052D01*
X127877675Y-135200036D01*
X128301939Y-135624300D01*
X127205923Y-136720316D01*
X127205923Y-136720316D01*
G37*
D14*
X128439824Y-136858201D03*
D12*
G36*
X128103948Y-137618341D02*
X127679684Y-137194077D01*
X128775700Y-136098061D01*
X129199964Y-136522325D01*
X128103948Y-137618341D01*
X128103948Y-137618341D01*
G37*
D14*
X129337850Y-137756227D03*
D12*
G36*
X129001974Y-138516367D02*
X128577710Y-138092103D01*
X129673726Y-136996087D01*
X130097990Y-137420351D01*
X129001974Y-138516367D01*
X129001974Y-138516367D01*
G37*
G04 #@! TD*
D14*
G04 #@! TO.C,U4*
X166356227Y-133937850D03*
D12*
G36*
X166020351Y-134697990D02*
X165596087Y-134273726D01*
X166692103Y-133177710D01*
X167116367Y-133601974D01*
X166020351Y-134697990D01*
X166020351Y-134697990D01*
G37*
D14*
X165458201Y-133039824D03*
D12*
G36*
X165122325Y-133799964D02*
X164698061Y-133375700D01*
X165794077Y-132279684D01*
X166218341Y-132703948D01*
X165122325Y-133799964D01*
X165122325Y-133799964D01*
G37*
D14*
X164560176Y-132141799D03*
D12*
G36*
X164224300Y-132901939D02*
X163800036Y-132477675D01*
X164896052Y-131381659D01*
X165320316Y-131805923D01*
X164224300Y-132901939D01*
X164224300Y-132901939D01*
G37*
D14*
X163662150Y-131243773D03*
D12*
G36*
X163326274Y-132003913D02*
X162902010Y-131579649D01*
X163998026Y-130483633D01*
X164422290Y-130907897D01*
X163326274Y-132003913D01*
X163326274Y-132003913D01*
G37*
D14*
X159843773Y-135062150D03*
D12*
G36*
X159507897Y-135822290D02*
X159083633Y-135398026D01*
X160179649Y-134302010D01*
X160603913Y-134726274D01*
X159507897Y-135822290D01*
X159507897Y-135822290D01*
G37*
D14*
X160741799Y-135960176D03*
D12*
G36*
X160405923Y-136720316D02*
X159981659Y-136296052D01*
X161077675Y-135200036D01*
X161501939Y-135624300D01*
X160405923Y-136720316D01*
X160405923Y-136720316D01*
G37*
D14*
X161639824Y-136858201D03*
D12*
G36*
X161303948Y-137618341D02*
X160879684Y-137194077D01*
X161975700Y-136098061D01*
X162399964Y-136522325D01*
X161303948Y-137618341D01*
X161303948Y-137618341D01*
G37*
D14*
X162537850Y-137756227D03*
D12*
G36*
X162201974Y-138516367D02*
X161777710Y-138092103D01*
X162873726Y-136996087D01*
X163297990Y-137420351D01*
X162201974Y-138516367D01*
X162201974Y-138516367D01*
G37*
G04 #@! TD*
D14*
G04 #@! TO.C,U5*
X199556227Y-133937850D03*
D12*
G36*
X199220351Y-134697990D02*
X198796087Y-134273726D01*
X199892103Y-133177710D01*
X200316367Y-133601974D01*
X199220351Y-134697990D01*
X199220351Y-134697990D01*
G37*
D14*
X198658201Y-133039824D03*
D12*
G36*
X198322325Y-133799964D02*
X197898061Y-133375700D01*
X198994077Y-132279684D01*
X199418341Y-132703948D01*
X198322325Y-133799964D01*
X198322325Y-133799964D01*
G37*
D14*
X197760176Y-132141799D03*
D12*
G36*
X197424300Y-132901939D02*
X197000036Y-132477675D01*
X198096052Y-131381659D01*
X198520316Y-131805923D01*
X197424300Y-132901939D01*
X197424300Y-132901939D01*
G37*
D14*
X196862150Y-131243773D03*
D12*
G36*
X196526274Y-132003913D02*
X196102010Y-131579649D01*
X197198026Y-130483633D01*
X197622290Y-130907897D01*
X196526274Y-132003913D01*
X196526274Y-132003913D01*
G37*
D14*
X193043773Y-135062150D03*
D12*
G36*
X192707897Y-135822290D02*
X192283633Y-135398026D01*
X193379649Y-134302010D01*
X193803913Y-134726274D01*
X192707897Y-135822290D01*
X192707897Y-135822290D01*
G37*
D14*
X193941799Y-135960176D03*
D12*
G36*
X193605923Y-136720316D02*
X193181659Y-136296052D01*
X194277675Y-135200036D01*
X194701939Y-135624300D01*
X193605923Y-136720316D01*
X193605923Y-136720316D01*
G37*
D14*
X194839824Y-136858201D03*
D12*
G36*
X194503948Y-137618341D02*
X194079684Y-137194077D01*
X195175700Y-136098061D01*
X195599964Y-136522325D01*
X194503948Y-137618341D01*
X194503948Y-137618341D01*
G37*
D14*
X195737850Y-137756227D03*
D12*
G36*
X195401974Y-138516367D02*
X194977710Y-138092103D01*
X196073726Y-136996087D01*
X196497990Y-137420351D01*
X195401974Y-138516367D01*
X195401974Y-138516367D01*
G37*
G04 #@! TD*
D14*
G04 #@! TO.C,U6*
X232756227Y-133937850D03*
D12*
G36*
X232420351Y-134697990D02*
X231996087Y-134273726D01*
X233092103Y-133177710D01*
X233516367Y-133601974D01*
X232420351Y-134697990D01*
X232420351Y-134697990D01*
G37*
D14*
X231858201Y-133039824D03*
D12*
G36*
X231522325Y-133799964D02*
X231098061Y-133375700D01*
X232194077Y-132279684D01*
X232618341Y-132703948D01*
X231522325Y-133799964D01*
X231522325Y-133799964D01*
G37*
D14*
X230960176Y-132141799D03*
D12*
G36*
X230624300Y-132901939D02*
X230200036Y-132477675D01*
X231296052Y-131381659D01*
X231720316Y-131805923D01*
X230624300Y-132901939D01*
X230624300Y-132901939D01*
G37*
D14*
X230062150Y-131243773D03*
D12*
G36*
X229726274Y-132003913D02*
X229302010Y-131579649D01*
X230398026Y-130483633D01*
X230822290Y-130907897D01*
X229726274Y-132003913D01*
X229726274Y-132003913D01*
G37*
D14*
X226243773Y-135062150D03*
D12*
G36*
X225907897Y-135822290D02*
X225483633Y-135398026D01*
X226579649Y-134302010D01*
X227003913Y-134726274D01*
X225907897Y-135822290D01*
X225907897Y-135822290D01*
G37*
D14*
X227141799Y-135960176D03*
D12*
G36*
X226805923Y-136720316D02*
X226381659Y-136296052D01*
X227477675Y-135200036D01*
X227901939Y-135624300D01*
X226805923Y-136720316D01*
X226805923Y-136720316D01*
G37*
D14*
X228039824Y-136858201D03*
D12*
G36*
X227703948Y-137618341D02*
X227279684Y-137194077D01*
X228375700Y-136098061D01*
X228799964Y-136522325D01*
X227703948Y-137618341D01*
X227703948Y-137618341D01*
G37*
D14*
X228937850Y-137756227D03*
D12*
G36*
X228601974Y-138516367D02*
X228177710Y-138092103D01*
X229273726Y-136996087D01*
X229697990Y-137420351D01*
X228601974Y-138516367D01*
X228601974Y-138516367D01*
G37*
G04 #@! TD*
G04 #@! TO.C,R25*
G36*
X140451400Y-113001859D02*
X140474455Y-113005278D01*
X140497064Y-113010942D01*
X140519008Y-113018794D01*
X140540078Y-113028759D01*
X140560069Y-113040741D01*
X140578789Y-113054625D01*
X140596059Y-113070277D01*
X140611711Y-113087547D01*
X140625595Y-113106267D01*
X140637577Y-113126258D01*
X140647542Y-113147328D01*
X140655394Y-113169272D01*
X140661058Y-113191881D01*
X140664477Y-113214936D01*
X140665621Y-113238215D01*
X140665621Y-113713215D01*
X140664477Y-113736494D01*
X140661058Y-113759549D01*
X140655394Y-113782158D01*
X140647542Y-113804102D01*
X140637577Y-113825172D01*
X140625595Y-113845163D01*
X140611711Y-113863883D01*
X140596059Y-113881153D01*
X140578789Y-113896805D01*
X140560069Y-113910689D01*
X140540078Y-113922671D01*
X140519008Y-113932636D01*
X140497064Y-113940488D01*
X140474455Y-113946152D01*
X140451400Y-113949571D01*
X140428121Y-113950715D01*
X139853121Y-113950715D01*
X139829842Y-113949571D01*
X139806787Y-113946152D01*
X139784178Y-113940488D01*
X139762234Y-113932636D01*
X139741164Y-113922671D01*
X139721173Y-113910689D01*
X139702453Y-113896805D01*
X139685183Y-113881153D01*
X139669531Y-113863883D01*
X139655647Y-113845163D01*
X139643665Y-113825172D01*
X139633700Y-113804102D01*
X139625848Y-113782158D01*
X139620184Y-113759549D01*
X139616765Y-113736494D01*
X139615621Y-113713215D01*
X139615621Y-113238215D01*
X139616765Y-113214936D01*
X139620184Y-113191881D01*
X139625848Y-113169272D01*
X139633700Y-113147328D01*
X139643665Y-113126258D01*
X139655647Y-113106267D01*
X139669531Y-113087547D01*
X139685183Y-113070277D01*
X139702453Y-113054625D01*
X139721173Y-113040741D01*
X139741164Y-113028759D01*
X139762234Y-113018794D01*
X139784178Y-113010942D01*
X139806787Y-113005278D01*
X139829842Y-113001859D01*
X139853121Y-113000715D01*
X140428121Y-113000715D01*
X140451400Y-113001859D01*
X140451400Y-113001859D01*
G37*
D13*
X140140621Y-113475715D03*
D12*
G36*
X142201400Y-113001859D02*
X142224455Y-113005278D01*
X142247064Y-113010942D01*
X142269008Y-113018794D01*
X142290078Y-113028759D01*
X142310069Y-113040741D01*
X142328789Y-113054625D01*
X142346059Y-113070277D01*
X142361711Y-113087547D01*
X142375595Y-113106267D01*
X142387577Y-113126258D01*
X142397542Y-113147328D01*
X142405394Y-113169272D01*
X142411058Y-113191881D01*
X142414477Y-113214936D01*
X142415621Y-113238215D01*
X142415621Y-113713215D01*
X142414477Y-113736494D01*
X142411058Y-113759549D01*
X142405394Y-113782158D01*
X142397542Y-113804102D01*
X142387577Y-113825172D01*
X142375595Y-113845163D01*
X142361711Y-113863883D01*
X142346059Y-113881153D01*
X142328789Y-113896805D01*
X142310069Y-113910689D01*
X142290078Y-113922671D01*
X142269008Y-113932636D01*
X142247064Y-113940488D01*
X142224455Y-113946152D01*
X142201400Y-113949571D01*
X142178121Y-113950715D01*
X141603121Y-113950715D01*
X141579842Y-113949571D01*
X141556787Y-113946152D01*
X141534178Y-113940488D01*
X141512234Y-113932636D01*
X141491164Y-113922671D01*
X141471173Y-113910689D01*
X141452453Y-113896805D01*
X141435183Y-113881153D01*
X141419531Y-113863883D01*
X141405647Y-113845163D01*
X141393665Y-113825172D01*
X141383700Y-113804102D01*
X141375848Y-113782158D01*
X141370184Y-113759549D01*
X141366765Y-113736494D01*
X141365621Y-113713215D01*
X141365621Y-113238215D01*
X141366765Y-113214936D01*
X141370184Y-113191881D01*
X141375848Y-113169272D01*
X141383700Y-113147328D01*
X141393665Y-113126258D01*
X141405647Y-113106267D01*
X141419531Y-113087547D01*
X141435183Y-113070277D01*
X141452453Y-113054625D01*
X141471173Y-113040741D01*
X141491164Y-113028759D01*
X141512234Y-113018794D01*
X141534178Y-113010942D01*
X141556787Y-113005278D01*
X141579842Y-113001859D01*
X141603121Y-113000715D01*
X142178121Y-113000715D01*
X142201400Y-113001859D01*
X142201400Y-113001859D01*
G37*
D13*
X141890621Y-113475715D03*
G04 #@! TD*
D12*
G04 #@! TO.C,R26*
G36*
X144451400Y-113001859D02*
X144474455Y-113005278D01*
X144497064Y-113010942D01*
X144519008Y-113018794D01*
X144540078Y-113028759D01*
X144560069Y-113040741D01*
X144578789Y-113054625D01*
X144596059Y-113070277D01*
X144611711Y-113087547D01*
X144625595Y-113106267D01*
X144637577Y-113126258D01*
X144647542Y-113147328D01*
X144655394Y-113169272D01*
X144661058Y-113191881D01*
X144664477Y-113214936D01*
X144665621Y-113238215D01*
X144665621Y-113713215D01*
X144664477Y-113736494D01*
X144661058Y-113759549D01*
X144655394Y-113782158D01*
X144647542Y-113804102D01*
X144637577Y-113825172D01*
X144625595Y-113845163D01*
X144611711Y-113863883D01*
X144596059Y-113881153D01*
X144578789Y-113896805D01*
X144560069Y-113910689D01*
X144540078Y-113922671D01*
X144519008Y-113932636D01*
X144497064Y-113940488D01*
X144474455Y-113946152D01*
X144451400Y-113949571D01*
X144428121Y-113950715D01*
X143853121Y-113950715D01*
X143829842Y-113949571D01*
X143806787Y-113946152D01*
X143784178Y-113940488D01*
X143762234Y-113932636D01*
X143741164Y-113922671D01*
X143721173Y-113910689D01*
X143702453Y-113896805D01*
X143685183Y-113881153D01*
X143669531Y-113863883D01*
X143655647Y-113845163D01*
X143643665Y-113825172D01*
X143633700Y-113804102D01*
X143625848Y-113782158D01*
X143620184Y-113759549D01*
X143616765Y-113736494D01*
X143615621Y-113713215D01*
X143615621Y-113238215D01*
X143616765Y-113214936D01*
X143620184Y-113191881D01*
X143625848Y-113169272D01*
X143633700Y-113147328D01*
X143643665Y-113126258D01*
X143655647Y-113106267D01*
X143669531Y-113087547D01*
X143685183Y-113070277D01*
X143702453Y-113054625D01*
X143721173Y-113040741D01*
X143741164Y-113028759D01*
X143762234Y-113018794D01*
X143784178Y-113010942D01*
X143806787Y-113005278D01*
X143829842Y-113001859D01*
X143853121Y-113000715D01*
X144428121Y-113000715D01*
X144451400Y-113001859D01*
X144451400Y-113001859D01*
G37*
D13*
X144140621Y-113475715D03*
D12*
G36*
X146201400Y-113001859D02*
X146224455Y-113005278D01*
X146247064Y-113010942D01*
X146269008Y-113018794D01*
X146290078Y-113028759D01*
X146310069Y-113040741D01*
X146328789Y-113054625D01*
X146346059Y-113070277D01*
X146361711Y-113087547D01*
X146375595Y-113106267D01*
X146387577Y-113126258D01*
X146397542Y-113147328D01*
X146405394Y-113169272D01*
X146411058Y-113191881D01*
X146414477Y-113214936D01*
X146415621Y-113238215D01*
X146415621Y-113713215D01*
X146414477Y-113736494D01*
X146411058Y-113759549D01*
X146405394Y-113782158D01*
X146397542Y-113804102D01*
X146387577Y-113825172D01*
X146375595Y-113845163D01*
X146361711Y-113863883D01*
X146346059Y-113881153D01*
X146328789Y-113896805D01*
X146310069Y-113910689D01*
X146290078Y-113922671D01*
X146269008Y-113932636D01*
X146247064Y-113940488D01*
X146224455Y-113946152D01*
X146201400Y-113949571D01*
X146178121Y-113950715D01*
X145603121Y-113950715D01*
X145579842Y-113949571D01*
X145556787Y-113946152D01*
X145534178Y-113940488D01*
X145512234Y-113932636D01*
X145491164Y-113922671D01*
X145471173Y-113910689D01*
X145452453Y-113896805D01*
X145435183Y-113881153D01*
X145419531Y-113863883D01*
X145405647Y-113845163D01*
X145393665Y-113825172D01*
X145383700Y-113804102D01*
X145375848Y-113782158D01*
X145370184Y-113759549D01*
X145366765Y-113736494D01*
X145365621Y-113713215D01*
X145365621Y-113238215D01*
X145366765Y-113214936D01*
X145370184Y-113191881D01*
X145375848Y-113169272D01*
X145383700Y-113147328D01*
X145393665Y-113126258D01*
X145405647Y-113106267D01*
X145419531Y-113087547D01*
X145435183Y-113070277D01*
X145452453Y-113054625D01*
X145471173Y-113040741D01*
X145491164Y-113028759D01*
X145512234Y-113018794D01*
X145534178Y-113010942D01*
X145556787Y-113005278D01*
X145579842Y-113001859D01*
X145603121Y-113000715D01*
X146178121Y-113000715D01*
X146201400Y-113001859D01*
X146201400Y-113001859D01*
G37*
D13*
X145890621Y-113475715D03*
G04 #@! TD*
D15*
G04 #@! TO.C,U7*
X141110621Y-122175715D03*
X142380621Y-122175715D03*
X143650621Y-122175715D03*
X144920621Y-122175715D03*
X144920621Y-116775715D03*
X143650621Y-116775715D03*
X142380621Y-116775715D03*
X141110621Y-116775715D03*
G04 #@! TD*
D12*
G04 #@! TO.C,C1*
G36*
X66677352Y-136273695D02*
X66700407Y-136277114D01*
X66723016Y-136282778D01*
X66744960Y-136290630D01*
X66766030Y-136300595D01*
X66786021Y-136312577D01*
X66804741Y-136326461D01*
X66822011Y-136342113D01*
X67157887Y-136677989D01*
X67173539Y-136695259D01*
X67187423Y-136713979D01*
X67199405Y-136733970D01*
X67209370Y-136755040D01*
X67217222Y-136776984D01*
X67222886Y-136799593D01*
X67226305Y-136822648D01*
X67227449Y-136845927D01*
X67226305Y-136869206D01*
X67222886Y-136892261D01*
X67217222Y-136914870D01*
X67209370Y-136936814D01*
X67199405Y-136957884D01*
X67187423Y-136977875D01*
X67173539Y-136996595D01*
X67157887Y-137013865D01*
X66751301Y-137420451D01*
X66734031Y-137436103D01*
X66715311Y-137449987D01*
X66695320Y-137461969D01*
X66674250Y-137471934D01*
X66652306Y-137479786D01*
X66629697Y-137485450D01*
X66606642Y-137488869D01*
X66583363Y-137490013D01*
X66560084Y-137488869D01*
X66537029Y-137485450D01*
X66514420Y-137479786D01*
X66492476Y-137471934D01*
X66471406Y-137461969D01*
X66451415Y-137449987D01*
X66432695Y-137436103D01*
X66415425Y-137420451D01*
X66079549Y-137084575D01*
X66063897Y-137067305D01*
X66050013Y-137048585D01*
X66038031Y-137028594D01*
X66028066Y-137007524D01*
X66020214Y-136985580D01*
X66014550Y-136962971D01*
X66011131Y-136939916D01*
X66009987Y-136916637D01*
X66011131Y-136893358D01*
X66014550Y-136870303D01*
X66020214Y-136847694D01*
X66028066Y-136825750D01*
X66038031Y-136804680D01*
X66050013Y-136784689D01*
X66063897Y-136765969D01*
X66079549Y-136748699D01*
X66486135Y-136342113D01*
X66503405Y-136326461D01*
X66522125Y-136312577D01*
X66542116Y-136300595D01*
X66563186Y-136290630D01*
X66585130Y-136282778D01*
X66607739Y-136277114D01*
X66630794Y-136273695D01*
X66654073Y-136272551D01*
X66677352Y-136273695D01*
X66677352Y-136273695D01*
G37*
D13*
X66618718Y-136881282D03*
D12*
G36*
X65439916Y-137511131D02*
X65462971Y-137514550D01*
X65485580Y-137520214D01*
X65507524Y-137528066D01*
X65528594Y-137538031D01*
X65548585Y-137550013D01*
X65567305Y-137563897D01*
X65584575Y-137579549D01*
X65920451Y-137915425D01*
X65936103Y-137932695D01*
X65949987Y-137951415D01*
X65961969Y-137971406D01*
X65971934Y-137992476D01*
X65979786Y-138014420D01*
X65985450Y-138037029D01*
X65988869Y-138060084D01*
X65990013Y-138083363D01*
X65988869Y-138106642D01*
X65985450Y-138129697D01*
X65979786Y-138152306D01*
X65971934Y-138174250D01*
X65961969Y-138195320D01*
X65949987Y-138215311D01*
X65936103Y-138234031D01*
X65920451Y-138251301D01*
X65513865Y-138657887D01*
X65496595Y-138673539D01*
X65477875Y-138687423D01*
X65457884Y-138699405D01*
X65436814Y-138709370D01*
X65414870Y-138717222D01*
X65392261Y-138722886D01*
X65369206Y-138726305D01*
X65345927Y-138727449D01*
X65322648Y-138726305D01*
X65299593Y-138722886D01*
X65276984Y-138717222D01*
X65255040Y-138709370D01*
X65233970Y-138699405D01*
X65213979Y-138687423D01*
X65195259Y-138673539D01*
X65177989Y-138657887D01*
X64842113Y-138322011D01*
X64826461Y-138304741D01*
X64812577Y-138286021D01*
X64800595Y-138266030D01*
X64790630Y-138244960D01*
X64782778Y-138223016D01*
X64777114Y-138200407D01*
X64773695Y-138177352D01*
X64772551Y-138154073D01*
X64773695Y-138130794D01*
X64777114Y-138107739D01*
X64782778Y-138085130D01*
X64790630Y-138063186D01*
X64800595Y-138042116D01*
X64812577Y-138022125D01*
X64826461Y-138003405D01*
X64842113Y-137986135D01*
X65248699Y-137579549D01*
X65265969Y-137563897D01*
X65284689Y-137550013D01*
X65304680Y-137538031D01*
X65325750Y-137528066D01*
X65347694Y-137520214D01*
X65370303Y-137514550D01*
X65393358Y-137511131D01*
X65416637Y-137509987D01*
X65439916Y-137511131D01*
X65439916Y-137511131D01*
G37*
D13*
X65381282Y-138118718D03*
G04 #@! TD*
D12*
G04 #@! TO.C,C2*
G36*
X98439916Y-137511131D02*
X98462971Y-137514550D01*
X98485580Y-137520214D01*
X98507524Y-137528066D01*
X98528594Y-137538031D01*
X98548585Y-137550013D01*
X98567305Y-137563897D01*
X98584575Y-137579549D01*
X98920451Y-137915425D01*
X98936103Y-137932695D01*
X98949987Y-137951415D01*
X98961969Y-137971406D01*
X98971934Y-137992476D01*
X98979786Y-138014420D01*
X98985450Y-138037029D01*
X98988869Y-138060084D01*
X98990013Y-138083363D01*
X98988869Y-138106642D01*
X98985450Y-138129697D01*
X98979786Y-138152306D01*
X98971934Y-138174250D01*
X98961969Y-138195320D01*
X98949987Y-138215311D01*
X98936103Y-138234031D01*
X98920451Y-138251301D01*
X98513865Y-138657887D01*
X98496595Y-138673539D01*
X98477875Y-138687423D01*
X98457884Y-138699405D01*
X98436814Y-138709370D01*
X98414870Y-138717222D01*
X98392261Y-138722886D01*
X98369206Y-138726305D01*
X98345927Y-138727449D01*
X98322648Y-138726305D01*
X98299593Y-138722886D01*
X98276984Y-138717222D01*
X98255040Y-138709370D01*
X98233970Y-138699405D01*
X98213979Y-138687423D01*
X98195259Y-138673539D01*
X98177989Y-138657887D01*
X97842113Y-138322011D01*
X97826461Y-138304741D01*
X97812577Y-138286021D01*
X97800595Y-138266030D01*
X97790630Y-138244960D01*
X97782778Y-138223016D01*
X97777114Y-138200407D01*
X97773695Y-138177352D01*
X97772551Y-138154073D01*
X97773695Y-138130794D01*
X97777114Y-138107739D01*
X97782778Y-138085130D01*
X97790630Y-138063186D01*
X97800595Y-138042116D01*
X97812577Y-138022125D01*
X97826461Y-138003405D01*
X97842113Y-137986135D01*
X98248699Y-137579549D01*
X98265969Y-137563897D01*
X98284689Y-137550013D01*
X98304680Y-137538031D01*
X98325750Y-137528066D01*
X98347694Y-137520214D01*
X98370303Y-137514550D01*
X98393358Y-137511131D01*
X98416637Y-137509987D01*
X98439916Y-137511131D01*
X98439916Y-137511131D01*
G37*
D13*
X98381282Y-138118718D03*
D12*
G36*
X99677352Y-136273695D02*
X99700407Y-136277114D01*
X99723016Y-136282778D01*
X99744960Y-136290630D01*
X99766030Y-136300595D01*
X99786021Y-136312577D01*
X99804741Y-136326461D01*
X99822011Y-136342113D01*
X100157887Y-136677989D01*
X100173539Y-136695259D01*
X100187423Y-136713979D01*
X100199405Y-136733970D01*
X100209370Y-136755040D01*
X100217222Y-136776984D01*
X100222886Y-136799593D01*
X100226305Y-136822648D01*
X100227449Y-136845927D01*
X100226305Y-136869206D01*
X100222886Y-136892261D01*
X100217222Y-136914870D01*
X100209370Y-136936814D01*
X100199405Y-136957884D01*
X100187423Y-136977875D01*
X100173539Y-136996595D01*
X100157887Y-137013865D01*
X99751301Y-137420451D01*
X99734031Y-137436103D01*
X99715311Y-137449987D01*
X99695320Y-137461969D01*
X99674250Y-137471934D01*
X99652306Y-137479786D01*
X99629697Y-137485450D01*
X99606642Y-137488869D01*
X99583363Y-137490013D01*
X99560084Y-137488869D01*
X99537029Y-137485450D01*
X99514420Y-137479786D01*
X99492476Y-137471934D01*
X99471406Y-137461969D01*
X99451415Y-137449987D01*
X99432695Y-137436103D01*
X99415425Y-137420451D01*
X99079549Y-137084575D01*
X99063897Y-137067305D01*
X99050013Y-137048585D01*
X99038031Y-137028594D01*
X99028066Y-137007524D01*
X99020214Y-136985580D01*
X99014550Y-136962971D01*
X99011131Y-136939916D01*
X99009987Y-136916637D01*
X99011131Y-136893358D01*
X99014550Y-136870303D01*
X99020214Y-136847694D01*
X99028066Y-136825750D01*
X99038031Y-136804680D01*
X99050013Y-136784689D01*
X99063897Y-136765969D01*
X99079549Y-136748699D01*
X99486135Y-136342113D01*
X99503405Y-136326461D01*
X99522125Y-136312577D01*
X99542116Y-136300595D01*
X99563186Y-136290630D01*
X99585130Y-136282778D01*
X99607739Y-136277114D01*
X99630794Y-136273695D01*
X99654073Y-136272551D01*
X99677352Y-136273695D01*
X99677352Y-136273695D01*
G37*
D13*
X99618718Y-136881282D03*
G04 #@! TD*
D12*
G04 #@! TO.C,C3*
G36*
X133177352Y-135773695D02*
X133200407Y-135777114D01*
X133223016Y-135782778D01*
X133244960Y-135790630D01*
X133266030Y-135800595D01*
X133286021Y-135812577D01*
X133304741Y-135826461D01*
X133322011Y-135842113D01*
X133657887Y-136177989D01*
X133673539Y-136195259D01*
X133687423Y-136213979D01*
X133699405Y-136233970D01*
X133709370Y-136255040D01*
X133717222Y-136276984D01*
X133722886Y-136299593D01*
X133726305Y-136322648D01*
X133727449Y-136345927D01*
X133726305Y-136369206D01*
X133722886Y-136392261D01*
X133717222Y-136414870D01*
X133709370Y-136436814D01*
X133699405Y-136457884D01*
X133687423Y-136477875D01*
X133673539Y-136496595D01*
X133657887Y-136513865D01*
X133251301Y-136920451D01*
X133234031Y-136936103D01*
X133215311Y-136949987D01*
X133195320Y-136961969D01*
X133174250Y-136971934D01*
X133152306Y-136979786D01*
X133129697Y-136985450D01*
X133106642Y-136988869D01*
X133083363Y-136990013D01*
X133060084Y-136988869D01*
X133037029Y-136985450D01*
X133014420Y-136979786D01*
X132992476Y-136971934D01*
X132971406Y-136961969D01*
X132951415Y-136949987D01*
X132932695Y-136936103D01*
X132915425Y-136920451D01*
X132579549Y-136584575D01*
X132563897Y-136567305D01*
X132550013Y-136548585D01*
X132538031Y-136528594D01*
X132528066Y-136507524D01*
X132520214Y-136485580D01*
X132514550Y-136462971D01*
X132511131Y-136439916D01*
X132509987Y-136416637D01*
X132511131Y-136393358D01*
X132514550Y-136370303D01*
X132520214Y-136347694D01*
X132528066Y-136325750D01*
X132538031Y-136304680D01*
X132550013Y-136284689D01*
X132563897Y-136265969D01*
X132579549Y-136248699D01*
X132986135Y-135842113D01*
X133003405Y-135826461D01*
X133022125Y-135812577D01*
X133042116Y-135800595D01*
X133063186Y-135790630D01*
X133085130Y-135782778D01*
X133107739Y-135777114D01*
X133130794Y-135773695D01*
X133154073Y-135772551D01*
X133177352Y-135773695D01*
X133177352Y-135773695D01*
G37*
D13*
X133118718Y-136381282D03*
D12*
G36*
X131939916Y-137011131D02*
X131962971Y-137014550D01*
X131985580Y-137020214D01*
X132007524Y-137028066D01*
X132028594Y-137038031D01*
X132048585Y-137050013D01*
X132067305Y-137063897D01*
X132084575Y-137079549D01*
X132420451Y-137415425D01*
X132436103Y-137432695D01*
X132449987Y-137451415D01*
X132461969Y-137471406D01*
X132471934Y-137492476D01*
X132479786Y-137514420D01*
X132485450Y-137537029D01*
X132488869Y-137560084D01*
X132490013Y-137583363D01*
X132488869Y-137606642D01*
X132485450Y-137629697D01*
X132479786Y-137652306D01*
X132471934Y-137674250D01*
X132461969Y-137695320D01*
X132449987Y-137715311D01*
X132436103Y-137734031D01*
X132420451Y-137751301D01*
X132013865Y-138157887D01*
X131996595Y-138173539D01*
X131977875Y-138187423D01*
X131957884Y-138199405D01*
X131936814Y-138209370D01*
X131914870Y-138217222D01*
X131892261Y-138222886D01*
X131869206Y-138226305D01*
X131845927Y-138227449D01*
X131822648Y-138226305D01*
X131799593Y-138222886D01*
X131776984Y-138217222D01*
X131755040Y-138209370D01*
X131733970Y-138199405D01*
X131713979Y-138187423D01*
X131695259Y-138173539D01*
X131677989Y-138157887D01*
X131342113Y-137822011D01*
X131326461Y-137804741D01*
X131312577Y-137786021D01*
X131300595Y-137766030D01*
X131290630Y-137744960D01*
X131282778Y-137723016D01*
X131277114Y-137700407D01*
X131273695Y-137677352D01*
X131272551Y-137654073D01*
X131273695Y-137630794D01*
X131277114Y-137607739D01*
X131282778Y-137585130D01*
X131290630Y-137563186D01*
X131300595Y-137542116D01*
X131312577Y-137522125D01*
X131326461Y-137503405D01*
X131342113Y-137486135D01*
X131748699Y-137079549D01*
X131765969Y-137063897D01*
X131784689Y-137050013D01*
X131804680Y-137038031D01*
X131825750Y-137028066D01*
X131847694Y-137020214D01*
X131870303Y-137014550D01*
X131893358Y-137011131D01*
X131916637Y-137009987D01*
X131939916Y-137011131D01*
X131939916Y-137011131D01*
G37*
D13*
X131881282Y-137618718D03*
G04 #@! TD*
D12*
G04 #@! TO.C,C4*
G36*
X164939916Y-137511131D02*
X164962971Y-137514550D01*
X164985580Y-137520214D01*
X165007524Y-137528066D01*
X165028594Y-137538031D01*
X165048585Y-137550013D01*
X165067305Y-137563897D01*
X165084575Y-137579549D01*
X165420451Y-137915425D01*
X165436103Y-137932695D01*
X165449987Y-137951415D01*
X165461969Y-137971406D01*
X165471934Y-137992476D01*
X165479786Y-138014420D01*
X165485450Y-138037029D01*
X165488869Y-138060084D01*
X165490013Y-138083363D01*
X165488869Y-138106642D01*
X165485450Y-138129697D01*
X165479786Y-138152306D01*
X165471934Y-138174250D01*
X165461969Y-138195320D01*
X165449987Y-138215311D01*
X165436103Y-138234031D01*
X165420451Y-138251301D01*
X165013865Y-138657887D01*
X164996595Y-138673539D01*
X164977875Y-138687423D01*
X164957884Y-138699405D01*
X164936814Y-138709370D01*
X164914870Y-138717222D01*
X164892261Y-138722886D01*
X164869206Y-138726305D01*
X164845927Y-138727449D01*
X164822648Y-138726305D01*
X164799593Y-138722886D01*
X164776984Y-138717222D01*
X164755040Y-138709370D01*
X164733970Y-138699405D01*
X164713979Y-138687423D01*
X164695259Y-138673539D01*
X164677989Y-138657887D01*
X164342113Y-138322011D01*
X164326461Y-138304741D01*
X164312577Y-138286021D01*
X164300595Y-138266030D01*
X164290630Y-138244960D01*
X164282778Y-138223016D01*
X164277114Y-138200407D01*
X164273695Y-138177352D01*
X164272551Y-138154073D01*
X164273695Y-138130794D01*
X164277114Y-138107739D01*
X164282778Y-138085130D01*
X164290630Y-138063186D01*
X164300595Y-138042116D01*
X164312577Y-138022125D01*
X164326461Y-138003405D01*
X164342113Y-137986135D01*
X164748699Y-137579549D01*
X164765969Y-137563897D01*
X164784689Y-137550013D01*
X164804680Y-137538031D01*
X164825750Y-137528066D01*
X164847694Y-137520214D01*
X164870303Y-137514550D01*
X164893358Y-137511131D01*
X164916637Y-137509987D01*
X164939916Y-137511131D01*
X164939916Y-137511131D01*
G37*
D13*
X164881282Y-138118718D03*
D12*
G36*
X166177352Y-136273695D02*
X166200407Y-136277114D01*
X166223016Y-136282778D01*
X166244960Y-136290630D01*
X166266030Y-136300595D01*
X166286021Y-136312577D01*
X166304741Y-136326461D01*
X166322011Y-136342113D01*
X166657887Y-136677989D01*
X166673539Y-136695259D01*
X166687423Y-136713979D01*
X166699405Y-136733970D01*
X166709370Y-136755040D01*
X166717222Y-136776984D01*
X166722886Y-136799593D01*
X166726305Y-136822648D01*
X166727449Y-136845927D01*
X166726305Y-136869206D01*
X166722886Y-136892261D01*
X166717222Y-136914870D01*
X166709370Y-136936814D01*
X166699405Y-136957884D01*
X166687423Y-136977875D01*
X166673539Y-136996595D01*
X166657887Y-137013865D01*
X166251301Y-137420451D01*
X166234031Y-137436103D01*
X166215311Y-137449987D01*
X166195320Y-137461969D01*
X166174250Y-137471934D01*
X166152306Y-137479786D01*
X166129697Y-137485450D01*
X166106642Y-137488869D01*
X166083363Y-137490013D01*
X166060084Y-137488869D01*
X166037029Y-137485450D01*
X166014420Y-137479786D01*
X165992476Y-137471934D01*
X165971406Y-137461969D01*
X165951415Y-137449987D01*
X165932695Y-137436103D01*
X165915425Y-137420451D01*
X165579549Y-137084575D01*
X165563897Y-137067305D01*
X165550013Y-137048585D01*
X165538031Y-137028594D01*
X165528066Y-137007524D01*
X165520214Y-136985580D01*
X165514550Y-136962971D01*
X165511131Y-136939916D01*
X165509987Y-136916637D01*
X165511131Y-136893358D01*
X165514550Y-136870303D01*
X165520214Y-136847694D01*
X165528066Y-136825750D01*
X165538031Y-136804680D01*
X165550013Y-136784689D01*
X165563897Y-136765969D01*
X165579549Y-136748699D01*
X165986135Y-136342113D01*
X166003405Y-136326461D01*
X166022125Y-136312577D01*
X166042116Y-136300595D01*
X166063186Y-136290630D01*
X166085130Y-136282778D01*
X166107739Y-136277114D01*
X166130794Y-136273695D01*
X166154073Y-136272551D01*
X166177352Y-136273695D01*
X166177352Y-136273695D01*
G37*
D13*
X166118718Y-136881282D03*
G04 #@! TD*
D12*
G04 #@! TO.C,C5*
G36*
X199177352Y-136273695D02*
X199200407Y-136277114D01*
X199223016Y-136282778D01*
X199244960Y-136290630D01*
X199266030Y-136300595D01*
X199286021Y-136312577D01*
X199304741Y-136326461D01*
X199322011Y-136342113D01*
X199657887Y-136677989D01*
X199673539Y-136695259D01*
X199687423Y-136713979D01*
X199699405Y-136733970D01*
X199709370Y-136755040D01*
X199717222Y-136776984D01*
X199722886Y-136799593D01*
X199726305Y-136822648D01*
X199727449Y-136845927D01*
X199726305Y-136869206D01*
X199722886Y-136892261D01*
X199717222Y-136914870D01*
X199709370Y-136936814D01*
X199699405Y-136957884D01*
X199687423Y-136977875D01*
X199673539Y-136996595D01*
X199657887Y-137013865D01*
X199251301Y-137420451D01*
X199234031Y-137436103D01*
X199215311Y-137449987D01*
X199195320Y-137461969D01*
X199174250Y-137471934D01*
X199152306Y-137479786D01*
X199129697Y-137485450D01*
X199106642Y-137488869D01*
X199083363Y-137490013D01*
X199060084Y-137488869D01*
X199037029Y-137485450D01*
X199014420Y-137479786D01*
X198992476Y-137471934D01*
X198971406Y-137461969D01*
X198951415Y-137449987D01*
X198932695Y-137436103D01*
X198915425Y-137420451D01*
X198579549Y-137084575D01*
X198563897Y-137067305D01*
X198550013Y-137048585D01*
X198538031Y-137028594D01*
X198528066Y-137007524D01*
X198520214Y-136985580D01*
X198514550Y-136962971D01*
X198511131Y-136939916D01*
X198509987Y-136916637D01*
X198511131Y-136893358D01*
X198514550Y-136870303D01*
X198520214Y-136847694D01*
X198528066Y-136825750D01*
X198538031Y-136804680D01*
X198550013Y-136784689D01*
X198563897Y-136765969D01*
X198579549Y-136748699D01*
X198986135Y-136342113D01*
X199003405Y-136326461D01*
X199022125Y-136312577D01*
X199042116Y-136300595D01*
X199063186Y-136290630D01*
X199085130Y-136282778D01*
X199107739Y-136277114D01*
X199130794Y-136273695D01*
X199154073Y-136272551D01*
X199177352Y-136273695D01*
X199177352Y-136273695D01*
G37*
D13*
X199118718Y-136881282D03*
D12*
G36*
X197939916Y-137511131D02*
X197962971Y-137514550D01*
X197985580Y-137520214D01*
X198007524Y-137528066D01*
X198028594Y-137538031D01*
X198048585Y-137550013D01*
X198067305Y-137563897D01*
X198084575Y-137579549D01*
X198420451Y-137915425D01*
X198436103Y-137932695D01*
X198449987Y-137951415D01*
X198461969Y-137971406D01*
X198471934Y-137992476D01*
X198479786Y-138014420D01*
X198485450Y-138037029D01*
X198488869Y-138060084D01*
X198490013Y-138083363D01*
X198488869Y-138106642D01*
X198485450Y-138129697D01*
X198479786Y-138152306D01*
X198471934Y-138174250D01*
X198461969Y-138195320D01*
X198449987Y-138215311D01*
X198436103Y-138234031D01*
X198420451Y-138251301D01*
X198013865Y-138657887D01*
X197996595Y-138673539D01*
X197977875Y-138687423D01*
X197957884Y-138699405D01*
X197936814Y-138709370D01*
X197914870Y-138717222D01*
X197892261Y-138722886D01*
X197869206Y-138726305D01*
X197845927Y-138727449D01*
X197822648Y-138726305D01*
X197799593Y-138722886D01*
X197776984Y-138717222D01*
X197755040Y-138709370D01*
X197733970Y-138699405D01*
X197713979Y-138687423D01*
X197695259Y-138673539D01*
X197677989Y-138657887D01*
X197342113Y-138322011D01*
X197326461Y-138304741D01*
X197312577Y-138286021D01*
X197300595Y-138266030D01*
X197290630Y-138244960D01*
X197282778Y-138223016D01*
X197277114Y-138200407D01*
X197273695Y-138177352D01*
X197272551Y-138154073D01*
X197273695Y-138130794D01*
X197277114Y-138107739D01*
X197282778Y-138085130D01*
X197290630Y-138063186D01*
X197300595Y-138042116D01*
X197312577Y-138022125D01*
X197326461Y-138003405D01*
X197342113Y-137986135D01*
X197748699Y-137579549D01*
X197765969Y-137563897D01*
X197784689Y-137550013D01*
X197804680Y-137538031D01*
X197825750Y-137528066D01*
X197847694Y-137520214D01*
X197870303Y-137514550D01*
X197893358Y-137511131D01*
X197916637Y-137509987D01*
X197939916Y-137511131D01*
X197939916Y-137511131D01*
G37*
D13*
X197881282Y-138118718D03*
G04 #@! TD*
D12*
G04 #@! TO.C,C6*
G36*
X231439916Y-137511131D02*
X231462971Y-137514550D01*
X231485580Y-137520214D01*
X231507524Y-137528066D01*
X231528594Y-137538031D01*
X231548585Y-137550013D01*
X231567305Y-137563897D01*
X231584575Y-137579549D01*
X231920451Y-137915425D01*
X231936103Y-137932695D01*
X231949987Y-137951415D01*
X231961969Y-137971406D01*
X231971934Y-137992476D01*
X231979786Y-138014420D01*
X231985450Y-138037029D01*
X231988869Y-138060084D01*
X231990013Y-138083363D01*
X231988869Y-138106642D01*
X231985450Y-138129697D01*
X231979786Y-138152306D01*
X231971934Y-138174250D01*
X231961969Y-138195320D01*
X231949987Y-138215311D01*
X231936103Y-138234031D01*
X231920451Y-138251301D01*
X231513865Y-138657887D01*
X231496595Y-138673539D01*
X231477875Y-138687423D01*
X231457884Y-138699405D01*
X231436814Y-138709370D01*
X231414870Y-138717222D01*
X231392261Y-138722886D01*
X231369206Y-138726305D01*
X231345927Y-138727449D01*
X231322648Y-138726305D01*
X231299593Y-138722886D01*
X231276984Y-138717222D01*
X231255040Y-138709370D01*
X231233970Y-138699405D01*
X231213979Y-138687423D01*
X231195259Y-138673539D01*
X231177989Y-138657887D01*
X230842113Y-138322011D01*
X230826461Y-138304741D01*
X230812577Y-138286021D01*
X230800595Y-138266030D01*
X230790630Y-138244960D01*
X230782778Y-138223016D01*
X230777114Y-138200407D01*
X230773695Y-138177352D01*
X230772551Y-138154073D01*
X230773695Y-138130794D01*
X230777114Y-138107739D01*
X230782778Y-138085130D01*
X230790630Y-138063186D01*
X230800595Y-138042116D01*
X230812577Y-138022125D01*
X230826461Y-138003405D01*
X230842113Y-137986135D01*
X231248699Y-137579549D01*
X231265969Y-137563897D01*
X231284689Y-137550013D01*
X231304680Y-137538031D01*
X231325750Y-137528066D01*
X231347694Y-137520214D01*
X231370303Y-137514550D01*
X231393358Y-137511131D01*
X231416637Y-137509987D01*
X231439916Y-137511131D01*
X231439916Y-137511131D01*
G37*
D13*
X231381282Y-138118718D03*
D12*
G36*
X232677352Y-136273695D02*
X232700407Y-136277114D01*
X232723016Y-136282778D01*
X232744960Y-136290630D01*
X232766030Y-136300595D01*
X232786021Y-136312577D01*
X232804741Y-136326461D01*
X232822011Y-136342113D01*
X233157887Y-136677989D01*
X233173539Y-136695259D01*
X233187423Y-136713979D01*
X233199405Y-136733970D01*
X233209370Y-136755040D01*
X233217222Y-136776984D01*
X233222886Y-136799593D01*
X233226305Y-136822648D01*
X233227449Y-136845927D01*
X233226305Y-136869206D01*
X233222886Y-136892261D01*
X233217222Y-136914870D01*
X233209370Y-136936814D01*
X233199405Y-136957884D01*
X233187423Y-136977875D01*
X233173539Y-136996595D01*
X233157887Y-137013865D01*
X232751301Y-137420451D01*
X232734031Y-137436103D01*
X232715311Y-137449987D01*
X232695320Y-137461969D01*
X232674250Y-137471934D01*
X232652306Y-137479786D01*
X232629697Y-137485450D01*
X232606642Y-137488869D01*
X232583363Y-137490013D01*
X232560084Y-137488869D01*
X232537029Y-137485450D01*
X232514420Y-137479786D01*
X232492476Y-137471934D01*
X232471406Y-137461969D01*
X232451415Y-137449987D01*
X232432695Y-137436103D01*
X232415425Y-137420451D01*
X232079549Y-137084575D01*
X232063897Y-137067305D01*
X232050013Y-137048585D01*
X232038031Y-137028594D01*
X232028066Y-137007524D01*
X232020214Y-136985580D01*
X232014550Y-136962971D01*
X232011131Y-136939916D01*
X232009987Y-136916637D01*
X232011131Y-136893358D01*
X232014550Y-136870303D01*
X232020214Y-136847694D01*
X232028066Y-136825750D01*
X232038031Y-136804680D01*
X232050013Y-136784689D01*
X232063897Y-136765969D01*
X232079549Y-136748699D01*
X232486135Y-136342113D01*
X232503405Y-136326461D01*
X232522125Y-136312577D01*
X232542116Y-136300595D01*
X232563186Y-136290630D01*
X232585130Y-136282778D01*
X232607739Y-136277114D01*
X232630794Y-136273695D01*
X232654073Y-136272551D01*
X232677352Y-136273695D01*
X232677352Y-136273695D01*
G37*
D13*
X232618718Y-136881282D03*
G04 #@! TD*
M02*
