M48
;DRILL file {KiCad 5.0.2-bee76a0~70~ubuntu18.04.1} date Mo 25 Mai 2020 20:10:35 CEST
;FORMAT={-:-/ absolute / metric / decimal}
FMAT,2
METRIC,TZ
T1C0.450
T2C0.750
T3C1.300
T4C1.321
%
G90
G05
T1
X45.Y-115.
X45.Y-120.
X45.Y-125.
X45.Y-130.
X45.Y-135.
X45.Y-140.
X48.Y-107.
X52.5Y-133.5
X53.Y-107.
X54.5Y-137.5
X57.5Y-116.25
X58.Y-107.
X60.5Y-116.2
X61.5Y-122.
X61.5Y-124.5
X61.5Y-130.
X61.5Y-140.
X62.5Y-145.
X63.Y-107.
X68.Y-107.
X68.5Y-132.5
X73.Y-103.
X73.Y-107.
X75.Y-97.
X75.054Y-117.499
X75.7Y-140.5
X76.3Y-136.5
X76.4Y-123.228
X77.4Y-144.
X77.5Y-113.5
X77.854Y-129.146
X79.5Y-96.
X79.5Y-113.5
X81.5Y-96.
X81.5Y-113.5
X82.5Y-136.
X83.Y-130.5
X83.Y-138.5
X83.5Y-96.
X83.5Y-113.5
X85.5Y-96.
X85.5Y-100.
X85.5Y-110.
X85.5Y-113.5
X85.5Y-129.
X85.5Y-134.5
X85.6Y-132.
X86.5Y-126.
X87.5Y-96.
X87.5Y-113.5
X88.Y-142.
X89.Y-124.5
X89.5Y-96.
X89.5Y-113.5
X90.Y-144.5
X91.Y-123.
X91.5Y-96.
X91.5Y-116.5
X91.89Y-146.8
X91.94Y-144.5
X92.7Y-116.
X93.5Y-96.
X94.2Y-117.8
X95.5Y-100.
X95.5Y-110.
X96.Y-139.5
X97.5Y-100.
X97.5Y-110.
X98.5Y-120.
X99.5Y-100.
X99.5Y-110.
X107.Y-103.
X107.Y-107.
X108.8Y-125.8
X110.5Y-135.5
X111.2Y-138.5
X112.Y-107.
X112.Y-120.5
X115.Y-137.5
X116.5Y-131.5
X117.Y-107.
X117.Y-107.
X117.Y-107.
X119.13Y-144.
X119.13Y-146.4
X122.Y-107.
X122.5Y-143.5
X125.Y-144.
X125.5Y-119.
X125.96Y-146.4
X126.5Y-141.
X127.Y-107.
X129.Y-139.5
X129.5Y-118.
X132.Y-107.
X133.5Y-128.
X134.5Y-121.
X136.5Y-123.
X137.Y-107.
X138.5Y-137.
X139.5Y-129.
X143.Y-107.
X148.Y-107.
X149.5Y-138.5
X152.5Y-135.
X153.Y-107.
X156.5Y-144.
X158.Y-107.
X158.64Y-144.5
X158.64Y-146.4
X160.Y-141.
X162.5Y-139.5
X163.Y-107.
X163.Y-118.
X165.Y-119.5
X167.5Y-128.
X168.Y-107.
X168.Y-120.5
X170.Y-123.
X172.5Y-128.
X173.Y-107.
X173.5Y-132.5
X174.5Y-129.5
X178.Y-103.
X178.Y-107.
X181.2Y-112.
X182.9Y-113.7
X183.Y-137.5
X183.Y-140.
X184.5Y-135.
X187.5Y-96.5
X187.5Y-110.
X188.Y-141.5
X189.Y-144.
X189.5Y-96.5
X189.5Y-110.
X190.Y-114.4
X190.5Y-123.
X191.5Y-96.5
X191.5Y-110.
X191.5Y-144.
X191.5Y-146.5
X192.Y-114.4
X193.Y-120.5
X193.5Y-96.5
X193.5Y-114.
X195.5Y-96.5
X195.5Y-114.
X197.5Y-96.5
X197.5Y-114.
X199.5Y-96.5
X199.5Y-100.
X199.5Y-110.
X199.5Y-114.
X201.5Y-96.5
X201.5Y-114.
X203.5Y-96.5
X203.5Y-114.
X203.5Y-122.5
X205.5Y-96.5
X205.5Y-114.
X205.5Y-135.5
X206.Y-124.5
X206.Y-132.5
X206.5Y-129.5
X207.5Y-96.5
X207.5Y-114.
X209.5Y-114.
X213.Y-103.
X213.Y-107.
X218.Y-107.
X218.Y-128.5
X218.Y-130.
X219.Y-132.5
X219.Y-134.5
X220.5Y-137.
X220.5Y-138.5
X221.Y-142.
X223.Y-107.
X224.5Y-144.
X225.5Y-120.
X225.5Y-122.
X225.5Y-124.5
X225.5Y-127.
X228.Y-107.
X230.Y-144.
X230.Y-146.5
X233.Y-107.
X238.Y-107.
X240.Y-115.
X240.Y-120.
X240.Y-125.
X240.Y-130.
X240.Y-135.
X240.Y-140.
T3
X138.Y-110.
X143.Y-110.
X148.Y-110.
T4
X115.783Y-128.155
X115.783Y-133.845
X118.628Y-123.228
X118.628Y-138.772
X123.53Y-133.87
X123.555Y-120.383
X123.555Y-141.617
X129.245Y-120.383
X129.245Y-141.617
X129.27Y-128.13
X134.172Y-123.228
X134.172Y-138.772
X137.017Y-128.155
X137.017Y-133.845
X182.183Y-128.155
X182.183Y-133.845
X185.028Y-123.228
X185.028Y-138.772
X189.93Y-133.87
X189.955Y-120.383
X189.955Y-141.617
X195.645Y-120.383
X195.645Y-141.617
X195.67Y-128.13
X200.572Y-123.228
X200.572Y-138.772
X203.417Y-128.155
X203.417Y-133.845
X148.983Y-128.155
X148.983Y-133.845
X151.828Y-123.228
X151.828Y-138.772
X156.73Y-133.87
X156.755Y-120.383
X156.755Y-141.617
X162.445Y-120.383
X162.445Y-141.617
X162.47Y-128.13
X167.372Y-123.228
X167.372Y-138.772
X170.217Y-128.155
X170.217Y-133.845
X49.383Y-128.155
X49.383Y-133.845
X52.228Y-123.228
X52.228Y-138.772
X57.13Y-133.87
X57.155Y-120.383
X57.155Y-141.617
X62.845Y-120.383
X62.845Y-141.617
X62.87Y-128.13
X67.772Y-123.228
X67.772Y-138.772
X70.617Y-128.155
X70.617Y-133.845
X215.383Y-128.155
X215.383Y-133.845
X218.228Y-123.228
X218.228Y-138.772
X223.13Y-133.87
X223.155Y-120.383
X223.155Y-141.617
X228.845Y-120.383
X228.845Y-141.617
X228.87Y-128.13
X233.772Y-123.228
X233.772Y-138.772
X236.617Y-128.155
X236.617Y-133.845
X82.583Y-128.155
X82.583Y-133.845
X85.428Y-123.228
X85.428Y-138.772
X90.33Y-133.87
X90.355Y-120.383
X90.355Y-141.617
X96.045Y-120.383
X96.045Y-141.617
X96.07Y-128.13
X100.972Y-123.228
X100.972Y-138.772
X103.817Y-128.155
X103.817Y-133.845
T2
X227.25Y-82.775G85X227.25Y-84.025
G05
X228.375Y-91.G85X227.125Y-91.
G05
X231.125Y-80.G85X232.375Y-80.
G05
X234.25Y-87.025G85X234.25Y-85.775
G05
X236.95Y-88.425G85X236.95Y-87.175
G05
X196.45Y-82.775G85X196.45Y-84.025
G05
X197.575Y-91.G85X196.325Y-91.
G05
X200.325Y-80.G85X201.575Y-80.
G05
X203.45Y-87.025G85X203.45Y-85.775
G05
X206.15Y-88.425G85X206.15Y-87.175
G05
X95.45Y-82.775G85X95.45Y-84.025
G05
X96.575Y-91.G85X95.325Y-91.
G05
X99.325Y-80.G85X100.575Y-80.
G05
X102.45Y-87.025G85X102.45Y-85.775
G05
X105.15Y-88.425G85X105.15Y-87.175
G05
X165.65Y-82.775G85X165.65Y-84.025
G05
X166.775Y-91.G85X165.525Y-91.
G05
X169.525Y-80.G85X170.775Y-80.
G05
X172.65Y-87.025G85X172.65Y-85.775
G05
X175.35Y-88.425G85X175.35Y-87.175
G05
X64.65Y-82.775G85X64.65Y-84.025
G05
X65.775Y-91.G85X64.525Y-91.
G05
X68.525Y-80.G85X69.775Y-80.
G05
X71.65Y-87.025G85X71.65Y-85.775
G05
X74.35Y-88.425G85X74.35Y-87.175
G05
X126.25Y-82.775G85X126.25Y-84.025
G05
X127.375Y-91.G85X126.125Y-91.
G05
X130.125Y-80.G85X131.375Y-80.
G05
X133.25Y-87.025G85X133.25Y-85.775
G05
X135.95Y-88.425G85X135.95Y-87.175
G05
X49.25Y-82.775G85X49.25Y-84.025
G05
X50.375Y-91.G85X49.125Y-91.
G05
X53.125Y-80.G85X54.375Y-80.
G05
X56.25Y-87.025G85X56.25Y-85.775
G05
X58.95Y-88.425G85X58.95Y-87.175
G05
X110.85Y-82.775G85X110.85Y-84.025
G05
X111.975Y-91.G85X110.725Y-91.
G05
X114.725Y-80.G85X115.975Y-80.
G05
X117.85Y-87.025G85X117.85Y-85.775
G05
X120.55Y-88.425G85X120.55Y-87.175
G05
X211.85Y-82.775G85X211.85Y-84.025
G05
X212.975Y-91.G85X211.725Y-91.
G05
X215.725Y-80.G85X216.975Y-80.
G05
X218.85Y-87.025G85X218.85Y-85.775
G05
X221.55Y-88.425G85X221.55Y-87.175
G05
X181.05Y-82.775G85X181.05Y-84.025
G05
X182.175Y-91.G85X180.925Y-91.
G05
X184.925Y-80.G85X186.175Y-80.
G05
X188.05Y-87.025G85X188.05Y-85.775
G05
X190.75Y-88.425G85X190.75Y-87.175
G05
X150.25Y-82.775G85X150.25Y-84.025
G05
X151.375Y-91.G85X150.125Y-91.
G05
X154.125Y-80.G85X155.375Y-80.
G05
X157.25Y-87.025G85X157.25Y-85.775
G05
X159.95Y-88.425G85X159.95Y-87.175
G05
X80.05Y-82.775G85X80.05Y-84.025
G05
X81.175Y-91.G85X79.925Y-91.
G05
X83.925Y-80.G85X85.175Y-80.
G05
X87.05Y-87.025G85X87.05Y-85.775
G05
X89.75Y-88.425G85X89.75Y-87.175
G05
T0
M30
