G04 #@! TF.GenerationSoftware,KiCad,Pcbnew,5.0.2-bee76a0~70~ubuntu18.04.1*
G04 #@! TF.CreationDate,2020-05-25T20:10:50+02:00*
G04 #@! TF.ProjectId,AB-AudioMatrix-6x6,41422d41-7564-4696-9f4d-61747269782d,v3.4*
G04 #@! TF.SameCoordinates,Original*
G04 #@! TF.FileFunction,Legend,Bot*
G04 #@! TF.FilePolarity,Positive*
%FSLAX46Y46*%
G04 Gerber Fmt 4.6, Leading zero omitted, Abs format (unit mm)*
G04 Created by KiCad (PCBNEW 5.0.2-bee76a0~70~ubuntu18.04.1) date Mo 25 Mai 2020 20:10:50 CEST*
%MOMM*%
%LPD*%
G01*
G04 APERTURE LIST*
%ADD10C,0.200000*%
%ADD11C,0.120000*%
%ADD12C,0.150000*%
G04 APERTURE END LIST*
D10*
G04 #@! TO.C,J14*
X102000000Y-102100000D02*
X102000000Y-104000000D01*
X102000000Y-104000000D02*
X74000000Y-104000000D01*
X74000000Y-104000000D02*
X74000000Y-102100000D01*
X101300000Y-99000000D02*
X100100000Y-99000000D01*
X75900000Y-99000000D02*
X74700000Y-99000000D01*
X100400000Y-98500000D02*
G75*
G03X100400000Y-98500000I-100000J0D01*
G01*
G04 #@! TO.C,J16*
X184000000Y-108004157D02*
X184000000Y-106104157D01*
X184000000Y-106104157D02*
X212000000Y-106104157D01*
X212000000Y-106104157D02*
X212000000Y-108004157D01*
X184700000Y-111104157D02*
X185900000Y-111104157D01*
X210100000Y-111104157D02*
X211300000Y-111104157D01*
X185800000Y-111604157D02*
G75*
G03X185800000Y-111604157I-100000J0D01*
G01*
G04 #@! TO.C,J13*
X74000000Y-107900000D02*
X74000000Y-106000000D01*
X74000000Y-106000000D02*
X102000000Y-106000000D01*
X102000000Y-106000000D02*
X102000000Y-107900000D01*
X74700000Y-111000000D02*
X75900000Y-111000000D01*
X100100000Y-111000000D02*
X101300000Y-111000000D01*
X75800000Y-111500000D02*
G75*
G03X75800000Y-111500000I-100000J0D01*
G01*
G04 #@! TO.C,J17*
X212000000Y-102204157D02*
X212000000Y-104104157D01*
X212000000Y-104104157D02*
X184000000Y-104104157D01*
X184000000Y-104104157D02*
X184000000Y-102204157D01*
X211300000Y-99104157D02*
X210100000Y-99104157D01*
X185900000Y-99104157D02*
X184700000Y-99104157D01*
X210400000Y-98604157D02*
G75*
G03X210400000Y-98604157I-100000J0D01*
G01*
D11*
G04 #@! TO.C,R1*
X58548500Y-83171267D02*
X58548500Y-82828733D01*
X59568500Y-83171267D02*
X59568500Y-82828733D01*
G04 #@! TO.C,R2*
X73948500Y-83171267D02*
X73948500Y-82828733D01*
X74968500Y-83171267D02*
X74968500Y-82828733D01*
G04 #@! TO.C,R3*
X89348500Y-83171267D02*
X89348500Y-82828733D01*
X90368500Y-83171267D02*
X90368500Y-82828733D01*
G04 #@! TO.C,R4*
X104748500Y-83171267D02*
X104748500Y-82828733D01*
X105768500Y-83171267D02*
X105768500Y-82828733D01*
G04 #@! TO.C,R5*
X120148500Y-83171267D02*
X120148500Y-82828733D01*
X121168500Y-83171267D02*
X121168500Y-82828733D01*
G04 #@! TO.C,R6*
X135548500Y-83171267D02*
X135548500Y-82828733D01*
X136568500Y-83171267D02*
X136568500Y-82828733D01*
G04 #@! TO.C,R7*
X51548500Y-83171267D02*
X51548500Y-82828733D01*
X52568500Y-83171267D02*
X52568500Y-82828733D01*
G04 #@! TO.C,R8*
X66948500Y-83171267D02*
X66948500Y-82828733D01*
X67968500Y-83171267D02*
X67968500Y-82828733D01*
G04 #@! TO.C,R9*
X82348500Y-83171267D02*
X82348500Y-82828733D01*
X83368500Y-83171267D02*
X83368500Y-82828733D01*
G04 #@! TO.C,R10*
X97748500Y-83171267D02*
X97748500Y-82828733D01*
X98768500Y-83171267D02*
X98768500Y-82828733D01*
G04 #@! TO.C,R11*
X113148500Y-83171267D02*
X113148500Y-82828733D01*
X114168500Y-83171267D02*
X114168500Y-82828733D01*
G04 #@! TO.C,R12*
X128548500Y-83171267D02*
X128548500Y-82828733D01*
X129568500Y-83171267D02*
X129568500Y-82828733D01*
G04 #@! TO.C,R13*
X153568500Y-82828733D02*
X153568500Y-83171267D01*
X152548500Y-82828733D02*
X152548500Y-83171267D01*
G04 #@! TO.C,R14*
X168968500Y-82828733D02*
X168968500Y-83171267D01*
X167948500Y-82828733D02*
X167948500Y-83171267D01*
G04 #@! TO.C,R15*
X184368500Y-82828733D02*
X184368500Y-83171267D01*
X183348500Y-82828733D02*
X183348500Y-83171267D01*
G04 #@! TO.C,R16*
X199768500Y-82828733D02*
X199768500Y-83171267D01*
X198748500Y-82828733D02*
X198748500Y-83171267D01*
G04 #@! TO.C,R17*
X215168500Y-82828733D02*
X215168500Y-83171267D01*
X214148500Y-82828733D02*
X214148500Y-83171267D01*
G04 #@! TO.C,R18*
X230568500Y-82828733D02*
X230568500Y-83171267D01*
X229548500Y-82828733D02*
X229548500Y-83171267D01*
G04 #@! TO.C,R19*
X160568500Y-82828733D02*
X160568500Y-83171267D01*
X159548500Y-82828733D02*
X159548500Y-83171267D01*
G04 #@! TO.C,R20*
X175968500Y-82828733D02*
X175968500Y-83171267D01*
X174948500Y-82828733D02*
X174948500Y-83171267D01*
G04 #@! TO.C,R21*
X191368500Y-82828733D02*
X191368500Y-83171267D01*
X190348500Y-82828733D02*
X190348500Y-83171267D01*
G04 #@! TO.C,R22*
X206768500Y-82828733D02*
X206768500Y-83171267D01*
X205748500Y-82828733D02*
X205748500Y-83171267D01*
G04 #@! TO.C,R23*
X222168500Y-82828733D02*
X222168500Y-83171267D01*
X221148500Y-82828733D02*
X221148500Y-83171267D01*
G04 #@! TO.C,R24*
X237568500Y-82828733D02*
X237568500Y-83171267D01*
X236548500Y-82828733D02*
X236548500Y-83171267D01*
D12*
G04 #@! TO.C,U1*
X63818198Y-137752691D02*
X62828249Y-138742641D01*
X60211953Y-134146447D02*
X63146447Y-131211953D01*
X63853553Y-137788047D02*
X66788047Y-134853553D01*
X60211953Y-134146447D02*
X60314484Y-134248977D01*
X63146447Y-131211953D02*
X63248977Y-131314484D01*
X66788047Y-134853553D02*
X66685516Y-134751023D01*
X63853553Y-137788047D02*
X63818198Y-137752691D01*
G04 #@! TO.C,U2*
X97018198Y-137752691D02*
X96028249Y-138742641D01*
X93411953Y-134146447D02*
X96346447Y-131211953D01*
X97053553Y-137788047D02*
X99988047Y-134853553D01*
X93411953Y-134146447D02*
X93514484Y-134248977D01*
X96346447Y-131211953D02*
X96448977Y-131314484D01*
X99988047Y-134853553D02*
X99885516Y-134751023D01*
X97053553Y-137788047D02*
X97018198Y-137752691D01*
G04 #@! TO.C,U3*
X130218198Y-137752691D02*
X129228249Y-138742641D01*
X126611953Y-134146447D02*
X129546447Y-131211953D01*
X130253553Y-137788047D02*
X133188047Y-134853553D01*
X126611953Y-134146447D02*
X126714484Y-134248977D01*
X129546447Y-131211953D02*
X129648977Y-131314484D01*
X133188047Y-134853553D02*
X133085516Y-134751023D01*
X130253553Y-137788047D02*
X130218198Y-137752691D01*
G04 #@! TO.C,U4*
X163418198Y-137752691D02*
X162428249Y-138742641D01*
X159811953Y-134146447D02*
X162746447Y-131211953D01*
X163453553Y-137788047D02*
X166388047Y-134853553D01*
X159811953Y-134146447D02*
X159914484Y-134248977D01*
X162746447Y-131211953D02*
X162848977Y-131314484D01*
X166388047Y-134853553D02*
X166285516Y-134751023D01*
X163453553Y-137788047D02*
X163418198Y-137752691D01*
G04 #@! TO.C,U5*
X196618198Y-137752691D02*
X195628249Y-138742641D01*
X193011953Y-134146447D02*
X195946447Y-131211953D01*
X196653553Y-137788047D02*
X199588047Y-134853553D01*
X193011953Y-134146447D02*
X193114484Y-134248977D01*
X195946447Y-131211953D02*
X196048977Y-131314484D01*
X199588047Y-134853553D02*
X199485516Y-134751023D01*
X196653553Y-137788047D02*
X196618198Y-137752691D01*
G04 #@! TO.C,U6*
X229818198Y-137752691D02*
X228828249Y-138742641D01*
X226211953Y-134146447D02*
X229146447Y-131211953D01*
X229853553Y-137788047D02*
X232788047Y-134853553D01*
X226211953Y-134146447D02*
X226314484Y-134248977D01*
X229146447Y-131211953D02*
X229248977Y-131314484D01*
X232788047Y-134853553D02*
X232685516Y-134751023D01*
X229853553Y-137788047D02*
X229818198Y-137752691D01*
D11*
G04 #@! TO.C,JP1*
X149015621Y-119875715D02*
X149015621Y-117075715D01*
X149015621Y-117075715D02*
X147015621Y-117075715D01*
X147015621Y-117075715D02*
X147015621Y-119875715D01*
X147015621Y-119875715D02*
X149015621Y-119875715D01*
G04 #@! TO.C,R25*
X141186888Y-113985715D02*
X140844354Y-113985715D01*
X141186888Y-112965715D02*
X140844354Y-112965715D01*
G04 #@! TO.C,R26*
X145186888Y-113985715D02*
X144844354Y-113985715D01*
X145186888Y-112965715D02*
X144844354Y-112965715D01*
D12*
G04 #@! TO.C,U7*
X140490621Y-117400715D02*
X140490621Y-116000715D01*
X145590621Y-117400715D02*
X145590621Y-121550715D01*
X140440621Y-117400715D02*
X140440621Y-121550715D01*
X145590621Y-117400715D02*
X145445621Y-117400715D01*
X145590621Y-121550715D02*
X145445621Y-121550715D01*
X140440621Y-121550715D02*
X140585621Y-121550715D01*
X140440621Y-117400715D02*
X140490621Y-117400715D01*
D11*
G04 #@! TO.C,C1*
X65760480Y-137018271D02*
X65518271Y-137260480D01*
X66481729Y-137739520D02*
X66239520Y-137981729D01*
G04 #@! TO.C,C2*
X99481729Y-137739520D02*
X99239520Y-137981729D01*
X98760480Y-137018271D02*
X98518271Y-137260480D01*
G04 #@! TO.C,C3*
X132260480Y-136518271D02*
X132018271Y-136760480D01*
X132981729Y-137239520D02*
X132739520Y-137481729D01*
G04 #@! TO.C,C4*
X165981729Y-137739520D02*
X165739520Y-137981729D01*
X165260480Y-137018271D02*
X165018271Y-137260480D01*
G04 #@! TO.C,C5*
X198260480Y-137018271D02*
X198018271Y-137260480D01*
X198981729Y-137739520D02*
X198739520Y-137981729D01*
G04 #@! TO.C,C6*
X232481729Y-137739520D02*
X232239520Y-137981729D01*
X231760480Y-137018271D02*
X231518271Y-137260480D01*
G04 #@! TO.C,J14*
D12*
X74378690Y-96952380D02*
X74378690Y-97666666D01*
X74426309Y-97809523D01*
X74521547Y-97904761D01*
X74664404Y-97952380D01*
X74759642Y-97952380D01*
X73378690Y-97952380D02*
X73950119Y-97952380D01*
X73664404Y-97952380D02*
X73664404Y-96952380D01*
X73759642Y-97095238D01*
X73854880Y-97190476D01*
X73950119Y-97238095D01*
X72521547Y-97285714D02*
X72521547Y-97952380D01*
X72759642Y-96904761D02*
X72997738Y-97619047D01*
X72378690Y-97619047D01*
G04 #@! TO.C,J16*
X184378690Y-111952380D02*
X184378690Y-112666666D01*
X184426309Y-112809523D01*
X184521547Y-112904761D01*
X184664404Y-112952380D01*
X184759642Y-112952380D01*
X183378690Y-112952380D02*
X183950119Y-112952380D01*
X183664404Y-112952380D02*
X183664404Y-111952380D01*
X183759642Y-112095238D01*
X183854880Y-112190476D01*
X183950119Y-112238095D01*
X182521547Y-111952380D02*
X182712023Y-111952380D01*
X182807261Y-112000000D01*
X182854880Y-112047619D01*
X182950119Y-112190476D01*
X182997738Y-112380952D01*
X182997738Y-112761904D01*
X182950119Y-112857142D01*
X182902500Y-112904761D01*
X182807261Y-112952380D01*
X182616785Y-112952380D01*
X182521547Y-112904761D01*
X182473928Y-112857142D01*
X182426309Y-112761904D01*
X182426309Y-112523809D01*
X182473928Y-112428571D01*
X182521547Y-112380952D01*
X182616785Y-112333333D01*
X182807261Y-112333333D01*
X182902500Y-112380952D01*
X182950119Y-112428571D01*
X182997738Y-112523809D01*
G04 #@! TO.C,J13*
X74378690Y-107873139D02*
X74378690Y-108587425D01*
X74426309Y-108730282D01*
X74521547Y-108825520D01*
X74664404Y-108873139D01*
X74759642Y-108873139D01*
X73378690Y-108873139D02*
X73950119Y-108873139D01*
X73664404Y-108873139D02*
X73664404Y-107873139D01*
X73759642Y-108015997D01*
X73854880Y-108111235D01*
X73950119Y-108158854D01*
X73045357Y-107873139D02*
X72426309Y-107873139D01*
X72759642Y-108254092D01*
X72616785Y-108254092D01*
X72521547Y-108301711D01*
X72473928Y-108349330D01*
X72426309Y-108444568D01*
X72426309Y-108682663D01*
X72473928Y-108777901D01*
X72521547Y-108825520D01*
X72616785Y-108873139D01*
X72902500Y-108873139D01*
X72997738Y-108825520D01*
X73045357Y-108777901D01*
G04 #@! TO.C,J17*
X184378690Y-96952380D02*
X184378690Y-97666666D01*
X184426309Y-97809523D01*
X184521547Y-97904761D01*
X184664404Y-97952380D01*
X184759642Y-97952380D01*
X183378690Y-97952380D02*
X183950119Y-97952380D01*
X183664404Y-97952380D02*
X183664404Y-96952380D01*
X183759642Y-97095238D01*
X183854880Y-97190476D01*
X183950119Y-97238095D01*
X183045357Y-96952380D02*
X182378690Y-96952380D01*
X182807261Y-97952380D01*
G04 #@! TO.C,R1*
X61202380Y-82833333D02*
X60726190Y-82500000D01*
X61202380Y-82261904D02*
X60202380Y-82261904D01*
X60202380Y-82642857D01*
X60250000Y-82738095D01*
X60297619Y-82785714D01*
X60392857Y-82833333D01*
X60535714Y-82833333D01*
X60630952Y-82785714D01*
X60678571Y-82738095D01*
X60726190Y-82642857D01*
X60726190Y-82261904D01*
X61202380Y-83785714D02*
X61202380Y-83214285D01*
X61202380Y-83500000D02*
X60202380Y-83500000D01*
X60345238Y-83404761D01*
X60440476Y-83309523D01*
X60488095Y-83214285D01*
G04 #@! TO.C,R2*
X76702380Y-82833333D02*
X76226190Y-82500000D01*
X76702380Y-82261904D02*
X75702380Y-82261904D01*
X75702380Y-82642857D01*
X75750000Y-82738095D01*
X75797619Y-82785714D01*
X75892857Y-82833333D01*
X76035714Y-82833333D01*
X76130952Y-82785714D01*
X76178571Y-82738095D01*
X76226190Y-82642857D01*
X76226190Y-82261904D01*
X75797619Y-83214285D02*
X75750000Y-83261904D01*
X75702380Y-83357142D01*
X75702380Y-83595238D01*
X75750000Y-83690476D01*
X75797619Y-83738095D01*
X75892857Y-83785714D01*
X75988095Y-83785714D01*
X76130952Y-83738095D01*
X76702380Y-83166666D01*
X76702380Y-83785714D01*
G04 #@! TO.C,R3*
X91952380Y-82833333D02*
X91476190Y-82500000D01*
X91952380Y-82261904D02*
X90952380Y-82261904D01*
X90952380Y-82642857D01*
X91000000Y-82738095D01*
X91047619Y-82785714D01*
X91142857Y-82833333D01*
X91285714Y-82833333D01*
X91380952Y-82785714D01*
X91428571Y-82738095D01*
X91476190Y-82642857D01*
X91476190Y-82261904D01*
X90952380Y-83166666D02*
X90952380Y-83785714D01*
X91333333Y-83452380D01*
X91333333Y-83595238D01*
X91380952Y-83690476D01*
X91428571Y-83738095D01*
X91523809Y-83785714D01*
X91761904Y-83785714D01*
X91857142Y-83738095D01*
X91904761Y-83690476D01*
X91952380Y-83595238D01*
X91952380Y-83309523D01*
X91904761Y-83214285D01*
X91857142Y-83166666D01*
G04 #@! TO.C,R4*
X107452380Y-82833333D02*
X106976190Y-82500000D01*
X107452380Y-82261904D02*
X106452380Y-82261904D01*
X106452380Y-82642857D01*
X106500000Y-82738095D01*
X106547619Y-82785714D01*
X106642857Y-82833333D01*
X106785714Y-82833333D01*
X106880952Y-82785714D01*
X106928571Y-82738095D01*
X106976190Y-82642857D01*
X106976190Y-82261904D01*
X106785714Y-83690476D02*
X107452380Y-83690476D01*
X106404761Y-83452380D02*
X107119047Y-83214285D01*
X107119047Y-83833333D01*
G04 #@! TO.C,R5*
X122702380Y-82833333D02*
X122226190Y-82500000D01*
X122702380Y-82261904D02*
X121702380Y-82261904D01*
X121702380Y-82642857D01*
X121750000Y-82738095D01*
X121797619Y-82785714D01*
X121892857Y-82833333D01*
X122035714Y-82833333D01*
X122130952Y-82785714D01*
X122178571Y-82738095D01*
X122226190Y-82642857D01*
X122226190Y-82261904D01*
X121702380Y-83738095D02*
X121702380Y-83261904D01*
X122178571Y-83214285D01*
X122130952Y-83261904D01*
X122083333Y-83357142D01*
X122083333Y-83595238D01*
X122130952Y-83690476D01*
X122178571Y-83738095D01*
X122273809Y-83785714D01*
X122511904Y-83785714D01*
X122607142Y-83738095D01*
X122654761Y-83690476D01*
X122702380Y-83595238D01*
X122702380Y-83357142D01*
X122654761Y-83261904D01*
X122607142Y-83214285D01*
G04 #@! TO.C,R6*
X138202380Y-82833333D02*
X137726190Y-82500000D01*
X138202380Y-82261904D02*
X137202380Y-82261904D01*
X137202380Y-82642857D01*
X137250000Y-82738095D01*
X137297619Y-82785714D01*
X137392857Y-82833333D01*
X137535714Y-82833333D01*
X137630952Y-82785714D01*
X137678571Y-82738095D01*
X137726190Y-82642857D01*
X137726190Y-82261904D01*
X137202380Y-83690476D02*
X137202380Y-83500000D01*
X137250000Y-83404761D01*
X137297619Y-83357142D01*
X137440476Y-83261904D01*
X137630952Y-83214285D01*
X138011904Y-83214285D01*
X138107142Y-83261904D01*
X138154761Y-83309523D01*
X138202380Y-83404761D01*
X138202380Y-83595238D01*
X138154761Y-83690476D01*
X138107142Y-83738095D01*
X138011904Y-83785714D01*
X137773809Y-83785714D01*
X137678571Y-83738095D01*
X137630952Y-83690476D01*
X137583333Y-83595238D01*
X137583333Y-83404761D01*
X137630952Y-83309523D01*
X137678571Y-83261904D01*
X137773809Y-83214285D01*
G04 #@! TO.C,R7*
X54202380Y-82833333D02*
X53726190Y-82500000D01*
X54202380Y-82261904D02*
X53202380Y-82261904D01*
X53202380Y-82642857D01*
X53250000Y-82738095D01*
X53297619Y-82785714D01*
X53392857Y-82833333D01*
X53535714Y-82833333D01*
X53630952Y-82785714D01*
X53678571Y-82738095D01*
X53726190Y-82642857D01*
X53726190Y-82261904D01*
X53202380Y-83166666D02*
X53202380Y-83833333D01*
X54202380Y-83404761D01*
G04 #@! TO.C,R8*
X69702380Y-82833333D02*
X69226190Y-82500000D01*
X69702380Y-82261904D02*
X68702380Y-82261904D01*
X68702380Y-82642857D01*
X68750000Y-82738095D01*
X68797619Y-82785714D01*
X68892857Y-82833333D01*
X69035714Y-82833333D01*
X69130952Y-82785714D01*
X69178571Y-82738095D01*
X69226190Y-82642857D01*
X69226190Y-82261904D01*
X69130952Y-83404761D02*
X69083333Y-83309523D01*
X69035714Y-83261904D01*
X68940476Y-83214285D01*
X68892857Y-83214285D01*
X68797619Y-83261904D01*
X68750000Y-83309523D01*
X68702380Y-83404761D01*
X68702380Y-83595238D01*
X68750000Y-83690476D01*
X68797619Y-83738095D01*
X68892857Y-83785714D01*
X68940476Y-83785714D01*
X69035714Y-83738095D01*
X69083333Y-83690476D01*
X69130952Y-83595238D01*
X69130952Y-83404761D01*
X69178571Y-83309523D01*
X69226190Y-83261904D01*
X69321428Y-83214285D01*
X69511904Y-83214285D01*
X69607142Y-83261904D01*
X69654761Y-83309523D01*
X69702380Y-83404761D01*
X69702380Y-83595238D01*
X69654761Y-83690476D01*
X69607142Y-83738095D01*
X69511904Y-83785714D01*
X69321428Y-83785714D01*
X69226190Y-83738095D01*
X69178571Y-83690476D01*
X69130952Y-83595238D01*
G04 #@! TO.C,R9*
X84952380Y-82833333D02*
X84476190Y-82500000D01*
X84952380Y-82261904D02*
X83952380Y-82261904D01*
X83952380Y-82642857D01*
X84000000Y-82738095D01*
X84047619Y-82785714D01*
X84142857Y-82833333D01*
X84285714Y-82833333D01*
X84380952Y-82785714D01*
X84428571Y-82738095D01*
X84476190Y-82642857D01*
X84476190Y-82261904D01*
X84952380Y-83309523D02*
X84952380Y-83500000D01*
X84904761Y-83595238D01*
X84857142Y-83642857D01*
X84714285Y-83738095D01*
X84523809Y-83785714D01*
X84142857Y-83785714D01*
X84047619Y-83738095D01*
X84000000Y-83690476D01*
X83952380Y-83595238D01*
X83952380Y-83404761D01*
X84000000Y-83309523D01*
X84047619Y-83261904D01*
X84142857Y-83214285D01*
X84380952Y-83214285D01*
X84476190Y-83261904D01*
X84523809Y-83309523D01*
X84571428Y-83404761D01*
X84571428Y-83595238D01*
X84523809Y-83690476D01*
X84476190Y-83738095D01*
X84380952Y-83785714D01*
G04 #@! TO.C,R10*
X100452380Y-82357142D02*
X99976190Y-82023809D01*
X100452380Y-81785714D02*
X99452380Y-81785714D01*
X99452380Y-82166666D01*
X99500000Y-82261904D01*
X99547619Y-82309523D01*
X99642857Y-82357142D01*
X99785714Y-82357142D01*
X99880952Y-82309523D01*
X99928571Y-82261904D01*
X99976190Y-82166666D01*
X99976190Y-81785714D01*
X100452380Y-83309523D02*
X100452380Y-82738095D01*
X100452380Y-83023809D02*
X99452380Y-83023809D01*
X99595238Y-82928571D01*
X99690476Y-82833333D01*
X99738095Y-82738095D01*
X99452380Y-83928571D02*
X99452380Y-84023809D01*
X99500000Y-84119047D01*
X99547619Y-84166666D01*
X99642857Y-84214285D01*
X99833333Y-84261904D01*
X100071428Y-84261904D01*
X100261904Y-84214285D01*
X100357142Y-84166666D01*
X100404761Y-84119047D01*
X100452380Y-84023809D01*
X100452380Y-83928571D01*
X100404761Y-83833333D01*
X100357142Y-83785714D01*
X100261904Y-83738095D01*
X100071428Y-83690476D01*
X99833333Y-83690476D01*
X99642857Y-83738095D01*
X99547619Y-83785714D01*
X99500000Y-83833333D01*
X99452380Y-83928571D01*
G04 #@! TO.C,R11*
X115702380Y-82357142D02*
X115226190Y-82023809D01*
X115702380Y-81785714D02*
X114702380Y-81785714D01*
X114702380Y-82166666D01*
X114750000Y-82261904D01*
X114797619Y-82309523D01*
X114892857Y-82357142D01*
X115035714Y-82357142D01*
X115130952Y-82309523D01*
X115178571Y-82261904D01*
X115226190Y-82166666D01*
X115226190Y-81785714D01*
X115702380Y-83309523D02*
X115702380Y-82738095D01*
X115702380Y-83023809D02*
X114702380Y-83023809D01*
X114845238Y-82928571D01*
X114940476Y-82833333D01*
X114988095Y-82738095D01*
X115702380Y-84261904D02*
X115702380Y-83690476D01*
X115702380Y-83976190D02*
X114702380Y-83976190D01*
X114845238Y-83880952D01*
X114940476Y-83785714D01*
X114988095Y-83690476D01*
G04 #@! TO.C,R12*
X131202380Y-82357142D02*
X130726190Y-82023809D01*
X131202380Y-81785714D02*
X130202380Y-81785714D01*
X130202380Y-82166666D01*
X130250000Y-82261904D01*
X130297619Y-82309523D01*
X130392857Y-82357142D01*
X130535714Y-82357142D01*
X130630952Y-82309523D01*
X130678571Y-82261904D01*
X130726190Y-82166666D01*
X130726190Y-81785714D01*
X131202380Y-83309523D02*
X131202380Y-82738095D01*
X131202380Y-83023809D02*
X130202380Y-83023809D01*
X130345238Y-82928571D01*
X130440476Y-82833333D01*
X130488095Y-82738095D01*
X130297619Y-83690476D02*
X130250000Y-83738095D01*
X130202380Y-83833333D01*
X130202380Y-84071428D01*
X130250000Y-84166666D01*
X130297619Y-84214285D01*
X130392857Y-84261904D01*
X130488095Y-84261904D01*
X130630952Y-84214285D01*
X131202380Y-83642857D01*
X131202380Y-84261904D01*
G04 #@! TO.C,R13*
X155202380Y-82357142D02*
X154726190Y-82023809D01*
X155202380Y-81785714D02*
X154202380Y-81785714D01*
X154202380Y-82166666D01*
X154250000Y-82261904D01*
X154297619Y-82309523D01*
X154392857Y-82357142D01*
X154535714Y-82357142D01*
X154630952Y-82309523D01*
X154678571Y-82261904D01*
X154726190Y-82166666D01*
X154726190Y-81785714D01*
X155202380Y-83309523D02*
X155202380Y-82738095D01*
X155202380Y-83023809D02*
X154202380Y-83023809D01*
X154345238Y-82928571D01*
X154440476Y-82833333D01*
X154488095Y-82738095D01*
X154202380Y-83642857D02*
X154202380Y-84261904D01*
X154583333Y-83928571D01*
X154583333Y-84071428D01*
X154630952Y-84166666D01*
X154678571Y-84214285D01*
X154773809Y-84261904D01*
X155011904Y-84261904D01*
X155107142Y-84214285D01*
X155154761Y-84166666D01*
X155202380Y-84071428D01*
X155202380Y-83785714D01*
X155154761Y-83690476D01*
X155107142Y-83642857D01*
G04 #@! TO.C,R14*
X170452380Y-82357142D02*
X169976190Y-82023809D01*
X170452380Y-81785714D02*
X169452380Y-81785714D01*
X169452380Y-82166666D01*
X169500000Y-82261904D01*
X169547619Y-82309523D01*
X169642857Y-82357142D01*
X169785714Y-82357142D01*
X169880952Y-82309523D01*
X169928571Y-82261904D01*
X169976190Y-82166666D01*
X169976190Y-81785714D01*
X170452380Y-83309523D02*
X170452380Y-82738095D01*
X170452380Y-83023809D02*
X169452380Y-83023809D01*
X169595238Y-82928571D01*
X169690476Y-82833333D01*
X169738095Y-82738095D01*
X169785714Y-84166666D02*
X170452380Y-84166666D01*
X169404761Y-83928571D02*
X170119047Y-83690476D01*
X170119047Y-84309523D01*
G04 #@! TO.C,R15*
X185952380Y-82357142D02*
X185476190Y-82023809D01*
X185952380Y-81785714D02*
X184952380Y-81785714D01*
X184952380Y-82166666D01*
X185000000Y-82261904D01*
X185047619Y-82309523D01*
X185142857Y-82357142D01*
X185285714Y-82357142D01*
X185380952Y-82309523D01*
X185428571Y-82261904D01*
X185476190Y-82166666D01*
X185476190Y-81785714D01*
X185952380Y-83309523D02*
X185952380Y-82738095D01*
X185952380Y-83023809D02*
X184952380Y-83023809D01*
X185095238Y-82928571D01*
X185190476Y-82833333D01*
X185238095Y-82738095D01*
X184952380Y-84214285D02*
X184952380Y-83738095D01*
X185428571Y-83690476D01*
X185380952Y-83738095D01*
X185333333Y-83833333D01*
X185333333Y-84071428D01*
X185380952Y-84166666D01*
X185428571Y-84214285D01*
X185523809Y-84261904D01*
X185761904Y-84261904D01*
X185857142Y-84214285D01*
X185904761Y-84166666D01*
X185952380Y-84071428D01*
X185952380Y-83833333D01*
X185904761Y-83738095D01*
X185857142Y-83690476D01*
G04 #@! TO.C,R16*
X201202380Y-82357142D02*
X200726190Y-82023809D01*
X201202380Y-81785714D02*
X200202380Y-81785714D01*
X200202380Y-82166666D01*
X200250000Y-82261904D01*
X200297619Y-82309523D01*
X200392857Y-82357142D01*
X200535714Y-82357142D01*
X200630952Y-82309523D01*
X200678571Y-82261904D01*
X200726190Y-82166666D01*
X200726190Y-81785714D01*
X201202380Y-83309523D02*
X201202380Y-82738095D01*
X201202380Y-83023809D02*
X200202380Y-83023809D01*
X200345238Y-82928571D01*
X200440476Y-82833333D01*
X200488095Y-82738095D01*
X200202380Y-84166666D02*
X200202380Y-83976190D01*
X200250000Y-83880952D01*
X200297619Y-83833333D01*
X200440476Y-83738095D01*
X200630952Y-83690476D01*
X201011904Y-83690476D01*
X201107142Y-83738095D01*
X201154761Y-83785714D01*
X201202380Y-83880952D01*
X201202380Y-84071428D01*
X201154761Y-84166666D01*
X201107142Y-84214285D01*
X201011904Y-84261904D01*
X200773809Y-84261904D01*
X200678571Y-84214285D01*
X200630952Y-84166666D01*
X200583333Y-84071428D01*
X200583333Y-83880952D01*
X200630952Y-83785714D01*
X200678571Y-83738095D01*
X200773809Y-83690476D01*
G04 #@! TO.C,R17*
X216702380Y-82357142D02*
X216226190Y-82023809D01*
X216702380Y-81785714D02*
X215702380Y-81785714D01*
X215702380Y-82166666D01*
X215750000Y-82261904D01*
X215797619Y-82309523D01*
X215892857Y-82357142D01*
X216035714Y-82357142D01*
X216130952Y-82309523D01*
X216178571Y-82261904D01*
X216226190Y-82166666D01*
X216226190Y-81785714D01*
X216702380Y-83309523D02*
X216702380Y-82738095D01*
X216702380Y-83023809D02*
X215702380Y-83023809D01*
X215845238Y-82928571D01*
X215940476Y-82833333D01*
X215988095Y-82738095D01*
X215702380Y-83642857D02*
X215702380Y-84309523D01*
X216702380Y-83880952D01*
G04 #@! TO.C,R18*
X232202380Y-82357142D02*
X231726190Y-82023809D01*
X232202380Y-81785714D02*
X231202380Y-81785714D01*
X231202380Y-82166666D01*
X231250000Y-82261904D01*
X231297619Y-82309523D01*
X231392857Y-82357142D01*
X231535714Y-82357142D01*
X231630952Y-82309523D01*
X231678571Y-82261904D01*
X231726190Y-82166666D01*
X231726190Y-81785714D01*
X232202380Y-83309523D02*
X232202380Y-82738095D01*
X232202380Y-83023809D02*
X231202380Y-83023809D01*
X231345238Y-82928571D01*
X231440476Y-82833333D01*
X231488095Y-82738095D01*
X231630952Y-83880952D02*
X231583333Y-83785714D01*
X231535714Y-83738095D01*
X231440476Y-83690476D01*
X231392857Y-83690476D01*
X231297619Y-83738095D01*
X231250000Y-83785714D01*
X231202380Y-83880952D01*
X231202380Y-84071428D01*
X231250000Y-84166666D01*
X231297619Y-84214285D01*
X231392857Y-84261904D01*
X231440476Y-84261904D01*
X231535714Y-84214285D01*
X231583333Y-84166666D01*
X231630952Y-84071428D01*
X231630952Y-83880952D01*
X231678571Y-83785714D01*
X231726190Y-83738095D01*
X231821428Y-83690476D01*
X232011904Y-83690476D01*
X232107142Y-83738095D01*
X232154761Y-83785714D01*
X232202380Y-83880952D01*
X232202380Y-84071428D01*
X232154761Y-84166666D01*
X232107142Y-84214285D01*
X232011904Y-84261904D01*
X231821428Y-84261904D01*
X231726190Y-84214285D01*
X231678571Y-84166666D01*
X231630952Y-84071428D01*
G04 #@! TO.C,R19*
X162202380Y-82357142D02*
X161726190Y-82023809D01*
X162202380Y-81785714D02*
X161202380Y-81785714D01*
X161202380Y-82166666D01*
X161250000Y-82261904D01*
X161297619Y-82309523D01*
X161392857Y-82357142D01*
X161535714Y-82357142D01*
X161630952Y-82309523D01*
X161678571Y-82261904D01*
X161726190Y-82166666D01*
X161726190Y-81785714D01*
X162202380Y-83309523D02*
X162202380Y-82738095D01*
X162202380Y-83023809D02*
X161202380Y-83023809D01*
X161345238Y-82928571D01*
X161440476Y-82833333D01*
X161488095Y-82738095D01*
X162202380Y-83785714D02*
X162202380Y-83976190D01*
X162154761Y-84071428D01*
X162107142Y-84119047D01*
X161964285Y-84214285D01*
X161773809Y-84261904D01*
X161392857Y-84261904D01*
X161297619Y-84214285D01*
X161250000Y-84166666D01*
X161202380Y-84071428D01*
X161202380Y-83880952D01*
X161250000Y-83785714D01*
X161297619Y-83738095D01*
X161392857Y-83690476D01*
X161630952Y-83690476D01*
X161726190Y-83738095D01*
X161773809Y-83785714D01*
X161821428Y-83880952D01*
X161821428Y-84071428D01*
X161773809Y-84166666D01*
X161726190Y-84214285D01*
X161630952Y-84261904D01*
G04 #@! TO.C,R20*
X177452380Y-82357142D02*
X176976190Y-82023809D01*
X177452380Y-81785714D02*
X176452380Y-81785714D01*
X176452380Y-82166666D01*
X176500000Y-82261904D01*
X176547619Y-82309523D01*
X176642857Y-82357142D01*
X176785714Y-82357142D01*
X176880952Y-82309523D01*
X176928571Y-82261904D01*
X176976190Y-82166666D01*
X176976190Y-81785714D01*
X176547619Y-82738095D02*
X176500000Y-82785714D01*
X176452380Y-82880952D01*
X176452380Y-83119047D01*
X176500000Y-83214285D01*
X176547619Y-83261904D01*
X176642857Y-83309523D01*
X176738095Y-83309523D01*
X176880952Y-83261904D01*
X177452380Y-82690476D01*
X177452380Y-83309523D01*
X176452380Y-83928571D02*
X176452380Y-84023809D01*
X176500000Y-84119047D01*
X176547619Y-84166666D01*
X176642857Y-84214285D01*
X176833333Y-84261904D01*
X177071428Y-84261904D01*
X177261904Y-84214285D01*
X177357142Y-84166666D01*
X177404761Y-84119047D01*
X177452380Y-84023809D01*
X177452380Y-83928571D01*
X177404761Y-83833333D01*
X177357142Y-83785714D01*
X177261904Y-83738095D01*
X177071428Y-83690476D01*
X176833333Y-83690476D01*
X176642857Y-83738095D01*
X176547619Y-83785714D01*
X176500000Y-83833333D01*
X176452380Y-83928571D01*
G04 #@! TO.C,R21*
X192952380Y-82357142D02*
X192476190Y-82023809D01*
X192952380Y-81785714D02*
X191952380Y-81785714D01*
X191952380Y-82166666D01*
X192000000Y-82261904D01*
X192047619Y-82309523D01*
X192142857Y-82357142D01*
X192285714Y-82357142D01*
X192380952Y-82309523D01*
X192428571Y-82261904D01*
X192476190Y-82166666D01*
X192476190Y-81785714D01*
X192047619Y-82738095D02*
X192000000Y-82785714D01*
X191952380Y-82880952D01*
X191952380Y-83119047D01*
X192000000Y-83214285D01*
X192047619Y-83261904D01*
X192142857Y-83309523D01*
X192238095Y-83309523D01*
X192380952Y-83261904D01*
X192952380Y-82690476D01*
X192952380Y-83309523D01*
X192952380Y-84261904D02*
X192952380Y-83690476D01*
X192952380Y-83976190D02*
X191952380Y-83976190D01*
X192095238Y-83880952D01*
X192190476Y-83785714D01*
X192238095Y-83690476D01*
G04 #@! TO.C,R22*
X208452380Y-82357142D02*
X207976190Y-82023809D01*
X208452380Y-81785714D02*
X207452380Y-81785714D01*
X207452380Y-82166666D01*
X207500000Y-82261904D01*
X207547619Y-82309523D01*
X207642857Y-82357142D01*
X207785714Y-82357142D01*
X207880952Y-82309523D01*
X207928571Y-82261904D01*
X207976190Y-82166666D01*
X207976190Y-81785714D01*
X207547619Y-82738095D02*
X207500000Y-82785714D01*
X207452380Y-82880952D01*
X207452380Y-83119047D01*
X207500000Y-83214285D01*
X207547619Y-83261904D01*
X207642857Y-83309523D01*
X207738095Y-83309523D01*
X207880952Y-83261904D01*
X208452380Y-82690476D01*
X208452380Y-83309523D01*
X207547619Y-83690476D02*
X207500000Y-83738095D01*
X207452380Y-83833333D01*
X207452380Y-84071428D01*
X207500000Y-84166666D01*
X207547619Y-84214285D01*
X207642857Y-84261904D01*
X207738095Y-84261904D01*
X207880952Y-84214285D01*
X208452380Y-83642857D01*
X208452380Y-84261904D01*
G04 #@! TO.C,R23*
X223702380Y-82357142D02*
X223226190Y-82023809D01*
X223702380Y-81785714D02*
X222702380Y-81785714D01*
X222702380Y-82166666D01*
X222750000Y-82261904D01*
X222797619Y-82309523D01*
X222892857Y-82357142D01*
X223035714Y-82357142D01*
X223130952Y-82309523D01*
X223178571Y-82261904D01*
X223226190Y-82166666D01*
X223226190Y-81785714D01*
X222797619Y-82738095D02*
X222750000Y-82785714D01*
X222702380Y-82880952D01*
X222702380Y-83119047D01*
X222750000Y-83214285D01*
X222797619Y-83261904D01*
X222892857Y-83309523D01*
X222988095Y-83309523D01*
X223130952Y-83261904D01*
X223702380Y-82690476D01*
X223702380Y-83309523D01*
X222702380Y-83642857D02*
X222702380Y-84261904D01*
X223083333Y-83928571D01*
X223083333Y-84071428D01*
X223130952Y-84166666D01*
X223178571Y-84214285D01*
X223273809Y-84261904D01*
X223511904Y-84261904D01*
X223607142Y-84214285D01*
X223654761Y-84166666D01*
X223702380Y-84071428D01*
X223702380Y-83785714D01*
X223654761Y-83690476D01*
X223607142Y-83642857D01*
G04 #@! TO.C,R24*
X239202380Y-82357142D02*
X238726190Y-82023809D01*
X239202380Y-81785714D02*
X238202380Y-81785714D01*
X238202380Y-82166666D01*
X238250000Y-82261904D01*
X238297619Y-82309523D01*
X238392857Y-82357142D01*
X238535714Y-82357142D01*
X238630952Y-82309523D01*
X238678571Y-82261904D01*
X238726190Y-82166666D01*
X238726190Y-81785714D01*
X238297619Y-82738095D02*
X238250000Y-82785714D01*
X238202380Y-82880952D01*
X238202380Y-83119047D01*
X238250000Y-83214285D01*
X238297619Y-83261904D01*
X238392857Y-83309523D01*
X238488095Y-83309523D01*
X238630952Y-83261904D01*
X239202380Y-82690476D01*
X239202380Y-83309523D01*
X238535714Y-84166666D02*
X239202380Y-84166666D01*
X238154761Y-83928571D02*
X238869047Y-83690476D01*
X238869047Y-84309523D01*
G04 #@! TO.C,U1*
X61151522Y-131074026D02*
X61723942Y-131646446D01*
X61757614Y-131747461D01*
X61757614Y-131814805D01*
X61723942Y-131915820D01*
X61589255Y-132050507D01*
X61488240Y-132084179D01*
X61420896Y-132084179D01*
X61319881Y-132050507D01*
X60747461Y-131478087D01*
X60747461Y-132892301D02*
X61151522Y-132488240D01*
X60949492Y-132690270D02*
X60242385Y-131983164D01*
X60410744Y-132016835D01*
X60545431Y-132016835D01*
X60646446Y-131983164D01*
G04 #@! TO.C,U2*
X94151522Y-131074026D02*
X94723942Y-131646446D01*
X94757614Y-131747461D01*
X94757614Y-131814805D01*
X94723942Y-131915820D01*
X94589255Y-132050507D01*
X94488240Y-132084179D01*
X94420896Y-132084179D01*
X94319881Y-132050507D01*
X93747461Y-131478087D01*
X93511759Y-131848477D02*
X93444416Y-131848477D01*
X93343400Y-131882148D01*
X93175042Y-132050507D01*
X93141370Y-132151522D01*
X93141370Y-132218866D01*
X93175042Y-132319881D01*
X93242385Y-132387225D01*
X93377072Y-132454568D01*
X94185194Y-132454568D01*
X93747461Y-132892301D01*
G04 #@! TO.C,U3*
X127151522Y-131074026D02*
X127723942Y-131646446D01*
X127757614Y-131747461D01*
X127757614Y-131814805D01*
X127723942Y-131915820D01*
X127589255Y-132050507D01*
X127488240Y-132084179D01*
X127420896Y-132084179D01*
X127319881Y-132050507D01*
X126747461Y-131478087D01*
X126478087Y-131747461D02*
X126040355Y-132185194D01*
X126545431Y-132218866D01*
X126444416Y-132319881D01*
X126410744Y-132420896D01*
X126410744Y-132488240D01*
X126444416Y-132589255D01*
X126612774Y-132757614D01*
X126713790Y-132791286D01*
X126781133Y-132791286D01*
X126882148Y-132757614D01*
X127084179Y-132555583D01*
X127117851Y-132454568D01*
X127117851Y-132387225D01*
G04 #@! TO.C,U4*
X160651521Y-131074026D02*
X161223941Y-131646446D01*
X161257613Y-131747461D01*
X161257613Y-131814805D01*
X161223941Y-131915820D01*
X161089254Y-132050507D01*
X160988239Y-132084179D01*
X160920895Y-132084179D01*
X160819880Y-132050507D01*
X160247460Y-131478087D01*
X159843399Y-132353553D02*
X160314804Y-132824957D01*
X159742384Y-131915820D02*
X160415819Y-132252538D01*
X159978086Y-132690270D01*
G04 #@! TO.C,U5*
X193651522Y-131074026D02*
X194223942Y-131646446D01*
X194257614Y-131747461D01*
X194257614Y-131814805D01*
X194223942Y-131915820D01*
X194089255Y-132050507D01*
X193988240Y-132084179D01*
X193920896Y-132084179D01*
X193819881Y-132050507D01*
X193247461Y-131478087D01*
X192574026Y-132151522D02*
X192910744Y-131814805D01*
X193281133Y-132117851D01*
X193213790Y-132117851D01*
X193112774Y-132151522D01*
X192944416Y-132319881D01*
X192910744Y-132420896D01*
X192910744Y-132488240D01*
X192944416Y-132589255D01*
X193112774Y-132757614D01*
X193213790Y-132791286D01*
X193281133Y-132791286D01*
X193382148Y-132757614D01*
X193550507Y-132589255D01*
X193584179Y-132488240D01*
X193584179Y-132420896D01*
G04 #@! TO.C,U6*
X227151522Y-131074026D02*
X227723942Y-131646446D01*
X227757614Y-131747461D01*
X227757614Y-131814805D01*
X227723942Y-131915820D01*
X227589255Y-132050507D01*
X227488240Y-132084179D01*
X227420896Y-132084179D01*
X227319881Y-132050507D01*
X226747461Y-131478087D01*
X226107698Y-132117851D02*
X226242385Y-131983164D01*
X226343400Y-131949492D01*
X226410744Y-131949492D01*
X226579103Y-131983164D01*
X226747461Y-132084179D01*
X227016835Y-132353553D01*
X227050507Y-132454568D01*
X227050507Y-132521912D01*
X227016835Y-132622927D01*
X226882148Y-132757614D01*
X226781133Y-132791286D01*
X226713790Y-132791286D01*
X226612774Y-132757614D01*
X226444416Y-132589255D01*
X226410744Y-132488240D01*
X226410744Y-132420896D01*
X226444416Y-132319881D01*
X226579103Y-132185194D01*
X226680118Y-132151522D01*
X226747461Y-132151522D01*
X226848477Y-132185194D01*
G04 #@! TO.C,JP1*
X149268001Y-117642381D02*
X149982287Y-117642381D01*
X150125144Y-117594762D01*
X150220382Y-117499524D01*
X150268001Y-117356667D01*
X150268001Y-117261429D01*
X150268001Y-118118572D02*
X149268001Y-118118572D01*
X149268001Y-118499524D01*
X149315621Y-118594762D01*
X149363240Y-118642381D01*
X149458478Y-118690000D01*
X149601335Y-118690000D01*
X149696573Y-118642381D01*
X149744192Y-118594762D01*
X149791811Y-118499524D01*
X149791811Y-118118572D01*
X150268001Y-119642381D02*
X150268001Y-119070953D01*
X150268001Y-119356667D02*
X149268001Y-119356667D01*
X149410859Y-119261429D01*
X149506097Y-119166191D01*
X149553716Y-119070953D01*
G04 #@! TO.C,R25*
X141658478Y-112498095D02*
X141991811Y-112021905D01*
X142229906Y-112498095D02*
X142229906Y-111498095D01*
X141848954Y-111498095D01*
X141753716Y-111545715D01*
X141706097Y-111593334D01*
X141658478Y-111688572D01*
X141658478Y-111831429D01*
X141706097Y-111926667D01*
X141753716Y-111974286D01*
X141848954Y-112021905D01*
X142229906Y-112021905D01*
X141277525Y-111593334D02*
X141229906Y-111545715D01*
X141134668Y-111498095D01*
X140896573Y-111498095D01*
X140801335Y-111545715D01*
X140753716Y-111593334D01*
X140706097Y-111688572D01*
X140706097Y-111783810D01*
X140753716Y-111926667D01*
X141325144Y-112498095D01*
X140706097Y-112498095D01*
X139801335Y-111498095D02*
X140277525Y-111498095D01*
X140325144Y-111974286D01*
X140277525Y-111926667D01*
X140182287Y-111879048D01*
X139944192Y-111879048D01*
X139848954Y-111926667D01*
X139801335Y-111974286D01*
X139753716Y-112069524D01*
X139753716Y-112307619D01*
X139801335Y-112402857D01*
X139848954Y-112450476D01*
X139944192Y-112498095D01*
X140182287Y-112498095D01*
X140277525Y-112450476D01*
X140325144Y-112402857D01*
G04 #@! TO.C,R26*
X145658478Y-112498095D02*
X145991811Y-112021905D01*
X146229906Y-112498095D02*
X146229906Y-111498095D01*
X145848954Y-111498095D01*
X145753716Y-111545715D01*
X145706097Y-111593334D01*
X145658478Y-111688572D01*
X145658478Y-111831429D01*
X145706097Y-111926667D01*
X145753716Y-111974286D01*
X145848954Y-112021905D01*
X146229906Y-112021905D01*
X145277525Y-111593334D02*
X145229906Y-111545715D01*
X145134668Y-111498095D01*
X144896573Y-111498095D01*
X144801335Y-111545715D01*
X144753716Y-111593334D01*
X144706097Y-111688572D01*
X144706097Y-111783810D01*
X144753716Y-111926667D01*
X145325144Y-112498095D01*
X144706097Y-112498095D01*
X143848954Y-111498095D02*
X144039430Y-111498095D01*
X144134668Y-111545715D01*
X144182287Y-111593334D01*
X144277525Y-111736191D01*
X144325144Y-111926667D01*
X144325144Y-112307619D01*
X144277525Y-112402857D01*
X144229906Y-112450476D01*
X144134668Y-112498095D01*
X143944192Y-112498095D01*
X143848954Y-112450476D01*
X143801335Y-112402857D01*
X143753716Y-112307619D01*
X143753716Y-112069524D01*
X143801335Y-111974286D01*
X143848954Y-111926667D01*
X143944192Y-111879048D01*
X144134668Y-111879048D01*
X144229906Y-111926667D01*
X144277525Y-111974286D01*
X144325144Y-112069524D01*
G04 #@! TO.C,U7*
X138968001Y-118713810D02*
X139777525Y-118713810D01*
X139872763Y-118761429D01*
X139920382Y-118809048D01*
X139968001Y-118904286D01*
X139968001Y-119094762D01*
X139920382Y-119190000D01*
X139872763Y-119237619D01*
X139777525Y-119285238D01*
X138968001Y-119285238D01*
X138968001Y-119666191D02*
X138968001Y-120332857D01*
X139968001Y-119904286D01*
G04 #@! TO.C,C1*
X68370389Y-135634687D02*
X68437732Y-135634687D01*
X68572419Y-135567343D01*
X68639763Y-135500000D01*
X68707106Y-135365312D01*
X68707106Y-135230625D01*
X68673435Y-135129610D01*
X68572419Y-134961251D01*
X68471404Y-134860236D01*
X68303045Y-134759221D01*
X68202030Y-134725549D01*
X68067343Y-134725549D01*
X67932656Y-134792893D01*
X67865312Y-134860236D01*
X67797969Y-134994923D01*
X67797969Y-135062267D01*
X67764297Y-136375465D02*
X68168358Y-135971404D01*
X67966328Y-136173435D02*
X67259221Y-135466328D01*
X67427580Y-135500000D01*
X67562267Y-135500000D01*
X67663282Y-135466328D01*
G04 #@! TO.C,C2*
X101370389Y-135634687D02*
X101437732Y-135634687D01*
X101572419Y-135567343D01*
X101639763Y-135500000D01*
X101707106Y-135365312D01*
X101707106Y-135230625D01*
X101673435Y-135129610D01*
X101572419Y-134961251D01*
X101471404Y-134860236D01*
X101303045Y-134759221D01*
X101202030Y-134725549D01*
X101067343Y-134725549D01*
X100932656Y-134792893D01*
X100865312Y-134860236D01*
X100797969Y-134994923D01*
X100797969Y-135062267D01*
X100528595Y-135331641D02*
X100461251Y-135331641D01*
X100360236Y-135365312D01*
X100191877Y-135533671D01*
X100158206Y-135634687D01*
X100158206Y-135702030D01*
X100191877Y-135803045D01*
X100259221Y-135870389D01*
X100393908Y-135937732D01*
X101202030Y-135937732D01*
X100764297Y-136375465D01*
G04 #@! TO.C,C3*
X134870389Y-135134687D02*
X134937732Y-135134687D01*
X135072419Y-135067343D01*
X135139763Y-135000000D01*
X135207106Y-134865312D01*
X135207106Y-134730625D01*
X135173435Y-134629610D01*
X135072419Y-134461251D01*
X134971404Y-134360236D01*
X134803045Y-134259221D01*
X134702030Y-134225549D01*
X134567343Y-134225549D01*
X134432656Y-134292893D01*
X134365312Y-134360236D01*
X134297969Y-134494923D01*
X134297969Y-134562267D01*
X133994923Y-134730625D02*
X133557190Y-135168358D01*
X134062267Y-135202030D01*
X133961251Y-135303045D01*
X133927580Y-135404061D01*
X133927580Y-135471404D01*
X133961251Y-135572419D01*
X134129610Y-135740778D01*
X134230625Y-135774450D01*
X134297969Y-135774450D01*
X134398984Y-135740778D01*
X134601015Y-135538748D01*
X134634687Y-135437732D01*
X134634687Y-135370389D01*
G04 #@! TO.C,C4*
X167870389Y-135634687D02*
X167937732Y-135634687D01*
X168072419Y-135567343D01*
X168139763Y-135500000D01*
X168207106Y-135365312D01*
X168207106Y-135230625D01*
X168173435Y-135129610D01*
X168072419Y-134961251D01*
X167971404Y-134860236D01*
X167803045Y-134759221D01*
X167702030Y-134725549D01*
X167567343Y-134725549D01*
X167432656Y-134792893D01*
X167365312Y-134860236D01*
X167297969Y-134994923D01*
X167297969Y-135062267D01*
X166860236Y-135836717D02*
X167331641Y-136308122D01*
X166759221Y-135398984D02*
X167432656Y-135735702D01*
X166994923Y-136173435D01*
G04 #@! TO.C,C5*
X200870389Y-135634687D02*
X200937732Y-135634687D01*
X201072419Y-135567343D01*
X201139763Y-135500000D01*
X201207106Y-135365312D01*
X201207106Y-135230625D01*
X201173435Y-135129610D01*
X201072419Y-134961251D01*
X200971404Y-134860236D01*
X200803045Y-134759221D01*
X200702030Y-134725549D01*
X200567343Y-134725549D01*
X200432656Y-134792893D01*
X200365312Y-134860236D01*
X200297969Y-134994923D01*
X200297969Y-135062267D01*
X199590862Y-135634687D02*
X199927580Y-135297969D01*
X200297969Y-135601015D01*
X200230625Y-135601015D01*
X200129610Y-135634687D01*
X199961251Y-135803045D01*
X199927580Y-135904061D01*
X199927580Y-135971404D01*
X199961251Y-136072419D01*
X200129610Y-136240778D01*
X200230625Y-136274450D01*
X200297969Y-136274450D01*
X200398984Y-136240778D01*
X200567343Y-136072419D01*
X200601015Y-135971404D01*
X200601015Y-135904061D01*
G04 #@! TO.C,C6*
X234370389Y-135634687D02*
X234437732Y-135634687D01*
X234572419Y-135567343D01*
X234639763Y-135500000D01*
X234707106Y-135365312D01*
X234707106Y-135230625D01*
X234673435Y-135129610D01*
X234572419Y-134961251D01*
X234471404Y-134860236D01*
X234303045Y-134759221D01*
X234202030Y-134725549D01*
X234067343Y-134725549D01*
X233932656Y-134792893D01*
X233865312Y-134860236D01*
X233797969Y-134994923D01*
X233797969Y-135062267D01*
X233124534Y-135601015D02*
X233259221Y-135466328D01*
X233360236Y-135432656D01*
X233427580Y-135432656D01*
X233595938Y-135466328D01*
X233764297Y-135567343D01*
X234033671Y-135836717D01*
X234067343Y-135937732D01*
X234067343Y-136005076D01*
X234033671Y-136106091D01*
X233898984Y-136240778D01*
X233797969Y-136274450D01*
X233730625Y-136274450D01*
X233629610Y-136240778D01*
X233461251Y-136072419D01*
X233427580Y-135971404D01*
X233427580Y-135904061D01*
X233461251Y-135803045D01*
X233595938Y-135668358D01*
X233696954Y-135634687D01*
X233764297Y-135634687D01*
X233865312Y-135668358D01*
G04 #@! TD*
M02*
